<svg width="30" height="30" viewBox="0 0 30 30" fill="none" xmlns="http://www.w3.org/2000/svg">
<circle cx="15" cy="15" r="15" fill="#FFC107" fill-opacity="0.15"/>
<path d="M8.375 14.5H9.16667M15.5 7.375V8.16667M21.8333 14.5H22.625M10.4333 9.43333L10.9875 9.9875M20.5667 9.43333L20.0125 9.9875M13.6792 18.4583H17.3208M13.125 17.6667C12.4604 17.1682 11.9694 16.4732 11.7217 15.6802C11.474 14.8873 11.4821 14.0364 11.7448 13.2483C12.0075 12.4601 12.5116 11.7746 13.1855 11.2888C13.8595 10.8031 14.6692 10.5417 15.5 10.5417C16.3308 10.5417 17.1405 10.8031 17.8145 11.2888C18.4884 11.7746 18.9925 12.4601 19.2552 13.2483C19.5179 14.0364 19.526 14.8873 19.2783 15.6802C19.0306 16.4732 18.5396 17.1682 17.875 17.6667C17.5659 17.9726 17.3332 18.3471 17.1956 18.7597C17.0581 19.1723 17.0196 19.6114 17.0833 20.0417C17.0833 20.4616 16.9165 20.8643 16.6196 21.1613C16.3227 21.4582 15.9199 21.625 15.5 21.625C15.0801 21.625 14.6773 21.4582 14.3804 21.1613C14.0835 20.8643 13.9167 20.4616 13.9167 20.0417C13.9804 19.6114 13.9419 19.1723 13.8044 18.7597C13.6668 18.3471 13.4341 17.9726 13.125 17.6667Z" stroke="#E1AA05" stroke-width="1.5" stroke-linecap="round" stroke-linejoin="round"/>
</svg>
