<svg width="18" height="15" viewBox="0 0 18 15" fill="none" xmlns="http://www.w3.org/2000/svg">
<path fill-rule="evenodd" clip-rule="evenodd" d="M0.890381 3.74142C0.890381 3.33707 1.21817 3.00928 1.62252 3.00928H16.3825C16.7869 3.00928 17.1147 3.33707 17.1147 3.74142V12.1171C17.1147 13.3302 16.1313 14.3136 14.9182 14.3136H3.08681C1.87376 14.3136 0.890381 13.3302 0.890381 12.1171V3.74142ZM2.35467 4.47356V12.1171C2.35467 12.5215 2.68246 12.8493 3.08681 12.8493H14.9182C15.3226 12.8493 15.6504 12.5215 15.6504 12.1171V4.47356H2.35467Z" fill="#6C6C6C"/>
<path fill-rule="evenodd" clip-rule="evenodd" d="M9.00269 6.93352C8.04842 6.93352 7.27483 7.70711 7.27483 8.66138C7.27483 9.61565 8.04842 10.3892 9.00269 10.3892C9.95696 10.3892 10.7305 9.61565 10.7305 8.66138C10.7305 7.70711 9.95696 6.93352 9.00269 6.93352ZM5.81055 8.66138C5.81055 6.89841 7.23972 5.46924 9.00269 5.46924C10.7657 5.46924 12.1948 6.89841 12.1948 8.66138C12.1948 10.4244 10.7657 11.8535 9.00269 11.8535C7.23972 11.8535 5.81055 10.4244 5.81055 8.66138Z" fill="#6C6C6C"/>
<path fill-rule="evenodd" clip-rule="evenodd" d="M13.8348 1.28146C13.8348 1.68581 13.507 2.0136 13.1027 2.0136L12.2827 2.0136C11.8783 2.0136 11.5506 1.68581 11.5506 1.28146C11.5506 0.877108 11.8783 0.549316 12.2827 0.549316L13.1027 0.549316C13.507 0.549316 13.8348 0.877108 13.8348 1.28146Z" fill="#6C6C6C"/>
</svg>
