<svg width="50" height="45" viewBox="0 0 50 45" fill="none" xmlns="http://www.w3.org/2000/svg">
<path d="M12.8309 44.3515C10.7425 43.8851 9.80155 42.3721 9.5032 40.4723C9.11305 38.0037 9.04421 35.5123 10.054 33.1461C11.3048 30.1997 13.5194 28.2999 16.6521 27.5036C17.8226 27.2079 18.97 27.3671 20.0487 27.9245C23.4797 29.722 26.9107 29.7333 30.3532 27.9473C31.7073 27.242 33.0842 27.2079 34.5186 27.6856C38.5004 29.0166 41.0708 32.5318 41.1397 36.8433C41.1626 38.0492 41.1397 39.2778 40.9446 40.4609C40.6233 42.3607 39.7168 43.8737 37.6283 44.3401C29.3549 44.3515 21.0929 44.3515 12.8309 44.3515Z" fill="#0036CE"/>
<path d="M25.2352 24.9324C19.1305 24.921 14.1848 20.0407 14.2077 14.0341C14.2307 7.9366 19.1764 3.06766 25.327 3.09041C31.3628 3.11316 36.2626 8.07311 36.2396 14.1138C36.2167 20.0748 31.2595 24.9437 25.2352 24.9324Z" fill="#FF4E00"/>
<path d="M35.7344 24.2393C36.2622 23.5681 36.7671 22.9311 37.2835 22.3054C37.3638 22.2144 37.5474 22.1916 37.6851 22.1575C38.7293 21.8276 39.808 21.5546 40.8178 21.1337C41.885 20.6786 42.9292 20.5535 44.0422 20.8948C47.3011 21.8731 49.5847 24.7512 49.6535 28.1299C49.6765 29.3699 49.6879 30.644 49.424 31.8499C48.9765 33.9203 47.8634 34.6598 45.7405 34.6598C45.3848 34.6598 45.0176 34.6598 44.6275 34.6598C43.5947 29.5747 40.6571 26.105 35.7344 24.2393Z" fill="#809AE6"/>
<path d="M39.3033 18.1981C40.2213 14.9559 40.1065 11.8389 38.9132 8.76736C37.7083 5.69584 35.6543 3.31825 32.8429 1.56634C34.9084 0.349108 38.5115 0.258099 41.1967 1.919C44.4211 3.92118 45.9702 6.84482 45.5916 10.5989C45.2129 14.2847 42.654 17.288 39.3033 18.1981Z" fill="#809AE6"/>
<path d="M14.7237 24.2495C13.0483 24.841 11.5566 25.6601 10.2484 26.7863C7.98787 28.743 6.54202 31.1889 5.94532 34.1011C5.865 34.5107 5.7273 34.7154 5.27978 34.6472C5.18798 34.6358 5.0847 34.6358 4.9929 34.6472C2.33071 34.8178 1.18322 33.5778 0.861917 31.2571C0.563568 29.0957 0.529145 26.9001 1.59632 24.8638C2.67496 22.8047 4.33883 21.4396 6.58792 20.8139C7.59772 20.5295 8.60752 20.6092 9.53699 21.0983C10.5583 21.6444 11.6369 21.997 12.7844 22.1449C12.9336 22.1677 13.1172 22.2473 13.209 22.3611C13.7139 22.9754 14.1958 23.5897 14.7237 24.2495Z" fill="#809AE6"/>
<path d="M11.0872 18.2212C7.94303 17.1064 5.85459 15.0132 5.07429 11.8507C4.17924 8.1876 5.23494 5.02506 8.20695 2.64747C11.0413 0.383646 14.2313 0.121997 17.6508 1.46437C11.6609 5.60524 9.4692 11.1567 11.0872 18.2212Z" fill="#809AE6"/>
</svg>
