<svg width="33" height="33" viewBox="0 0 33 33" fill="none" xmlns="http://www.w3.org/2000/svg">
<rect x="0.5" y="0.953125" width="32" height="32" rx="16" fill="#F7F7F7"/>
<path d="M9.30469 13.1297C9.30469 13.0169 9.30469 12.9042 9.30469 12.7915C9.46627 12.318 9.80445 12.1414 10.2967 12.1489C11.2286 12.1677 12.1567 12.1527 13.0886 12.1527C13.1563 12.1527 13.2201 12.1527 13.3066 12.1527C13.3066 12.0625 13.3066 11.9949 13.3066 11.9272C13.3066 11.4462 13.2991 10.9653 13.3103 10.4843C13.3366 9.65009 14.0017 8.97748 14.8359 8.96244C15.9482 8.94741 17.0604 8.94741 18.1727 8.96244C18.9994 8.97372 19.6645 9.65009 19.687 10.4768C19.7021 10.9653 19.6908 11.45 19.6945 11.9385C19.6945 12.0061 19.6945 12.07 19.6945 12.1527C19.781 12.1527 19.8411 12.1527 19.905 12.1527C20.9045 12.1527 21.904 12.1489 22.9036 12.1564C23.3244 12.1602 23.6588 12.4758 23.6927 12.8854C23.7265 13.3025 23.4409 13.667 23.02 13.7422C22.9599 13.7534 22.8998 13.7609 22.8359 13.7722C22.8322 13.8098 22.8284 13.8436 22.8246 13.8737C22.7345 14.9371 22.648 16.0005 22.5579 17.0677C22.4489 18.3678 22.3399 19.6679 22.2309 20.9681C22.1783 21.6106 22.1558 22.2532 22.0656 22.892C21.9003 24.1019 20.9083 24.9437 19.6795 24.9512C18.338 24.9587 16.9928 24.9549 15.6513 24.9512C14.8134 24.9512 13.9754 24.9662 13.1412 24.9399C11.9764 24.9023 10.9843 23.8953 10.9092 22.7342C10.8453 21.776 10.7551 20.8178 10.6762 19.8596C10.556 18.4091 10.4357 16.9587 10.3117 15.5082C10.2629 14.9296 10.214 14.3509 10.1652 13.7647C9.72178 13.7572 9.45124 13.5205 9.30469 13.1297ZM21.2239 13.7722C18.06 13.7722 14.9223 13.7722 11.7772 13.7722C11.781 13.8474 11.781 13.9112 11.7885 13.9714C11.8824 15.0911 11.9801 16.2109 12.0741 17.3307C12.2169 19.078 12.3596 20.829 12.5024 22.5763C12.54 23.0423 12.8594 23.3504 13.3254 23.3542C15.4409 23.3579 17.5602 23.3579 19.6758 23.3542C20.1379 23.3542 20.4573 23.0498 20.4949 22.5951C20.6039 21.3063 20.7053 20.0174 20.8106 18.7323C20.9045 17.605 21.0022 16.4815 21.0961 15.3542C21.1412 14.8281 21.1826 14.3096 21.2239 13.7722ZM18.0863 12.1452C18.0863 11.6078 18.0863 11.0893 18.0863 10.5632C17.0191 10.5632 15.9707 10.5632 14.9073 10.5632C14.9073 11.0968 14.9073 11.6153 14.9073 12.1452C15.9707 12.1452 17.0229 12.1452 18.0863 12.1452Z" fill="#969CAB"/>
<path d="M14.1029 18.5669C14.1029 17.7628 14.0991 16.9586 14.1029 16.1507C14.1066 15.7412 14.3847 15.4293 14.7905 15.3654C15.155 15.3053 15.5195 15.5232 15.6473 15.8802C15.6811 15.9741 15.6999 16.0756 15.6999 16.1733C15.7036 17.759 15.7074 19.3447 15.6999 20.9267C15.6961 21.5843 15.0197 21.9676 14.4824 21.6331C14.2231 21.4716 14.0991 21.2311 14.0991 20.9267C14.1029 20.1414 14.1029 19.3522 14.1029 18.5669Z" fill="#969CAB"/>
<path d="M18.898 18.5607C18.898 19.3611 18.9018 20.1577 18.898 20.9581C18.8942 21.3639 18.6049 21.6908 18.2104 21.7509C17.8384 21.8073 17.4626 21.5781 17.3461 21.2136C17.3123 21.1084 17.2973 20.9919 17.2973 20.8829C17.2935 19.3273 17.2935 17.7754 17.2973 16.2197C17.2973 15.8064 17.519 15.4945 17.8684 15.3893C18.2028 15.2916 18.5748 15.408 18.7515 15.7087C18.8341 15.8514 18.8905 16.0356 18.8905 16.2009C18.9055 16.9863 18.898 17.7754 18.898 18.5607Z" fill="#969CAB"/>
</svg>
