<svg width="16" height="14" viewBox="0 0 16 14" fill="none" xmlns="http://www.w3.org/2000/svg">
<g clip-path="url(#clip0_374_6721)">
<path d="M2.4802 13.8416C2.25417 13.7519 2.01255 13.6935 1.80601 13.5727C1.21365 13.2258 0.905782 12.688 0.894091 12.0061C0.878503 11.176 0.886297 10.3498 0.890194 9.51972C0.890194 9.1417 1.15909 8.86891 1.51373 8.86891C1.86446 8.8728 2.12946 9.1495 2.12946 9.52751C2.13336 10.3186 2.12946 11.1058 2.12946 11.8969C2.12946 12.3451 2.37888 12.5984 2.82314 12.5984C6.50588 12.5984 10.1925 12.5984 13.8752 12.5984C14.3234 12.5984 14.5689 12.349 14.5689 11.8969C14.5689 11.1253 14.5689 10.3576 14.5689 9.58597C14.5689 9.20016 14.7482 8.94685 15.0716 8.8767C15.3717 8.81435 15.6211 8.96244 15.7887 9.30538C15.7926 9.31707 15.8082 9.32486 15.816 9.33266C15.816 10.303 15.816 11.2773 15.816 12.2477C15.8004 12.2905 15.7848 12.3295 15.7731 12.3724C15.6016 13.0583 15.1808 13.522 14.5144 13.7558C14.4169 13.7909 14.3195 13.8143 14.2221 13.8416C10.3055 13.8416 6.39286 13.8416 2.4802 13.8416Z" fill="#F4F7FF"/>
<path d="M8.97286 9.438C9.70551 8.85344 10.3953 8.30006 11.089 7.74667C11.3072 7.57131 11.5449 7.53234 11.7943 7.66484C12.0282 7.78954 12.1568 7.99998 12.1139 8.25719C12.0866 8.40918 12.0048 8.59234 11.8879 8.68587C10.8512 9.53543 9.80293 10.3694 8.75072 11.2034C8.48962 11.4099 8.20903 11.406 7.94793 11.1995C6.93079 10.3889 5.91365 9.5783 4.90042 8.75991C4.62372 8.53778 4.58475 8.16366 4.79519 7.89476C5.00953 7.62197 5.39145 7.5752 5.67593 7.80123C6.29946 8.29226 6.923 8.79499 7.54263 9.28991C7.59329 9.32889 7.64395 9.36786 7.72579 9.43021C7.72579 9.32499 7.72579 9.25094 7.72579 9.1769C7.72579 6.41777 7.72579 5.93908 7.72579 3.17995C7.72579 3.07863 7.72969 2.96951 7.76087 2.87209C7.8466 2.5837 8.12329 2.40833 8.41947 2.44341C8.70786 2.47848 8.94168 2.7201 8.96896 3.01238C8.97675 3.08253 8.97286 3.15657 8.97286 3.22672C8.97286 5.97416 8.97286 6.43726 8.97286 9.18469C8.97286 9.25484 8.97286 9.32109 8.97286 9.438Z" fill="#F4F7FF"/>
</g>
<defs>
<clipPath id="clip0_374_6721">
<rect width="14.9297" height="13.6826" fill="white" transform="translate(0.882812 0.158691)"/>
</clipPath>
</defs>
</svg>
