<svg width="95" height="95" viewBox="0 0 95 95" fill="none" xmlns="http://www.w3.org/2000/svg">
<circle cx="47.4995" cy="47.3545" r="47.3545" fill="#F4F7FF"/>
<g clip-path="url(#clip0_251_5721)">
<path d="M25.8698 69.5672C24.9458 69.0595 24.7833 68.6229 25.1489 67.6278C25.9003 65.5868 26.6618 63.5559 27.4234 61.5251C27.4742 61.3829 27.5351 61.2509 27.6265 61.0479C29.9823 63.627 33.0082 64.9166 36.3896 65.8508C34.7852 66.4499 33.323 66.9982 31.8608 67.5465C30.0635 68.2269 28.2764 68.9072 26.4791 69.5774C26.276 69.5672 26.0729 69.5672 25.8698 69.5672Z" fill="#0036CE"/>
<path d="M55.7639 56.0222C55.7741 57.8804 55.1547 58.713 53.8549 59.3731C52.677 59.9823 51.4991 59.8198 50.3009 59.6269C44.8075 58.7333 39.7304 56.7939 35.2524 53.4328C34.0136 52.4987 32.8966 51.4223 31.9726 50.153C31.8711 50.0109 31.8 49.7367 31.8609 49.5743C32.8966 46.7209 33.9425 43.8777 35.0189 41.0447C35.7703 39.085 37.0599 38.4452 39.2024 38.9225C41.1317 39.349 42.8173 40.3035 44.4217 41.4103C48.4427 44.2027 51.7428 47.6856 54.2408 51.8996C55.0633 53.2907 55.7131 54.7529 55.7639 56.0222ZM52.5044 57.2508C52.5247 57.2102 52.5349 57.1594 52.5552 57.1188C53.2051 57.129 53.4488 56.9564 53.2964 56.3166C53.073 55.3723 52.7989 54.4178 52.3623 53.5649C50.9 50.6912 48.7778 48.3151 46.4322 46.132C44.5638 44.3855 42.5634 42.8116 40.1874 41.7961C39.5273 41.5118 38.8165 41.3392 38.1058 41.2275C37.5473 41.1361 37.3137 41.3697 37.4153 41.9281C37.5574 42.6999 37.7402 43.4817 38.0651 44.1925C39.243 46.7717 41.02 48.9345 42.9899 50.9451C45.0309 53.0267 47.2344 54.9154 49.8542 56.2253C50.697 56.6314 51.621 56.9056 52.5044 57.2508Z" fill="#0036CE"/>
<path d="M30.7543 52.5488C35.3948 57.4533 41.2436 59.9614 47.6204 61.6368C47.4884 61.7079 47.397 61.7688 47.2955 61.7993C45.3256 62.5304 43.3557 63.2717 41.3655 63.9825C41.0405 64.1043 40.6445 64.1348 40.2993 64.084C37.5373 63.6575 34.8465 63.0077 32.3688 61.647C30.9879 60.8956 29.7795 59.9411 28.8859 58.621C28.7742 58.4586 28.6829 58.1946 28.7336 58.0321C29.3835 56.2246 30.0638 54.407 30.7543 52.5488Z" fill="#0036CE"/>
<path d="M48.8693 33.9467C49.1942 34.4442 49.5192 34.8809 49.7832 35.3378C50.7174 36.9219 50.3112 38.5567 48.7373 39.5213C47.732 40.1306 46.6151 40.354 45.4676 40.4961C45.0006 40.5571 44.6858 40.3134 44.5944 39.8463C44.4827 39.3385 44.3811 38.8207 44.3101 38.3028C44.2288 37.724 44.4624 37.4296 45.0513 37.2976C45.6504 37.1554 46.2597 37.0335 46.9603 36.8711C46.808 36.6375 46.7065 36.4954 46.6151 36.3532C46.3206 35.9166 45.9957 35.5104 45.7418 35.0535C44.635 33.0531 45.7215 30.9918 47.9859 30.7583C48.5342 30.6973 49.0825 30.6669 49.6816 30.6262C49.3669 30.1592 49.0724 29.7428 48.7982 29.3062C47.793 27.6511 48.2296 25.9655 49.9152 25.0008C50.8798 24.4423 51.9562 24.2189 53.0528 24.0869C53.5605 24.026 53.8449 24.2494 53.9566 24.7571C54.0683 25.2344 54.1596 25.7116 54.2307 26.199C54.3323 26.8387 54.1089 27.1434 53.4692 27.2855C52.8701 27.4175 52.2608 27.5495 51.5906 27.7018C51.9968 28.2908 52.3522 28.7782 52.6771 29.2859C53.2965 30.2607 53.4895 31.2761 52.9208 32.3423C52.4233 33.2765 51.5906 33.6928 50.5854 33.8147C50.037 33.8654 49.4887 33.8959 48.8693 33.9467Z" fill="#FF4E00"/>
<path d="M63.9283 44.8622C63.8369 45.6339 63.8166 46.365 63.6541 47.0758C63.2479 48.8629 61.4608 49.7463 59.8057 48.9543C59.0847 48.6091 58.4348 48.1115 57.6631 47.6241C57.5311 48.1623 57.389 48.6903 57.2874 49.2183C57.1148 50.1525 56.8305 50.3556 55.8963 50.1728C55.5003 50.0916 55.1043 50.0306 54.7083 49.9393C54.2513 49.8377 53.9873 49.5432 54.0482 49.066C54.1904 47.9084 54.4239 46.761 55.0535 45.7557C56.0181 44.2021 57.6327 43.8061 59.1964 44.7302C59.6635 45.0043 60.1001 45.3191 60.5977 45.6542C60.6383 45.1059 60.6789 44.5778 60.7297 44.06C60.9734 41.6128 63.1159 40.5466 65.2179 41.8159C65.7459 42.1408 66.2434 42.5165 66.8527 42.9227C66.9948 42.3338 67.137 41.8057 67.2385 41.2676C67.4112 40.3638 67.6955 40.1608 68.6094 40.3334C69.0257 40.4146 69.442 40.4857 69.8482 40.5771C70.3153 40.6786 70.5488 40.9934 70.4879 41.4605C70.3457 42.5673 70.1223 43.664 69.5537 44.6388C68.5789 46.2939 66.9136 46.7204 65.2686 45.7253C64.7914 45.4613 64.3751 45.1566 63.9283 44.8622Z" fill="#FF4E00"/>
<path d="M68.7313 32.3423C68.7313 33.2968 68.8836 33.4491 67.6651 33.571C63.6034 33.967 60.2322 35.876 57.257 38.5364C56.0588 39.6026 55.0434 40.882 53.967 42.0904C53.5203 42.5879 53.4492 42.6387 52.8907 42.263C52.6368 42.0904 52.383 41.9279 52.1393 41.7553C51.6113 41.3999 51.591 41.2273 51.9768 40.6992C53.8757 38.1099 56.1807 35.9674 58.8817 34.2412C61.2679 32.718 63.8268 31.6417 66.6395 31.2355C67.0761 31.1746 67.5128 31.134 67.9494 31.1035C68.5688 31.0629 68.7313 31.2254 68.7313 31.8448C68.7313 31.9971 68.7313 32.1697 68.7313 32.3423Z" fill="#FF4E00"/>
<path d="M41.9749 29.5089C41.9749 29.9455 41.9647 30.3821 41.9749 30.8289C41.9851 31.2655 41.8023 31.4889 41.3453 31.4889C40.929 31.4788 40.5025 31.4889 40.0761 31.4889C39.7308 31.4788 39.5379 31.296 39.5379 30.9508C39.5277 29.9556 39.5277 28.9605 39.5379 27.9654C39.5379 27.6506 39.7105 27.4577 40.0354 27.4476C40.5025 27.4374 40.9798 27.4374 41.4469 27.4476C41.7921 27.4577 41.9546 27.6709 41.9647 28.006C41.9851 28.4934 41.9749 29.0011 41.9749 29.5089Z" fill="#FF4E00"/>
<path d="M61.8365 54.9761C61.3694 54.9761 60.8922 54.9761 60.4251 54.9761C59.9986 54.9761 59.8057 54.773 59.8158 54.3567C59.826 53.9505 59.8158 53.5443 59.8158 53.1382C59.8158 52.7421 59.9986 52.5391 60.3946 52.5391C61.3592 52.5391 62.3137 52.5391 63.2784 52.5391C63.6744 52.5391 63.8673 52.7421 63.8673 53.1382C63.8673 53.5443 63.8673 53.9505 63.8673 54.3567C63.8775 54.773 63.6744 54.9862 63.2581 54.9761C62.7808 54.9761 62.3137 54.9761 61.8365 54.9761Z" fill="#FF4E00"/>
<path d="M66.9338 25.9352C66.8526 26.0571 66.7917 26.1992 66.6901 26.3008C66.0199 26.9912 65.3396 27.6614 64.6593 28.3418C64.3851 28.6159 64.111 28.6362 63.8266 28.3519C63.5322 28.0473 63.2275 27.7528 62.9331 27.4583C62.6691 27.1943 62.6487 26.9303 62.9128 26.6663C63.6134 25.9555 64.3039 25.2447 65.035 24.5745C65.167 24.4527 65.5528 24.4324 65.6849 24.5441C66.0809 24.8487 66.416 25.2346 66.7714 25.6001C66.8526 25.661 66.8729 25.793 66.9338 25.9352Z" fill="#FF4E00"/>
</g>
<defs>
<clipPath id="clip0_251_5721">
<rect width="45.501" height="45.501" fill="white" transform="translate(24.9663 24.0664)"/>
</clipPath>
</defs>
</svg>
