<svg width="21" height="21" viewBox="0 0 21 21" fill="none" xmlns="http://www.w3.org/2000/svg">
<path d="M6.46579 20.0595C5.78038 15.2617 3.60991 11.1655 0.656121 7.41207C0.411332 7.102 0.166543 6.74298 0.0359881 6.38395C-0.0456084 6.15548 0.0196688 5.69854 0.150223 5.61695C0.378693 5.50271 0.786676 5.51903 1.03147 5.64959C1.32521 5.81278 1.53736 6.12285 1.7332 6.41659C2.35333 7.36311 2.95714 8.32595 3.60991 9.33775C3.69151 9.23983 3.77311 9.17455 3.82207 9.09296C6.15572 4.08293 12.1286 0.411092 17.6282 0.557965C17.7424 0.557965 17.8403 0.557965 17.9546 0.574285C19.9292 0.721158 20.7289 1.87983 20.0761 3.75655C19.3744 5.81278 18.0035 7.42839 16.4695 8.92976C16.2247 9.17455 15.9636 9.40302 15.6372 9.71309C16.1105 10.1374 16.5348 10.4964 16.9428 10.8718C18.7542 12.569 20.3046 14.4294 20.8757 16.9262C21.3653 19.113 20.3209 20.4838 18.0525 20.5491C16.2737 20.6144 14.6907 19.9779 13.1893 19.1456C11.0352 17.9707 9.1748 16.404 7.78765 14.3967C7.1512 13.4828 6.40051 13.2381 5.40504 13.2707C5.84566 15.5228 6.26996 17.7585 6.71058 19.9942C6.62898 20.0106 6.54739 20.0269 6.46579 20.0595ZM7.82029 6.6777C8.75049 6.77562 9.48486 6.79194 10.1866 6.97145C10.921 7.15096 11.639 7.42839 12.3244 7.73846C14.1685 8.58706 14.1685 8.60338 15.6372 7.16728C15.7678 7.03673 15.9147 6.90617 16.0289 6.7593C16.7796 5.69854 17.6282 4.70307 18.232 3.57704C18.8358 2.43468 18.2646 1.65136 16.9754 1.66768C16.3063 1.66768 15.6209 1.74927 14.9681 1.92879C12.6345 2.6142 10.6599 3.93606 8.88105 5.56799C8.55466 5.87806 8.2446 6.23708 7.82029 6.6777ZM8.5057 13.3197C10.5783 15.5228 12.7487 17.3342 15.6862 17.9054C17.3997 18.2318 18.183 17.3342 17.5956 15.6696C16.9591 13.8419 15.7352 12.4384 14.3154 11.1818C14.1685 11.0513 13.7605 11.0513 13.5484 11.1492C12.863 11.4593 12.2265 11.8999 11.5248 12.1936C10.5783 12.6016 9.61542 12.9117 8.5057 13.3197ZM12.1449 9.51726C10.7414 8.6197 9.50118 7.99957 8.03244 8.01588C7.18384 8.0322 6.58003 8.50546 6.54739 9.1256C6.51475 9.71309 7.08593 10.3822 7.83661 10.4801C9.30535 10.6759 10.6272 10.1864 12.1449 9.51726Z" fill="#FEBE12"/>
</svg>
