<svg width="14" height="15" viewBox="0 0 14 15" fill="none" xmlns="http://www.w3.org/2000/svg">
<g clip-path="url(#clip0_75_2754)">
<path d="M13.1734 6.32253L7.68671 6.32227C7.44443 6.32227 7.24805 6.51862 7.24805 6.76091V8.51365C7.24805 8.75588 7.44443 8.95229 7.68669 8.95229H10.7765C10.4381 9.83034 9.80664 10.5657 9.00098 11.0329L10.3184 13.3136C12.4318 12.0913 13.6813 9.94672 13.6813 7.54602C13.6813 7.2042 13.6561 6.95984 13.6057 6.68469C13.5674 6.47564 13.3859 6.32253 13.1734 6.32253Z" fill="#167EE6"/>
<path d="M6.95566 11.5853C5.44359 11.5853 4.12357 10.7591 3.41462 9.53662L1.13403 10.8511C2.29461 12.8626 4.46873 14.2171 6.95566 14.2171C8.17566 14.2171 9.32683 13.8886 10.3185 13.3162V13.313L9.00103 11.0323C8.39839 11.3819 7.70103 11.5853 6.95566 11.5853Z" fill="#12B347"/>
<path d="M10.3184 13.3165V13.3134L9.00093 11.0327C8.3983 11.3822 7.70099 11.5857 6.95557 11.5857V14.2175C8.17557 14.2175 9.32679 13.889 10.3184 13.3165Z" fill="#0F993E"/>
<path d="M2.86177 7.49204C2.86177 6.74672 3.06517 6.04943 3.41461 5.44683L1.13403 4.13232C0.558435 5.12087 0.22998 6.26891 0.22998 7.49204C0.22998 8.71516 0.558435 9.8632 1.13403 10.8517L3.41461 9.53725C3.06517 8.93464 2.86177 8.23735 2.86177 7.49204Z" fill="#FFD500"/>
<path d="M6.95566 3.3979C7.94168 3.3979 8.84739 3.74827 9.55482 4.33106C9.72934 4.47482 9.983 4.46445 10.1429 4.30458L11.3848 3.0627C11.5661 2.88131 11.5532 2.58441 11.3595 2.41632C10.1742 1.38805 8.63201 0.766113 6.95566 0.766113C4.46873 0.766113 2.29461 2.12063 1.13403 4.13208L3.41462 5.44658C4.12357 4.22406 5.44359 3.3979 6.95566 3.3979Z" fill="#FF4B26"/>
<path d="M9.55473 4.33106C9.72925 4.47482 9.98294 4.46445 10.1428 4.30458L11.3847 3.0627C11.566 2.88131 11.5531 2.58441 11.3594 2.41632C10.1741 1.38803 8.63191 0.766113 6.95557 0.766113V3.3979C7.94156 3.3979 8.84729 3.74827 9.55473 4.33106Z" fill="#D93F21"/>
</g>
<defs>
<clipPath id="clip0_75_2754">
<rect width="13.4514" height="13.4514" fill="white" transform="translate(0.22998 0.766113)"/>
</clipPath>
</defs>
</svg>
