<svg width="56" height="60" viewBox="0 0 56 60" fill="none" xmlns="http://www.w3.org/2000/svg">
<path d="M55.7246 36.2858C55.3782 37.4308 54.5697 38.1177 53.5175 38.6775C48.1664 41.5145 42.8281 44.3641 37.5155 47.2647C35.1928 48.5241 32.8316 48.804 30.2908 48.028C27.673 47.2392 25.0424 46.5396 22.3989 45.8399C22.0652 45.7508 21.6289 45.789 21.321 45.9289C19.7554 46.6413 18.2155 47.4046 16.5858 48.1934C16.2265 46.8576 15.8672 45.5727 15.5207 44.2878C14.7123 41.3236 13.9167 38.3595 13.0826 35.408C12.9671 34.9755 13.0184 34.7846 13.4419 34.5811C15.4309 33.6524 17.3814 32.6347 19.3833 31.7441C20.8333 31.1081 22.4117 30.8536 24.0029 30.8409C28.3018 30.8155 32.6007 30.8155 36.8995 30.8282C38.6575 30.8282 40.0434 32.164 40.0948 33.8305C40.1461 35.548 38.85 36.9092 37.0535 37.0491C35.7318 37.1509 34.41 37.2654 33.0883 37.3926C31.7794 37.5198 31.0094 38.3976 31.1249 39.5808C31.2661 40.8656 32.1772 41.5653 33.5374 41.4381C35.0645 41.2855 36.6172 41.26 38.1314 41.0056C41.0957 40.4967 43.0077 38.7157 43.906 35.8787C44.0472 35.4207 44.2268 35.179 44.7144 35.0645C46.9473 34.492 49.1801 33.9323 51.3745 33.2453C53.3763 32.6219 55.083 33.2199 55.7118 35.408C55.7246 35.7006 55.7246 35.9932 55.7246 36.2858Z" fill="#0036CE"/>
<path d="M0.288223 59.3118C0.288223 52.4039 0.288223 45.4833 0.275391 38.5754C0.275391 38.1047 0.403715 37.863 0.852849 37.6721C2.9702 36.7562 5.06188 35.8148 7.16639 34.8733C8.10316 34.4662 8.64212 34.6952 8.89877 35.6621C10.336 40.8907 11.7604 46.1194 13.1976 51.348C13.4158 52.1622 13.249 52.5057 12.4405 52.9255C8.62929 54.9228 4.81806 56.9202 0.994005 58.9302C0.788687 59.032 0.609033 59.1719 0.416547 59.2991C0.37805 59.3118 0.32672 59.3118 0.288223 59.3118Z" fill="#809AE6"/>
<path d="M23.5278 25.2303C23.7588 24.7088 23.8999 24.2635 24.1438 23.8691C24.8624 22.6733 25.042 21.6046 23.8999 20.4851C23.3738 19.9635 23.1172 19.1366 22.8092 18.4242C22.6295 17.9917 22.3601 17.7881 21.9109 17.7499C21.1025 17.6736 20.294 17.5591 19.4856 17.4955C18.9466 17.4446 18.7542 17.1775 18.7542 16.6559C18.767 15.2565 18.767 13.8571 18.7542 12.4577C18.7542 11.9234 18.9466 11.6308 19.5113 11.5799C20.294 11.5163 21.0768 11.4018 21.8724 11.3382C22.3472 11.3 22.6039 11.0583 22.822 10.6385C23.361 9.60802 23.9513 8.603 24.5929 7.63615C24.8495 7.2545 24.9265 6.94918 24.7212 6.52936C24.3747 5.80422 24.0796 5.05364 23.7331 4.3285C23.515 3.84507 23.6305 3.52702 24.0796 3.27259C25.3243 2.57289 26.5691 1.8732 27.801 1.14806C28.263 0.880899 28.5966 0.944507 28.8918 1.36432C29.3665 2.02586 29.867 2.66194 30.329 3.32348C30.5728 3.67969 30.8679 3.78146 31.3042 3.75602C32.5105 3.71785 33.7296 3.71785 34.9486 3.75602C35.3849 3.76874 35.6801 3.67969 35.9239 3.32348C36.3859 2.66194 36.8863 2.02586 37.3611 1.36432C37.6691 0.944507 38.0028 0.868177 38.4519 1.13533C39.671 1.84775 40.89 2.54745 42.122 3.23442C42.6224 3.5143 42.7636 3.85779 42.5069 4.3921C42.1733 5.10452 41.891 5.84238 41.5445 6.54208C41.3135 7.00006 41.4547 7.30539 41.7113 7.69976C42.3273 8.65389 42.9176 9.64619 43.4309 10.6512C43.6618 11.1219 43.9442 11.3255 44.4446 11.3636C45.2146 11.4272 45.9717 11.5417 46.7416 11.6053C47.3063 11.6435 47.5116 11.9361 47.5116 12.4704C47.4987 13.8444 47.4987 15.231 47.5116 16.605C47.5244 17.1775 47.3191 17.4701 46.716 17.521C45.9332 17.5846 45.1504 17.6991 44.3548 17.7627C43.9057 17.8008 43.6618 18.0171 43.4437 18.4369C42.8919 19.4801 42.2888 20.4978 41.6472 21.5029C41.4162 21.8718 41.3392 22.1517 41.5188 22.5461C41.8653 23.2712 42.1605 24.0218 42.5069 24.7469C42.7507 25.2558 42.6224 25.5866 42.1476 25.8537C40.9157 26.5407 39.6966 27.2277 38.4776 27.9401C37.9899 28.22 37.6563 28.1563 37.3355 27.7111C36.8863 27.075 36.3859 26.4516 35.9367 25.8028C35.6801 25.4339 35.3721 25.3194 34.9101 25.3448C33.7167 25.3957 32.5233 25.3957 31.3299 25.3448C30.8679 25.3321 30.56 25.4212 30.3033 25.8028C29.8413 26.4644 29.3409 27.1004 28.8661 27.762C28.5838 28.1563 28.2501 28.2327 27.8138 27.9782C26.5563 27.2531 25.2987 26.5407 24.0539 25.8028C23.8614 25.6629 23.7203 25.4212 23.5278 25.2303ZM33.1136 19.62C35.9496 19.6328 38.2722 17.3556 38.2722 14.5441C38.2722 11.758 36.0009 9.46809 33.2034 9.44264C30.3546 9.42992 28.032 11.6817 28.0191 14.4932C27.9935 17.3174 30.2776 19.62 33.1136 19.62Z" fill="#FF4E00"/>
</svg>
