<svg width="37" height="37" viewBox="0 0 37 37" fill="none" xmlns="http://www.w3.org/2000/svg">
<rect x="0.5" y="0.972656" width="36" height="36" rx="18" fill="#F4F7FF"/>
<path d="M26.0001 12.3066H11.0001C10.7791 12.3066 10.5671 12.3944 10.4108 12.5507C10.2545 12.707 10.1667 12.919 10.1667 13.14V24.8066C10.1667 25.0277 10.2545 25.2396 10.4108 25.3959C10.5671 25.5522 10.7791 25.64 11.0001 25.64H26.0001C26.2211 25.64 26.4331 25.5522 26.5893 25.3959C26.7456 25.2396 26.8334 25.0277 26.8334 24.8066V13.14C26.8334 12.919 26.7456 12.707 26.5893 12.5507C26.4331 12.3944 26.2211 12.3066 26.0001 12.3066V12.3066Z" stroke="#FF4E00" stroke-width="1.4" stroke-linejoin="round"/>
<path d="M23.5001 15.6406H20.1667V18.974H23.5001V15.6406Z" stroke="#FF4E00" stroke-width="1.4" stroke-linejoin="round"/>
<path d="M13.5 22.3073H23.5M13.5 15.6406H16M13.5 18.974H16" stroke="#FF4E00" stroke-width="1.4" stroke-linecap="round" stroke-linejoin="round"/>
</svg>
