<svg width="95" height="95" viewBox="0 0 95 95" fill="none" xmlns="http://www.w3.org/2000/svg">
<circle cx="47.3545" cy="47.3545" r="47.3545" fill="#E5EBFB"/>
<g clip-path="url(#clip0_436_9064)">
<path d="M38.3838 24C44.8868 24 51.3809 24 57.8838 24C57.8838 27.2783 57.8838 30.5654 57.8838 33.8438C57.8838 34.9336 58.3779 35.4258 59.472 35.4258C62.6044 35.4258 65.7368 35.4258 68.8691 35.4258C69.0279 35.4258 69.1779 35.4258 69.3544 35.4258C69.3544 35.6279 69.3544 35.7773 69.3544 35.918C69.3544 45.542 69.3544 55.166 69.3544 64.79C69.3544 67.3301 67.6779 69 65.1279 69C58.4838 69 51.8309 69 45.1868 69C45.0456 69 44.9044 69 44.6309 69C46.4397 67.6904 47.8338 66.1699 48.8838 64.3506C49.9426 62.5312 50.5515 60.5625 50.7632 58.4531C51.3544 58.4531 51.8926 58.4531 52.4397 58.4531C55.5279 58.4531 58.6162 58.4531 61.7044 58.4531C62.322 58.4531 62.7985 58.2246 63.0544 57.6533C63.4691 56.748 62.7897 55.8164 61.7309 55.8076C58.2456 55.8076 54.7603 55.8076 51.275 55.8076C51.1073 55.8076 50.9309 55.8076 50.7544 55.8076C50.5779 53.9355 50.0573 52.2129 49.2368 50.5342C51.3985 50.5342 53.4897 50.5342 55.572 50.5342C57.6279 50.5342 59.6926 50.5342 61.7485 50.5342C62.3485 50.5342 62.8073 50.2793 63.0544 49.7344C63.4603 48.8291 62.7809 47.8975 61.722 47.8975C57.1779 47.8975 52.6338 47.8887 48.0897 47.9062C47.6573 47.9062 47.375 47.7832 47.0838 47.458C44.5338 44.6631 41.3838 43.0459 37.5985 42.7031C36.7338 42.624 35.8515 42.6943 34.9691 42.6943C34.9515 42.5713 34.9426 42.5186 34.9426 42.457C34.9426 37.5791 34.9338 32.7012 34.9515 27.8232C34.9603 26.6016 35.472 25.5469 36.4868 24.8525C37.0515 24.4746 37.7485 24.2812 38.3838 24ZM52.1485 42.6328C52.2632 42.6328 52.3868 42.6328 52.5015 42.6328C55.572 42.6328 58.6426 42.6328 61.7132 42.6328C62.3132 42.6328 62.772 42.4219 63.0456 41.877C63.4868 40.9629 62.825 40.0049 61.7397 39.9961C56.8338 39.9961 51.9279 39.9961 47.0132 39.9961C45.5132 39.9961 44.0132 39.9961 42.5132 39.9961C41.9662 39.9961 41.5426 40.2158 41.2779 40.6992C40.7838 41.6045 41.4368 42.6328 42.5309 42.6328C45.7426 42.6328 48.9456 42.6328 52.1485 42.6328Z" fill="#0036CE"/>
<path d="M60.5571 24.9316C63.1777 27.542 65.8071 30.1611 68.4277 32.7627C65.8424 32.7627 63.213 32.7627 60.5571 32.7627C60.5571 30.126 60.5571 27.5068 60.5571 24.9316Z" fill="#809AE6"/>
<path d="M37 45.625C40.0168 45.625 42.9101 46.8234 45.0433 48.9567C47.1766 51.0899 48.375 53.9832 48.375 57C48.375 60.0168 47.1766 62.9101 45.0433 65.0433C42.9101 67.1766 40.0168 68.375 37 68.375C33.9832 68.375 31.0899 67.1766 28.9567 65.0433C26.8234 62.9101 25.625 60.0168 25.625 57C25.625 53.9832 26.8234 51.0899 28.9567 48.9567C31.0899 46.8234 33.9832 45.625 37 45.625ZM37 50.5C36.7937 50.4998 36.5896 50.5427 36.4008 50.6258C36.212 50.709 36.0426 50.8306 35.9034 50.9829C35.7643 51.1352 35.6584 51.3149 35.5926 51.5104C35.5268 51.7059 35.5025 51.913 35.5212 52.1185L36.1144 58.6283C36.1374 58.8471 36.2406 59.0497 36.4041 59.197C36.5677 59.3442 36.7799 59.4257 37 59.4257C37.2201 59.4257 37.4323 59.3442 37.5959 59.197C37.7594 59.0497 37.8626 58.8471 37.8856 58.6283L38.4771 52.1185C38.4959 51.9132 38.4716 51.7062 38.4059 51.5108C38.3402 51.3154 38.2345 51.1358 38.0955 50.9835C37.9565 50.8312 37.7873 50.7096 37.5987 50.6263C37.4101 50.5431 37.2062 50.5 37 50.5ZM37 63.5C37.3448 63.5 37.6754 63.363 37.9192 63.1192C38.163 62.8754 38.3 62.5448 38.3 62.2C38.3 61.8552 38.163 61.5246 37.9192 61.2808C37.6754 61.037 37.3448 60.9 37 60.9C36.6552 60.9 36.3246 61.037 36.0808 61.2808C35.837 61.5246 35.7 61.8552 35.7 62.2C35.7 62.5448 35.837 62.8754 36.0808 63.1192C36.3246 63.363 36.6552 63.5 37 63.5Z" fill="#FF4E00"/>
</g>
<defs>
<clipPath id="clip0_436_9064">
<rect width="45" height="45" fill="white" transform="translate(24.3545 24)"/>
</clipPath>
</defs>
</svg>
