<svg width="96" height="95" viewBox="0 0 96 95" fill="none" xmlns="http://www.w3.org/2000/svg">
<circle cx="47.999" cy="47.3545" r="47.3545" fill="#F4F7FF"/>
<g clip-path="url(#clip0_963_16924)">
<path d="M39.5293 24C46.0323 24 52.5264 24 59.0293 24C59.0293 27.2783 59.0293 30.5654 59.0293 33.8438C59.0293 34.9336 59.5234 35.4258 60.6176 35.4258C63.7499 35.4258 66.8823 35.4258 70.0146 35.4258C70.1734 35.4258 70.3234 35.4258 70.4999 35.4258C70.4999 35.6279 70.4999 35.7773 70.4999 35.918C70.4999 45.542 70.4999 55.166 70.4999 64.79C70.4999 67.3301 68.8234 69 66.2734 69C59.6293 69 52.9764 69 46.3323 69C46.1911 69 46.0499 69 45.7764 69C47.5852 67.6904 48.9793 66.1699 50.0293 64.3506C51.0881 62.5312 51.697 60.5625 51.9087 58.4531C52.4999 58.4531 53.0381 58.4531 53.5852 58.4531C56.6734 58.4531 59.7617 58.4531 62.8499 58.4531C63.4676 58.4531 63.944 58.2246 64.1999 57.6533C64.6146 56.748 63.9352 55.8164 62.8764 55.8076C59.3911 55.8076 55.9058 55.8076 52.4205 55.8076C52.2528 55.8076 52.0764 55.8076 51.8999 55.8076C51.7234 53.9355 51.2028 52.2129 50.3823 50.5342C52.544 50.5342 54.6352 50.5342 56.7176 50.5342C58.7734 50.5342 60.8381 50.5342 62.894 50.5342C63.494 50.5342 63.9529 50.2793 64.1999 49.7344C64.6058 48.8291 63.9264 47.8975 62.8676 47.8975C58.3234 47.8975 53.7793 47.8887 49.2352 47.9062C48.8028 47.9062 48.5205 47.7832 48.2293 47.458C45.6793 44.6631 42.5293 43.0459 38.744 42.7031C37.8793 42.624 36.997 42.6943 36.1146 42.6943C36.097 42.5713 36.0881 42.5186 36.0881 42.457C36.0881 37.5791 36.0793 32.7012 36.097 27.8232C36.1058 26.6016 36.6176 25.5469 37.6323 24.8525C38.197 24.4746 38.894 24.2812 39.5293 24ZM53.294 42.6328C53.4087 42.6328 53.5323 42.6328 53.647 42.6328C56.7176 42.6328 59.7881 42.6328 62.8587 42.6328C63.4587 42.6328 63.9176 42.4219 64.1911 41.877C64.6323 40.9629 63.9705 40.0049 62.8852 39.9961C57.9793 39.9961 53.0734 39.9961 48.1587 39.9961C46.6587 39.9961 45.1587 39.9961 43.6587 39.9961C43.1117 39.9961 42.6881 40.2158 42.4234 40.6992C41.9293 41.6045 42.5823 42.6328 43.6764 42.6328C46.8881 42.6328 50.0911 42.6328 53.294 42.6328Z" fill="#0036CE"/>
<path d="M61.7031 24.9316C64.3237 27.542 66.9531 30.1611 69.5737 32.7627C66.9884 32.7627 64.359 32.7627 61.7031 32.7627C61.7031 30.126 61.7031 27.5068 61.7031 24.9316Z" fill="#809AE6"/>
<path d="M38.1445 45.625C41.1614 45.625 44.0546 46.8234 46.1879 48.9567C48.3211 51.0899 49.5195 53.9832 49.5195 57C49.5195 60.0168 48.3211 62.9101 46.1879 65.0433C44.0546 67.1766 41.1614 68.375 38.1445 68.375C35.1277 68.375 32.2344 67.1766 30.1012 65.0433C27.968 62.9101 26.7695 60.0168 26.7695 57C26.7695 53.9832 27.968 51.0899 30.1012 48.9567C32.2344 46.8234 35.1277 45.625 38.1445 45.625ZM38.1445 50.5C37.9382 50.4998 37.7341 50.5427 37.5453 50.6258C37.3565 50.709 37.1871 50.8306 37.048 50.9829C36.9088 51.1352 36.8029 51.3149 36.7371 51.5104C36.6713 51.7059 36.647 51.913 36.6658 52.1185L37.2589 58.6283C37.2819 58.8471 37.3851 59.0497 37.5487 59.197C37.7122 59.3442 37.9245 59.4257 38.1445 59.4257C38.3646 59.4257 38.5769 59.3442 38.7404 59.197C38.9039 59.0497 39.0072 58.8471 39.0302 58.6283L39.6217 52.1185C39.6404 51.9132 39.6161 51.7062 39.5504 51.5108C39.4847 51.3154 39.379 51.1358 39.24 50.9835C39.101 50.8312 38.9318 50.7096 38.7432 50.6263C38.5546 50.5431 38.3507 50.5 38.1445 50.5ZM38.1445 63.5C38.4893 63.5 38.82 63.363 39.0638 63.1192C39.3076 62.8754 39.4445 62.5448 39.4445 62.2C39.4445 61.8552 39.3076 61.5246 39.0638 61.2808C38.82 61.037 38.4893 60.9 38.1445 60.9C37.7997 60.9 37.4691 61.037 37.2253 61.2808C36.9815 61.5246 36.8445 61.8552 36.8445 62.2C36.8445 62.5448 36.9815 62.8754 37.2253 63.1192C37.4691 63.363 37.7997 63.5 38.1445 63.5Z" fill="#FF4E00"/>
</g>
<defs>
<clipPath id="clip0_963_16924">
<rect width="45" height="45" fill="white" transform="translate(25.5 24)"/>
</clipPath>
</defs>
</svg>
