<svg width="96" height="95" viewBox="0 0 96 95" fill="none" xmlns="http://www.w3.org/2000/svg">
<circle cx="48" cy="47.3545" r="47.3545" fill="#F4F7FF"/>
<g clip-path="url(#clip0_165_4388)">
<path d="M39.0293 24C45.5323 24 52.0264 24 58.5293 24C58.5293 27.2783 58.5293 30.5654 58.5293 33.8438C58.5293 34.9336 59.0234 35.4258 60.1176 35.4258C63.2499 35.4258 66.3823 35.4258 69.5146 35.4258C69.6734 35.4258 69.8234 35.4258 69.9999 35.4258C69.9999 35.6279 69.9999 35.7773 69.9999 35.918C69.9999 45.542 69.9999 55.166 69.9999 64.79C69.9999 67.3301 68.3234 69 65.7734 69C59.1293 69 52.4764 69 45.8323 69C45.6911 69 45.5499 69 45.2764 69C47.0852 67.6904 48.4793 66.1699 49.5293 64.3506C50.5881 62.5312 51.197 60.5625 51.4087 58.4531C51.9999 58.4531 52.5381 58.4531 53.0852 58.4531C56.1734 58.4531 59.2617 58.4531 62.3499 58.4531C62.9676 58.4531 63.444 58.2246 63.6999 57.6533C64.1146 56.748 63.4352 55.8164 62.3764 55.8076C58.8911 55.8076 55.4058 55.8076 51.9205 55.8076C51.7528 55.8076 51.5764 55.8076 51.3999 55.8076C51.2234 53.9355 50.7028 52.2129 49.8823 50.5342C52.044 50.5342 54.1352 50.5342 56.2176 50.5342C58.2734 50.5342 60.3381 50.5342 62.394 50.5342C62.994 50.5342 63.4529 50.2793 63.6999 49.7344C64.1058 48.8291 63.4264 47.8975 62.3676 47.8975C57.8234 47.8975 53.2793 47.8887 48.7352 47.9062C48.3028 47.9062 48.0205 47.7832 47.7293 47.458C45.1793 44.6631 42.0293 43.0459 38.244 42.7031C37.3793 42.624 36.497 42.6943 35.6146 42.6943C35.597 42.5713 35.5881 42.5186 35.5881 42.457C35.5881 37.5791 35.5793 32.7012 35.597 27.8232C35.6058 26.6016 36.1176 25.5469 37.1323 24.8525C37.697 24.4746 38.394 24.2812 39.0293 24ZM52.794 42.6328C52.9087 42.6328 53.0323 42.6328 53.147 42.6328C56.2176 42.6328 59.2881 42.6328 62.3587 42.6328C62.9587 42.6328 63.4176 42.4219 63.6911 41.877C64.1323 40.9629 63.4705 40.0049 62.3852 39.9961C57.4793 39.9961 52.5734 39.9961 47.6587 39.9961C46.1587 39.9961 44.6587 39.9961 43.1587 39.9961C42.6117 39.9961 42.1881 40.2158 41.9234 40.6992C41.4293 41.6045 42.0823 42.6328 43.1764 42.6328C46.3881 42.6328 49.5911 42.6328 52.794 42.6328Z" fill="#0036CE"/>
<path d="M31.629 62.0168C31.8429 62.2307 32.1151 62.3377 32.4457 62.3377C32.7762 62.3377 33.0484 62.2307 33.2623 62.0168L36.6457 58.6335L40.0582 62.046C40.2721 62.2599 40.5396 62.3618 40.8608 62.3517C41.1813 62.3423 41.4484 62.2307 41.6623 62.0168C41.8762 61.8029 41.9832 61.5307 41.9832 61.2002C41.9832 60.8696 41.8762 60.5974 41.6623 60.3835L38.279 57.0002L41.6915 53.5877C41.9054 53.3738 42.0073 53.1062 41.9972 52.785C41.9878 52.4646 41.8762 52.1974 41.6623 51.9835C41.4484 51.7696 41.1762 51.6627 40.8457 51.6627C40.5151 51.6627 40.2429 51.7696 40.029 51.9835L36.6457 55.3668L33.2332 51.9543C33.0193 51.7404 32.7521 51.6382 32.4317 51.6475C32.1104 51.6576 31.8429 51.7696 31.629 51.9835C31.4151 52.1974 31.3082 52.4696 31.3082 52.8002C31.3082 53.1307 31.4151 53.4029 31.629 53.6168L35.0123 57.0002L31.5998 60.4127C31.3859 60.6266 31.2841 60.8937 31.2942 61.2142C31.3035 61.5354 31.4151 61.8029 31.629 62.0168ZM36.6457 68.6668C35.0318 68.6668 33.5151 68.3604 32.0957 67.7475C30.6762 67.1354 29.4415 66.3043 28.3915 65.2543C27.3415 64.2043 26.5104 62.9696 25.8983 61.5502C25.2854 60.1307 24.979 58.6141 24.979 57.0002C24.979 55.3863 25.2854 53.8696 25.8983 52.4502C26.5104 51.0307 27.3415 49.796 28.3915 48.746C29.4415 47.696 30.6762 46.8646 32.0957 46.2517C33.5151 45.6396 35.0318 45.3335 36.6457 45.3335C38.2596 45.3335 39.7762 45.6396 41.1957 46.2517C42.6151 46.8646 43.8498 47.696 44.8998 48.746C45.9498 49.796 46.7809 51.0307 47.393 52.4502C48.0059 53.8696 48.3123 55.3863 48.3123 57.0002C48.3123 58.6141 48.0059 60.1307 47.393 61.5502C46.7809 62.9696 45.9498 64.2043 44.8998 65.2543C43.8498 66.3043 42.6151 67.1354 41.1957 67.7475C39.7762 68.3604 38.2596 68.6668 36.6457 68.6668Z" fill="#FF4E00"/>
<path d="M61.2031 24.9316C63.8237 27.542 66.4531 30.1611 69.0737 32.7627C66.4884 32.7627 63.859 32.7627 61.2031 32.7627C61.2031 30.126 61.2031 27.5068 61.2031 24.9316Z" fill="#809AE6"/>
</g>
<defs>
<clipPath id="clip0_165_4388">
<rect width="45" height="45" fill="white" transform="translate(25 24)"/>
</clipPath>
</defs>
</svg>
