<svg width="21" height="17" viewBox="0 0 21 17" fill="none" xmlns="http://www.w3.org/2000/svg">
<path d="M3 2.85742L8.60764 6.96969L8.60967 6.97138C9.28785 7.46871 9.62714 7.71752 9.99876 7.81364C10.3272 7.89859 10.6725 7.89859 11.001 7.81364C11.3729 7.71743 11.7132 7.46789 12.3926 6.96969L18.0002 2.85742M1.5 12.1576V4.55762C1.5 3.43751 1.5 2.87704 1.71799 2.44922C1.90973 2.07289 2.21547 1.76716 2.5918 1.57541C3.01962 1.35742 3.58009 1.35742 4.7002 1.35742H16.3002C17.4203 1.35742 17.9796 1.35742 18.4074 1.57541C18.7837 1.76716 19.0905 2.07289 19.2822 2.44922C19.5 2.87662 19.5 3.43642 19.5 4.55433V12.161C19.5 13.2789 19.5 13.8379 19.2822 14.2653C19.0905 14.6416 18.7837 14.9479 18.4074 15.1396C17.98 15.3574 17.421 15.3574 16.3031 15.3574H4.69691C3.57899 15.3574 3.0192 15.3574 2.5918 15.1396C2.21547 14.9479 1.90973 14.6416 1.71799 14.2653C1.5 13.8375 1.5 13.2777 1.5 12.1576Z" stroke="#969CAB" stroke-width="2" stroke-linecap="round" stroke-linejoin="round"/>
</svg>
