<svg width="390" height="844" viewBox="0 0 390 844" fill="none" xmlns="http://www.w3.org/2000/svg">
<path opacity="0.2" fill-rule="evenodd" clip-rule="evenodd" d="M444.736 408.842C519.742 400.745 595.609 422.756 658.17 461.87C722.217 501.912 791.484 556.749 795.513 628.15C799.49 698.635 712.751 740.915 677.448 803.489C650.588 851.097 653.337 909.646 614.281 949.381C569.242 995.203 511.614 1043.26 444.736 1040.25C378.213 1037.25 342.931 967.755 286.792 934.612C225.119 898.203 122.054 901.667 100.477 837.009C78.8279 772.133 164.133 720.163 194.619 658.399C220.259 606.451 222.696 546.227 264.67 504.346C312.887 456.238 374.287 416.447 444.736 408.842Z" fill="#002692"/>
<path opacity="0.2" fill-rule="evenodd" clip-rule="evenodd" d="M-105.171 21.9378C-37.2568 28.6783 -17.5273 114.417 38.6864 150.301C97.304 187.72 198.263 173.292 226.603 233.724C254.482 293.173 193.99 356.015 162.246 413.782C135.523 462.41 109.19 514.101 57.8103 540.888C9.13608 566.264 -49.3364 551.218 -105.171 553.198C-164.009 555.285 -222.063 571.15 -277.492 552.779C-346.636 529.862 -427.147 501.531 -452.949 437.93C-478.829 374.135 -436.816 304.418 -402.758 243.997C-373.243 191.636 -323.048 156.409 -273.358 119.33C-220.588 79.9536 -172.588 15.2466 -105.171 21.9378Z" fill="#002692"/>
<path opacity="0.2" fill-rule="evenodd" clip-rule="evenodd" d="M156.506 -243.094C231.512 -251.19 307.379 -229.18 369.94 -190.066C433.987 -150.024 503.254 -95.1864 507.284 -23.7854C511.261 46.699 424.521 88.9792 389.218 151.554C362.359 199.161 365.108 257.711 326.052 297.445C281.013 343.267 223.384 391.328 156.506 388.312C89.9835 385.312 54.7016 315.819 -1.43755 282.677C-63.1101 246.267 -166.176 249.732 -187.752 185.073C-209.402 120.198 -124.096 68.2276 -93.6108 6.46309C-67.9706 -45.485 -65.5333 -105.709 -23.5591 -147.589C24.6574 -195.698 86.0572 -235.489 156.506 -243.094Z" fill="#002692"/>
</svg>
