<svg width="22" height="24" viewBox="0 0 22 24" fill="none" xmlns="http://www.w3.org/2000/svg">
<path d="M1.57373 8.11377H20.2404M1.57373 8.11377V18.3807C1.57373 19.6875 1.57373 20.3405 1.82805 20.8396C2.05175 21.2787 2.40845 21.636 2.84749 21.8597C3.34613 22.1138 3.99922 22.1138 5.30346 22.1138H16.5107C17.8149 22.1138 18.4671 22.1138 18.9657 21.8597C19.4047 21.636 19.7626 21.2787 19.9863 20.8396C20.2404 20.341 20.2404 19.6888 20.2404 18.3846V8.11377M1.57373 8.11377V7.18066C1.57373 5.87387 1.57373 5.21999 1.82805 4.72087C2.05175 4.28182 2.40845 3.92513 2.84749 3.70142C3.34662 3.4471 4.0005 3.4471 5.30729 3.4471H6.2404M20.2404 8.11377V7.17683C20.2404 5.8726 20.2404 5.21951 19.9863 4.72087C19.7626 4.28182 19.4047 3.92513 18.9657 3.70142C18.4666 3.4471 17.8141 3.4471 16.5073 3.4471H15.5737M15.5737 1.11377V3.4471M15.5737 3.4471H6.2404M6.2404 1.11377V3.4471" stroke="#969CAB" stroke-width="2" stroke-linecap="round" stroke-linejoin="round"/>
</svg>
