<svg width="22" height="22" viewBox="0 0 22 22" fill="none" xmlns="http://www.w3.org/2000/svg">
<path d="M20.5148 16.614V10.1414C20.5148 9.51805 20.5142 9.20618 20.4384 8.9161C20.3712 8.65904 20.261 8.41576 20.1117 8.19593C19.9434 7.94787 19.7092 7.74216 19.2401 7.33165L13.6401 2.43165C12.769 1.66948 12.3335 1.28859 11.8434 1.14364C11.4115 1.01592 10.9511 1.01592 10.5192 1.14364C10.0295 1.28848 9.59457 1.66901 8.72484 2.43003L3.12299 7.33165C2.65383 7.74216 2.4198 7.94787 2.2514 8.19593C2.10217 8.41577 1.99106 8.65904 1.92388 8.9161C1.84808 9.20619 1.84808 9.51805 1.84808 10.1414V16.614C1.84808 17.7012 1.84808 18.2446 2.0257 18.6734C2.26252 19.2452 2.71646 19.7 3.28819 19.9368C3.71699 20.1144 4.26059 20.1144 5.34778 20.1144C6.43498 20.1144 6.97918 20.1144 7.40798 19.9368C7.97971 19.7 8.43353 19.2453 8.67035 18.6735C8.84796 18.2447 8.84808 17.7011 8.84808 16.6139V15.4473C8.84808 14.1586 9.89275 13.1139 11.1814 13.1139C12.4701 13.1139 13.5148 14.1586 13.5148 15.4473V16.6139C13.5148 17.7011 13.5148 18.2447 13.6924 18.6735C13.9292 19.2453 14.3831 19.7 14.9549 19.9368C15.3837 20.1144 15.9273 20.1144 17.0144 20.1144C18.1016 20.1144 18.6458 20.1144 19.0746 19.9368C19.6464 19.7 20.1002 19.2452 20.337 18.6734C20.5146 18.2446 20.5148 17.7012 20.5148 16.614Z" stroke="#969CAB" stroke-width="2" stroke-linecap="round" stroke-linejoin="round"/>
</svg>
