<svg width="21" height="22" viewBox="0 0 21 22" fill="none" xmlns="http://www.w3.org/2000/svg">
<path d="M12.2334 19.8563L17.6937 16.7039C18.2765 16.3673 18.5674 16.199 18.7794 15.9636C18.9669 15.7553 19.1087 15.51 19.1953 15.2435C19.293 14.9429 19.293 14.607 19.293 13.9371V7.62295C19.293 6.95305 19.293 6.61721 19.1953 6.31665C19.1087 6.05009 18.9669 5.80456 18.7794 5.59627C18.5683 5.36188 18.2781 5.19432 17.7002 4.8607L12.2324 1.70386C11.6495 1.36733 11.3587 1.19941 11.0488 1.13355C10.7747 1.07528 10.4912 1.07528 10.2171 1.13355C9.90724 1.19941 9.61541 1.36733 9.03252 1.70386L3.57124 4.85693C2.98904 5.19307 2.69816 5.361 2.48633 5.59627C2.29879 5.80456 2.15715 6.05009 2.07054 6.31665C1.97266 6.61792 1.97266 6.95463 1.97266 7.62769V13.9326C1.97266 14.6057 1.97266 14.9422 2.07054 15.2434C2.15715 15.51 2.29879 15.7553 2.48633 15.9636C2.69829 16.199 2.98938 16.3673 3.57227 16.7039L9.03252 19.8563C9.6154 20.1929 9.90724 20.3609 10.2171 20.4267C10.4912 20.485 10.7747 20.485 11.0488 20.4267C11.3587 20.3609 11.6505 20.1929 12.2334 19.8563Z" stroke="#969CAB" stroke-width="2" stroke-linecap="round" stroke-linejoin="round"/>
<path d="M7.63281 10.78C7.63281 12.4369 8.97596 13.78 10.6328 13.78C12.2897 13.78 13.6328 12.4369 13.6328 10.78C13.6328 9.12318 12.2897 7.78003 10.6328 7.78003C8.97596 7.78003 7.63281 9.12318 7.63281 10.78Z" stroke="#969CAB" stroke-width="2" stroke-linecap="round" stroke-linejoin="round"/>
</svg>
