<svg width="29" height="29" viewBox="0 0 29 29" fill="none" xmlns="http://www.w3.org/2000/svg">
<path d="M6.80339 23.9766L8.58134 22.5542L8.59441 22.5442C8.96508 22.2476 9.15212 22.098 9.3608 21.9914C9.54802 21.8957 9.74767 21.8261 9.95361 21.7838C10.1857 21.7362 10.4275 21.7362 10.9129 21.7362H21.0408C22.345 21.7362 22.9979 21.7362 23.4965 21.4821C23.9356 21.2584 24.2927 20.9011 24.5164 20.462C24.7705 19.9634 24.7705 19.3112 24.7705 18.007V9.13256C24.7705 7.82833 24.7705 7.17523 24.5164 6.6766C24.2927 6.23755 23.9348 5.88085 23.4958 5.65715C22.9967 5.40283 22.3442 5.40283 21.0374 5.40283H7.50407C6.19728 5.40283 5.5434 5.40283 5.04427 5.65715C4.60523 5.88085 4.24853 6.23755 4.02483 6.6766C3.77051 7.17572 3.77051 7.8296 3.77051 9.13639V22.5192C3.77051 23.7625 3.77051 24.3841 4.02537 24.7034C4.24703 24.981 4.58302 25.1426 4.93831 25.1422C5.34685 25.1418 5.83252 24.7533 6.80339 23.9766Z" stroke="#969CAB" stroke-width="2" stroke-linecap="round" stroke-linejoin="round"/>
</svg>
