<svg width="21" height="24" viewBox="0 0 21 24" fill="none" xmlns="http://www.w3.org/2000/svg">
<path d="M1.04443 8.61328H19.7111M1.04443 8.61328V18.8802C1.04443 20.187 1.04443 20.84 1.29875 21.3391C1.52246 21.7782 1.87915 22.1355 2.3182 22.3592C2.81684 22.6133 3.46993 22.6133 4.77416 22.6133H15.9814C17.2856 22.6133 17.9378 22.6133 18.4364 22.3592C18.8754 22.1355 19.2333 21.7782 19.457 21.3391C19.7111 20.8405 19.7111 20.1884 19.7111 18.8841V8.61328M1.04443 8.61328V7.68018C1.04443 6.37339 1.04443 5.7195 1.29875 5.22038C1.52246 4.78133 1.87915 4.42464 2.3182 4.20093C2.81732 3.94661 3.47121 3.94661 4.778 3.94661H5.7111M19.7111 8.61328V7.67634C19.7111 6.37211 19.7111 5.71902 19.457 5.22038C19.2333 4.78133 18.8754 4.42464 18.4364 4.20093C17.9373 3.94661 17.2848 3.94661 15.978 3.94661H15.0444M15.0444 1.61328V3.94661M15.0444 3.94661H5.7111M5.7111 1.61328V3.94661" stroke="#9097A9" stroke-width="2" stroke-linecap="round" stroke-linejoin="round"/>
</svg>
