<svg width="22" height="22" viewBox="0 0 22 22" fill="none" xmlns="http://www.w3.org/2000/svg">
<path d="M6.07402 15.9473V10.1139M10.7407 15.9473V6.61393M15.4073 15.9473V13.6139M17.7407 1.94727H3.74068C3.12184 1.94727 2.52835 2.1931 2.09077 2.63068C1.65318 3.06827 1.40735 3.66176 1.40735 4.2806V18.2806C1.40735 18.8994 1.65318 19.4929 2.09077 19.9305C2.52835 20.3681 3.12184 20.6139 3.74068 20.6139H17.7407C18.3595 20.6139 18.953 20.3681 19.3906 19.9305C19.8282 19.4929 20.074 18.8994 20.074 18.2806V4.2806C20.074 3.66176 19.8282 3.06827 19.3906 2.63068C18.953 2.1931 18.3595 1.94727 17.7407 1.94727Z" stroke="#9097A9" stroke-width="2.3" stroke-linecap="round" stroke-linejoin="round"/>
</svg>
