<svg width="26" height="25" viewBox="0 0 26 25" fill="none" xmlns="http://www.w3.org/2000/svg">
<g clip-path="url(#clip0_1434_4407)">
<path d="M0.769531 19.9586C0.851574 19.5291 0.899835 19.0899 1.01083 18.6652C1.68648 16.0929 3.90164 14.2928 6.5608 14.2252C8.35127 14.177 10.1417 14.2156 11.9322 14.2108C12.0094 14.2108 12.0866 14.2204 12.1397 14.2252C12.1397 14.8719 12.1397 15.4945 12.1397 16.1412C12.077 16.1412 12.0046 16.1412 11.937 16.1412C10.1803 16.1412 8.41884 16.1171 6.66215 16.1508C4.61108 16.1943 2.95091 17.7531 2.75304 19.7993C2.69996 20.3543 2.68548 20.9238 2.75304 21.4788C2.84474 22.2413 3.53004 22.8012 4.30221 22.8012C7.67562 22.806 11.0442 22.8108 14.4176 22.8012C15.1464 22.8012 15.6241 22.3861 15.9137 21.7442C16.5025 21.9759 17.0864 22.2075 17.7283 22.4633C17.5353 22.7722 17.3712 23.11 17.1395 23.3948C16.4398 24.2634 15.518 24.7219 14.3983 24.7268C11.0249 24.7364 7.65632 24.7364 4.2829 24.7268C2.5407 24.7219 1.06875 23.4189 0.812966 21.6815C0.80814 21.6381 0.784009 21.5946 0.769531 21.5512C0.769531 21.0203 0.769531 20.4895 0.769531 19.9586Z" fill="#969CAB"/>
<path d="M4.11914 5.81795C4.06123 2.80166 6.58526 1.01119 8.64116 0.779543C10.6681 0.552719 12.3283 1.2525 13.6168 2.82097C14.418 3.78618 14.6689 4.93478 14.5724 6.1606C14.418 8.10068 13.5975 9.75602 12.2704 11.1507C10.5668 12.9412 8.11512 12.9219 6.4067 11.1073C5.18088 9.80428 4.39905 8.27924 4.16258 6.48877C4.13845 6.26677 4.13362 6.03995 4.11914 5.81795ZM6.05922 6.12199C6.14609 7.48294 6.85552 8.87767 8.05721 10.0166C8.83903 10.7598 9.98281 10.7068 10.7646 9.92975C11.8408 8.85837 12.502 7.57464 12.6468 6.05443C12.7192 5.32569 12.6082 4.62109 12.1256 4.03231C11.2472 2.9561 10.1228 2.49279 8.74251 2.70514C7.17887 2.9561 6.04957 4.26879 6.05922 6.12199Z" fill="#969CAB"/>
<path d="M25.0443 15.2291C25.0395 18.2551 22.5589 20.7309 19.533 20.726C16.507 20.7212 14.0312 18.2454 14.0312 15.2195C14.0312 12.1839 16.5263 9.69848 19.5571 9.71295C22.5879 9.72261 25.0491 12.1984 25.0443 15.2291ZM23.1187 15.2243C23.1235 13.2601 21.5261 11.6482 19.5619 11.6337C17.5929 11.6192 15.9665 13.2312 15.9568 15.205C15.9472 17.174 17.5688 18.7956 19.5378 18.7956C21.502 18.7956 23.1139 17.1885 23.1187 15.2243Z" fill="#969CAB"/>
<path d="M18.5822 14.2539C18.5822 14.0367 18.5725 13.8581 18.5822 13.6844C18.6063 13.1873 18.9924 12.8012 19.4702 12.7771C19.9914 12.753 20.4113 13.086 20.4836 13.6024C20.5126 13.8051 20.5078 14.0174 20.5174 14.2587C20.6863 14.2587 20.8408 14.2539 21 14.2587C21.584 14.2828 21.9845 14.6786 21.9797 15.2287C21.9749 15.7741 21.5695 16.1698 20.9856 16.1843C20.8359 16.1891 20.6863 16.1843 20.5029 16.1843C20.5029 16.3532 20.5029 16.498 20.5029 16.638C20.4933 17.2509 20.0927 17.6659 19.5281 17.6611C18.9731 17.6563 18.587 17.2412 18.5773 16.638C18.5773 16.4932 18.5773 16.3532 18.5773 16.1795C18.3988 16.1795 18.2492 16.1843 18.0996 16.1795C17.5156 16.165 17.1006 15.7741 17.0957 15.2336C17.0909 14.6738 17.4963 14.278 18.0947 14.2587C18.2443 14.2491 18.394 14.2539 18.5822 14.2539Z" fill="#969CAB"/>
</g>
<defs>
<clipPath id="clip0_1434_4407">
<rect width="24.2751" height="24" fill="white" transform="translate(0.769531 0.736328)"/>
</clipPath>
</defs>
</svg>
