<svg width="22" height="22" viewBox="0 0 22 22" fill="none" xmlns="http://www.w3.org/2000/svg">
<path d="M6.60331 15.4468V9.61344M11.27 15.4468V6.11344M15.9366 15.4468V13.1134M18.27 1.44678H4.26998C3.65114 1.44678 3.05765 1.69261 2.62006 2.13019C2.18248 2.56778 1.93665 3.16127 1.93665 3.78011V17.7801C1.93665 18.3989 2.18248 18.9924 2.62006 19.43C3.05765 19.8676 3.65114 20.1134 4.26998 20.1134H18.27C18.8888 20.1134 19.4823 19.8676 19.9199 19.43C20.3575 18.9924 20.6033 18.3989 20.6033 17.7801V3.78011C20.6033 3.16127 20.3575 2.56778 19.9199 2.13019C19.4823 1.69261 18.8888 1.44678 18.27 1.44678Z" stroke="#969CAB" stroke-width="2.3" stroke-linecap="round" stroke-linejoin="round"/>
</svg>
