<svg width="390" height="844" viewBox="0 0 390 844" fill="none" xmlns="http://www.w3.org/2000/svg">
<g clip-path="url(#clip0_273_1395)">
<rect width="390" height="844" fill="#181818"/>
<mask id="mask0_273_1395" style="mask-type:alpha" maskUnits="userSpaceOnUse" x="1" y="-30" width="390" height="844">
<rect x="390" y="814" width="388.69" height="844" transform="rotate(-180 390 814)" fill="url(#paint0_linear_273_1395)"/>
</mask>
<g mask="url(#mask0_273_1395)">
<path opacity="0.2" fill-rule="evenodd" clip-rule="evenodd" d="M444.736 378.842C519.742 370.746 595.609 392.756 658.17 431.87C722.217 471.912 791.484 526.749 795.513 598.15C799.491 668.635 712.751 710.915 677.448 773.489C650.589 821.097 653.337 879.646 614.282 919.381C569.243 965.203 511.614 1013.26 444.736 1010.25C378.213 1007.25 342.931 937.755 286.792 904.613C225.12 868.203 122.054 871.668 100.477 807.009C78.828 742.133 164.133 690.163 194.619 628.399C220.259 576.451 222.696 516.227 264.671 474.347C312.887 426.238 374.287 386.447 444.736 378.842Z" fill="#002692"/>
<path opacity="0.2" fill-rule="evenodd" clip-rule="evenodd" d="M-105.17 -8.06268C-37.2567 -1.32214 -17.5272 84.4169 38.6865 120.301C97.3041 157.719 198.264 143.291 226.604 203.724C254.482 263.173 193.99 326.014 162.246 383.781C135.523 432.41 109.19 484.101 57.8104 510.887C9.1362 536.264 -49.3363 521.218 -105.17 523.198C-164.009 525.284 -222.063 541.15 -277.492 522.778C-346.636 499.861 -427.147 471.53 -452.948 407.93C-478.829 344.135 -436.816 274.417 -402.758 213.997C-373.243 161.636 -323.048 126.409 -273.357 89.3299C-220.588 49.9531 -172.588 -14.7539 -105.17 -8.06268Z" fill="#002692"/>
<path opacity="0.2" fill-rule="evenodd" clip-rule="evenodd" d="M156.506 -273.094C231.512 -281.19 307.379 -259.18 369.941 -220.066C433.987 -180.024 503.255 -125.187 507.284 -53.7857C511.261 16.6987 424.522 58.9789 389.218 121.553C362.359 169.161 365.108 227.71 326.052 267.445C281.013 313.267 223.384 361.327 156.506 358.311C89.9837 355.311 54.7018 285.819 -1.43731 252.677C-63.1098 216.267 -166.175 219.732 -187.752 155.073C-209.401 90.1973 -124.096 38.2274 -93.6106 -23.5372C-67.9704 -75.4853 -65.5331 -135.709 -23.5588 -177.589C24.6576 -225.698 86.0575 -265.489 156.506 -273.094Z" fill="#2F2E41"/>
</g>
<rect x="124.8" y="830.12" width="140.4" height="5.2" rx="2.6" fill="white"/>
</g>
<defs>
<linearGradient id="paint0_linear_273_1395" x1="432.543" y1="1658" x2="991.214" y2="1040.51" gradientUnits="userSpaceOnUse">
<stop stop-color="#4700C0"/>
<stop offset="1" stop-color="#A044FF"/>
</linearGradient>
<clipPath id="clip0_273_1395">
<rect width="390" height="844" fill="white"/>
</clipPath>
</defs>
</svg>
