<svg width="352" height="338" viewBox="0 0 352 338" fill="none" xmlns="http://www.w3.org/2000/svg">
<g clip-path="url(#clip0_85_8811)">
<path d="M316.992 327.455C318.325 327.538 319.062 325.881 318.053 324.915L317.953 324.516C317.966 324.484 317.979 324.452 317.993 324.42C319.341 321.204 323.909 321.226 325.246 324.447C326.432 327.306 327.942 330.17 328.314 333.193C328.481 334.527 328.406 335.887 328.11 337.196C330.889 331.12 332.352 324.486 332.352 317.813C332.352 316.137 332.26 314.46 332.073 312.788C331.919 311.42 331.706 310.061 331.431 308.714C329.943 301.433 326.722 294.498 322.076 288.705C319.842 287.484 317.979 285.574 316.854 283.284C316.45 282.458 316.133 281.57 315.983 280.665C316.237 280.699 316.942 276.825 316.75 276.587C317.104 276.049 317.738 275.781 318.125 275.257C320.049 272.646 322.7 273.102 324.084 276.649C327.041 278.143 327.069 280.619 325.255 283.001C324.101 284.516 323.943 286.566 322.93 288.188C323.034 288.322 323.142 288.451 323.247 288.584C325.157 291.037 326.81 293.672 328.202 296.441C327.809 293.364 328.39 289.657 329.381 287.267C330.509 284.544 332.623 282.251 334.485 279.897C336.721 277.069 341.307 278.303 341.701 281.887C341.705 281.922 341.708 281.957 341.712 281.991C341.435 282.148 341.164 282.313 340.9 282.488C339.39 283.487 339.912 285.829 341.701 286.105L341.741 286.112C341.641 287.108 341.47 288.097 341.22 289.068C343.609 298.311 338.452 301.678 331.09 301.829C330.927 301.912 330.769 301.996 330.606 302.075C331.352 304.177 331.948 306.333 332.39 308.518C332.786 310.449 333.061 312.4 333.215 314.36C333.406 316.833 333.39 319.319 333.181 321.788L333.194 321.7C333.723 318.981 335.198 316.441 337.34 314.682C340.531 312.058 345.04 311.093 348.482 308.984C350.139 307.969 352.263 309.281 351.973 311.203L351.959 311.295C351.447 311.504 350.947 311.746 350.463 312.017C350.187 312.173 349.916 312.339 349.651 312.514C348.142 313.513 348.663 315.854 350.452 316.131L350.492 316.137C350.522 316.141 350.547 316.145 350.576 316.149C349.696 318.239 348.471 320.178 346.938 321.85C345.444 329.919 339.03 330.684 332.169 328.335H332.165C331.415 331.604 330.319 334.799 328.91 337.843H317.283C317.242 337.714 317.204 337.58 317.167 337.451C318.242 337.518 319.325 337.455 320.384 337.259C319.521 336.2 318.658 335.132 317.796 334.073C317.775 334.052 317.758 334.031 317.742 334.01C317.304 333.468 316.862 332.93 316.425 332.388L316.425 332.388C316.397 330.723 316.597 329.064 316.992 327.455Z" fill="#F2F2F2"/>
<path d="M103.073 337.232C103.073 337.658 103.415 338 103.841 338H351.142C351.568 338 351.91 337.658 351.91 337.232C351.91 336.806 351.568 336.463 351.142 336.463H103.841C103.415 336.463 103.073 336.806 103.073 337.232Z" fill="#CCCCCC"/>
<path d="M140.599 337.673H26.7688C12.8892 337.673 1.59723 326.373 1.59723 312.483V67.6843C1.59723 53.7951 12.8892 42.4953 26.7688 42.4953H140.599C154.478 42.4953 165.77 53.7951 165.77 67.6843V312.483C165.77 326.373 154.478 337.673 140.599 337.673Z" fill="#3F3D56"/>
<path d="M165.77 132.54C165.183 132.54 164.705 133.018 164.705 133.606V167.706C164.705 168.294 165.183 168.771 165.77 168.771C166.358 168.771 166.835 168.294 166.835 167.706V133.606C166.835 133.018 166.358 132.54 165.77 132.54Z" fill="#3F3D56"/>
<path d="M163.375 67.6845V312.479C163.375 324.569 153.972 334.458 142.082 335.225H142.077C141.901 335.235 141.725 335.246 141.544 335.251C141.23 335.267 140.916 335.273 140.597 335.273C140.597 335.273 139.425 335.188 137.285 335.028C135.123 334.868 131.977 334.628 128.052 334.314C126.876 334.223 125.635 334.122 124.325 334.015C121.716 333.802 118.852 333.568 115.78 333.301C114.555 333.2 113.288 333.088 111.994 332.976C105.381 332.406 97.9748 331.74 90.164 330.984C88.8435 330.861 87.5124 330.733 86.1706 330.6C85.8193 330.563 85.4625 330.531 85.1058 330.493C79.5364 329.945 3.99344 315.335 3.99344 312.479V67.6845C3.99344 55.0942 14.1897 44.8909 26.7713 44.8909H40.3698C42.5421 44.8909 44.2885 46.5852 44.4749 48.7538C44.4909 48.8977 44.5068 49.0415 44.5335 49.1854C44.9275 51.3646 46.9241 52.8831 49.1391 52.8831H118.229C120.444 52.8831 122.44 51.3646 122.834 49.1854C122.861 49.0415 122.877 48.8977 122.893 48.7538C123.079 46.5852 124.826 44.8909 126.998 44.8909H140.597C153.178 44.8909 163.375 55.0942 163.375 67.6845Z" fill="white"/>
<path d="M1.06488 106.965C0.477581 106.965 0 107.443 0 108.031V116.556C0 117.144 0.477587 117.622 1.06488 117.622C1.65217 117.622 2.12976 117.144 2.12976 116.556V108.031C2.12976 107.443 1.65217 106.965 1.06488 106.965Z" fill="#3F3D56"/>
<path d="M1.06488 132.54C0.477581 132.54 0 133.018 0 133.606V150.123C0 150.711 0.477587 151.189 1.06488 151.189C1.65217 151.189 2.12976 150.711 2.12976 150.123V133.606C2.12976 133.018 1.65217 132.54 1.06488 132.54Z" fill="#3F3D56"/>
<path d="M1.06488 155.984C0.477581 155.984 0 156.462 0 157.05V173.567C0 174.155 0.477587 174.632 1.06488 174.632C1.65217 174.632 2.12976 174.154 2.12976 173.567V157.05C2.12976 156.462 1.65217 155.984 1.06488 155.984Z" fill="#3F3D56"/>
<path d="M39.9991 48.6227H19.6342C19.5237 48.6227 19.4341 48.7123 19.4341 48.8229V51.0864C19.4341 51.197 19.5237 51.2867 19.6342 51.2867H39.9991C40.1096 51.2867 40.1993 51.197 40.1993 51.0864V48.8229C40.1993 48.7123 40.1096 48.6227 39.9991 48.6227Z" fill="#E6E6E6"/>
<path d="M130.363 51.2867C131.539 51.2867 132.493 50.3325 132.493 49.1555C132.493 47.9784 131.539 47.0242 130.363 47.0242C129.187 47.0242 128.233 47.9784 128.233 49.1555C128.233 50.3325 129.187 51.2867 130.363 51.2867Z" fill="#E6E6E6"/>
<path d="M136.22 51.2867C137.396 51.2867 138.35 50.3325 138.35 49.1555C138.35 47.9784 137.396 47.0242 136.22 47.0242C135.044 47.0242 134.09 47.9784 134.09 49.1555C134.09 50.3325 135.044 51.2867 136.22 51.2867Z" fill="#E6E6E6"/>
<path d="M142.077 51.2867C143.253 51.2867 144.207 50.3325 144.207 49.1555C144.207 47.9784 143.253 47.0242 142.077 47.0242C140.901 47.0242 139.947 47.9784 139.947 49.1555C139.947 50.3325 140.901 51.2867 142.077 51.2867Z" fill="#E6E6E6"/>
<path d="M128.582 192.738H38.2533C36.8303 192.738 35.6725 191.579 35.6725 190.155C35.6725 188.731 36.8303 187.573 38.2533 187.573H128.582C130.005 187.573 131.163 188.731 131.163 190.155C131.163 191.579 130.005 192.738 128.582 192.738Z" fill="#E6E6E6"/>
<path d="M83.7416 292.814C104.409 292.814 121.163 276.048 121.163 255.366C121.163 234.684 104.409 217.918 83.7416 217.918C63.074 217.918 46.3197 234.684 46.3197 255.366C46.3197 276.048 63.074 292.814 83.7416 292.814Z" fill="#6C63FF"/>
<path d="M89.689 243.139C86.5308 243.269 82.9604 243.486 80.6262 245.911C78.5982 248.018 78.1538 251.144 80.2103 253.393C82.2722 255.648 85.4781 255.954 87.8549 257.713C90.6457 259.779 90.237 263.866 87.5362 265.823C84.3515 268.132 80.2395 267.056 77.328 264.859C76.5819 264.296 75.8577 265.557 76.5953 266.113C79.2038 268.081 82.6077 269.177 85.833 268.235C88.7438 267.385 91.0002 265.01 91.2297 261.921C91.3392 260.447 90.9203 258.95 90.0041 257.786C89.0369 256.557 87.6439 255.801 86.2356 255.186C83.8114 254.127 79.6372 252.756 80.3421 249.308C81.1964 245.128 86.2805 244.732 89.689 244.592C90.6199 244.553 90.6247 243.101 89.689 243.139Z" fill="white"/>
<path d="M83.8302 241.162L83.691 273.053C83.6869 273.988 85.1386 273.989 85.1427 273.053L85.2819 241.162C85.286 240.227 83.8342 240.226 83.8302 241.162Z" fill="white"/>
<path d="M282.01 0H97.507C90.7388 0 85.2352 5.50741 85.2352 12.2803V138.803C85.2352 145.575 90.7388 151.083 97.507 151.083H282.01C288.778 151.083 294.282 145.575 294.282 138.803V12.2803C294.282 5.50741 288.778 0 282.01 0Z" fill="white"/>
<path d="M188.91 75.2288C200.313 75.2288 209.557 65.9786 209.557 54.5679C209.557 43.1572 200.313 33.907 188.91 33.907C177.507 33.907 168.263 43.1572 168.263 54.5679C168.263 65.9786 177.507 75.2288 188.91 75.2288Z" fill="#6C63FF"/>
<path d="M192.827 45.348C190.271 45.4534 187.394 45.6156 185.461 47.5188C183.859 49.0954 183.299 51.5497 184.771 53.4059C186.32 55.3603 188.897 55.7312 190.919 56.9801C192.176 57.7563 193.009 58.9323 193.036 60.4436C193.062 61.8584 192.409 63.1803 191.318 64.0671C188.642 66.2428 184.992 65.3421 182.46 63.4394C181.962 63.065 181.479 63.9055 181.972 64.2756C184.069 65.8515 186.769 66.7668 189.378 66.0887C191.78 65.4646 193.714 63.5739 193.975 61.0474C194.249 58.3846 192.502 56.5714 190.236 55.5312C188.165 54.5804 184.533 53.5674 184.875 50.6136C185.311 46.8581 189.905 46.437 192.827 46.3165C193.447 46.2909 193.45 45.3223 192.827 45.348Z" fill="white"/>
<path d="M188.385 43.5918L188.269 70.1657C188.266 70.789 189.234 70.7898 189.237 70.1657L189.353 43.5918C189.356 42.9685 188.388 42.9677 188.385 43.5918Z" fill="white"/>
<path d="M282.01 0H97.507C90.7388 0 85.2352 5.50741 85.2352 12.2803V138.803C85.2352 145.575 90.7388 151.083 97.507 151.083H282.01C288.778 151.083 294.282 145.575 294.282 138.803V12.2803C294.282 5.50741 288.778 0 282.01 0ZM292.991 138.803C292.991 144.865 288.068 149.792 282.01 149.792H97.507C91.4485 149.792 86.5256 144.865 86.5256 138.803V12.2803C86.5256 6.21765 91.4485 1.29131 97.507 1.29131H282.01C288.068 1.29131 292.991 6.21764 292.991 12.2803V138.803Z" fill="#3F3D56"/>
<path d="M168.486 12.4934H150.382C149.472 12.4934 148.73 13.2359 148.73 14.1463C148.73 15.0631 149.472 15.8056 150.382 15.8056H168.486C169.396 15.8056 170.138 15.0631 170.138 14.1463C170.138 13.2359 169.396 12.4934 168.486 12.4934Z" fill="#E6E6E6"/>
<path d="M198.811 12.4934H180.706C179.796 12.4934 179.054 13.2359 179.054 14.1463C179.054 15.0631 179.796 15.8056 180.706 15.8056H198.811C199.72 15.8056 200.462 15.0631 200.462 14.1463C200.462 13.2359 199.72 12.4934 198.811 12.4934Z" fill="#E6E6E6"/>
<path d="M229.135 12.4934H211.031C210.121 12.4934 209.379 13.2359 209.379 14.1463C209.379 15.0631 210.121 15.8056 211.031 15.8056H229.135C230.045 15.8056 230.787 15.0631 230.787 14.1463C230.787 13.2359 230.045 12.4934 229.135 12.4934Z" fill="#E6E6E6"/>
<path d="M258.995 86.8506H120.521C114.76 86.8506 110.076 91.538 110.076 97.3037V106.743C110.076 112.509 114.76 117.196 120.521 117.196H258.995C264.757 117.196 269.441 112.509 269.441 106.743V97.3037C269.441 91.538 264.757 86.8506 258.995 86.8506Z" fill="#6C63FF"/>
<path d="M47.2156 136.55L41.9056 134.033C44.0836 137.075 45.9602 141.825 46.9649 145.605C48.666 142.084 51.4083 137.776 54.1227 135.202L48.5106 136.647C51.9687 119.687 64.9756 107.511 79.8704 107.511V106.22C64.3124 106.22 50.7465 118.906 47.2156 136.55Z" fill="#3F3D56"/>
<path d="M71.6554 162.392H38.1048C36.6817 162.392 35.524 161.233 35.524 159.809C35.524 158.385 36.6817 157.227 38.1048 157.227H71.6554C73.0785 157.227 74.2362 158.385 74.2362 159.809C74.2362 161.233 73.0785 162.392 71.6554 162.392Z" fill="#E6E6E6"/>
<path d="M294.845 153.981L294.506 180.348L287.95 203.854L282.709 201.897L285.036 180.352L284.73 151.196L294.845 153.981Z" fill="#FFB6B6"/>
<path d="M287.928 207.644C288.543 204.264 287.416 201.228 285.41 200.863C283.405 200.497 281.28 202.941 280.666 206.321C280.051 209.701 281.178 212.737 283.183 213.102C285.189 213.468 287.313 211.024 287.928 207.644Z" fill="#FFB6B6"/>
<path d="M286.889 122.585C286.889 122.585 298.12 122.739 298.111 128.71C298.105 132.081 297.382 162.686 295.369 181.279C293.816 195.616 290.852 199.357 290.852 199.357L283.755 183.216L286.889 122.585Z" fill="#E6E6E6"/>
<path d="M286.6 176.456H248.67C251.85 169.357 253.804 162.596 250.749 157.218L286.6 155.138C284.809 162.398 284.59 169.523 286.6 176.456Z" fill="#FFB6B6"/>
<path d="M281.924 113.542L266.856 112.502L260.621 120.301L257.46 120.877C252.722 121.739 249.348 125.97 249.559 130.785L250.789 158.75L286.805 161.378L295.433 124.961L285.042 120.821L281.924 113.542Z" fill="#E6E6E6"/>
<path d="M190.033 121.978C191.102 122.94 191.865 124.065 192.268 125.155L203.031 133.679L198.828 138.686L188.362 129.5C187.236 129.213 186.039 128.572 184.97 127.61C182.527 125.411 181.681 122.368 183.079 120.813C184.477 119.258 187.59 119.779 190.033 121.978Z" fill="#FFB6B6"/>
<path d="M266.126 129.154L224.887 157.02L195.326 136.434L199.764 128.39L223.03 141.92L244.486 125.434C252.127 118.252 261.703 119.644 266.126 129.154Z" fill="#E6E6E6"/>
<path d="M273.496 110.167C279.67 110.167 284.675 105.158 284.675 98.9802C284.675 92.8021 279.67 87.7937 273.496 87.7937C267.322 87.7937 262.317 92.8021 262.317 98.9802C262.317 105.158 267.322 110.167 273.496 110.167Z" fill="#FFB6B6"/>
<path d="M288.691 96.2319V98.4013L276.084 94.8502L266.631 96.8324C266.522 95.3926 266.096 93.9786 265.386 92.726C265.88 94.735 265.935 96.2892 265.412 97.0906L264.141 97.3553C263.934 96.7936 263.534 96.303 263.012 96.0059C262.96 95.9737 262.896 95.9478 262.838 95.9672C262.747 95.9995 262.741 96.1157 262.741 96.2061C262.754 96.6839 262.767 97.1616 262.786 97.6394L259.134 98.4013V96.2319C255.631 88.3434 264.865 81.5173 273.916 81.4465C278 81.4145 281.69 83.0993 284.368 85.7723C287.039 88.4518 288.691 92.1449 288.691 96.2319Z" fill="#2F2E41"/>
<path d="M295.783 121.67L294.831 121.591C294.899 121.279 294.967 120.972 295.029 120.66C295.556 118.045 294.395 114.717 294.309 112.205C293.861 114.859 294.628 118.124 293.835 120.644C293.746 120.924 290.301 122.731 290.207 123.007C286.394 121.612 282.424 117.154 277.928 119.758C275.269 121.298 272.235 120.623 269.216 119.917C268.468 119.743 268.365 116.05 267.625 115.905C266.3 115.645 264.355 119.002 263.109 119.133L268.27 99.118C268.27 88.2297 267.262 76.8059 281.045 80.656C284.512 81.6243 287.943 82.3833 290.501 85.2464C293.06 88.1134 294.881 92.1201 295.527 96.6828C295.916 99.4355 298.345 108.782 295.783 121.67Z" fill="#2F2E41"/>
<path d="M286.883 322.943L280.73 323.089L277.3 295.426L286.38 295.211L286.883 322.943Z" fill="#FFB7B7"/>
<path d="M265.772 335.789C265.772 336.829 266.51 337.673 267.42 337.673H279.633C279.633 337.673 280.835 332.838 285.735 330.757L286.074 337.673H292.374L291.611 326.553C291.611 326.553 293.296 320.604 289.796 317.564C286.296 314.523 289.131 314.946 289.131 314.946L287.754 308.064L278.233 309.184L278.163 319.987L273.543 330.711L266.766 334.061C266.163 334.359 265.772 335.038 265.772 335.789Z" fill="#2F2E41"/>
<path d="M268.163 318.435L262.248 320.138L251.916 294.252L260.644 291.738L268.163 318.435Z" fill="#FFB7B7"/>
<path d="M251.001 336.221C251.265 337.228 252.192 337.856 253.072 337.625L264.886 334.524C264.886 334.524 264.822 329.542 269.035 326.285L271.115 332.888L277.21 331.288L273.652 320.727C273.652 320.727 273.773 314.544 269.616 312.492C265.46 310.439 268.309 310.129 268.309 310.129L265.232 303.822L256.307 307.323L258.979 317.79L257.229 329.336L251.524 334.297C251.016 334.739 250.811 335.495 251.001 336.221Z" fill="#2F2E41"/>
<path d="M283.11 174.822L286.981 176.113C293.034 187.3 295.6 202.155 295.26 220.068L288.383 300.524H277.133L268.9 210.893L254.383 244.535L265.005 300.524L254.383 301.608L232.99 243.388L247.889 175.723L283.11 174.822Z" fill="#2F2E41"/>
</g>
<defs>
<clipPath id="clip0_85_8811">
<rect width="352" height="338" fill="white"/>
</clipPath>
</defs>
</svg>
