<svg width="382" height="311" viewBox="0 0 382 311" fill="none" xmlns="http://www.w3.org/2000/svg">
<g clip-path="url(#clip0_85_8589)">
<path d="M275.575 57.5798H247.596V10.8295L275.575 20.1796V57.5798Z" fill="#2F2E41"/>
<path d="M280.542 294.945L274.768 295.088L271.55 267.926L280.07 267.715L280.542 294.945Z" fill="#A0616A"/>
<path d="M260.733 307.559C260.733 308.58 261.425 309.408 262.279 309.408H273.739C273.739 309.408 274.867 304.661 279.465 302.618L279.783 309.408H285.695L284.978 298.49C284.978 298.49 286.56 292.649 283.275 289.663C279.991 286.677 282.651 287.093 282.651 287.093L281.359 280.335L272.425 281.435L272.36 292.043L268.024 302.572L261.665 305.861C261.099 306.154 260.733 306.821 260.733 307.559Z" fill="#2F2E41"/>
<path d="M250.951 294.945L245.177 295.088L241.958 267.926L250.479 267.715L250.951 294.945Z" fill="#A0616A"/>
<path d="M231.141 307.559C231.141 308.58 231.834 309.408 232.687 309.408H244.148C244.148 309.408 245.276 304.661 249.874 302.618L250.191 309.408H256.104L255.387 298.49C255.387 298.49 256.969 292.649 253.684 289.663C250.4 286.677 253.06 287.093 253.06 287.093L251.768 280.335L242.834 281.435L242.769 292.043L238.433 302.572L232.074 305.861C231.508 306.154 231.141 306.821 231.141 307.559Z" fill="#2F2E41"/>
<path d="M277.361 108.694L240.453 131.757L232.119 167.287L236.286 276.995H254.562L258.609 171.339L266.711 276.995H285.273L289.968 158.347C291.26 149.725 290.24 140.896 287.02 132.845L277.361 108.694Z" fill="#2F2E41"/>
<path d="M269.027 38.2564L253.549 37.0097L249.382 45.7364L237.477 48.8531L234.5 87.5001C240.388 103.519 244.085 118.827 240.453 131.757L285.695 129.264L278.141 107.876C278.141 107.876 277.956 99.9668 282.123 89.3701C286.29 78.7733 279.742 51.3465 279.742 51.3465L270.217 48.8531L269.027 38.2564Z" fill="#6C63FF"/>
<path d="M164.813 53.29C166.32 53.3389 167.713 53.0273 168.809 52.4691L183.137 53.8845L183.581 46.7254L168.998 46.0604C167.938 45.4322 166.566 45.031 165.059 44.9821C161.616 44.8704 158.77 46.6396 158.702 48.9338C158.635 51.2279 161.371 53.1783 164.813 53.29Z" fill="#A0616A"/>
<path d="M249.573 75.1454C249.573 75.1454 249.067 52.3385 244.29 48.9153C242.32 47.5036 212.027 47.1828 210.924 47.0631C204.118 46.3246 199.275 43.4952 193.545 43.1851C179.581 42.4294 172.521 45.9778 172.521 45.9778L172.275 53.3001L249.573 75.1454Z" fill="#6C63FF"/>
<path d="M259.97 36.4188C266.795 36.4188 272.328 30.6249 272.328 23.4778C272.328 16.3307 266.795 10.5369 259.97 10.5369C253.144 10.5369 247.611 16.3307 247.611 23.4778C247.611 30.6249 253.144 36.4188 259.97 36.4188Z" fill="#A0616A"/>
<path d="M256.221 4.20799C253.563 5.96261 251.616 4.7064 249.717 5.59132C246.008 7.32028 239.745 19.4639 240.31 24.548C241.109 31.7483 243.637 32.0448 243.561 37.2107C243.44 45.5061 242.811 45.4716 244.433 48.3681C246.238 51.5896 256.458 50.7149 258.355 46.3463C258.73 45.4844 254.572 45.8234 249.978 34.5163C247.672 28.8424 249.186 23.6722 249.978 21.4262C250.163 20.9004 250.248 17.1673 250.643 17.5816C254.113 21.2143 256.057 18.5588 258.152 18.2541C262.451 17.6287 265.689 21.2605 266.993 19.9567C267.964 18.9864 266.726 16.4211 267.196 16.2323C267.698 16.031 269.36 18.8452 270.448 21.872C271.15 23.824 271.501 24.7999 271.464 25.9156C271.352 29.3611 270.513 39.13 269.027 41.9964C265.816 48.1863 269.859 50.5219 272.379 50.0707C274.415 49.7061 283.416 51.1415 283.909 50.0998C284.348 49.1718 283.345 39.6263 282.292 30.752C281.026 20.0858 275.951 10.284 267.994 3.49404C267.527 3.09586 267.179 2.82265 266.993 2.71827C266.552 2.47101 262.008 0.00031507 258.66 1.9734C257.428 2.69977 257.628 3.27925 256.221 4.20799Z" fill="#2F2E41"/>
<path d="M101.842 305.048L94.9854 305.047L91.7235 277.352L101.844 277.353L101.842 305.048Z" fill="#FFB6B6"/>
<path d="M78.3496 304.885C78.1361 305.262 78.0234 306.477 78.0234 306.915C78.0234 308.261 79.0653 309.352 80.3507 309.352H101.586C102.463 309.352 103.174 308.607 103.174 307.689V306.763C103.174 306.763 104.224 303.981 102.061 300.552C102.061 300.552 99.3732 303.237 95.3566 299.031L94.1722 296.784L85.5983 303.35L80.846 303.963C79.8063 304.097 78.8844 303.942 78.3496 304.885Z" fill="#2F2E41"/>
<path d="M130.752 305.048L123.895 305.047L120.634 277.352L130.754 277.353L130.752 305.048Z" fill="#FFB6B6"/>
<path d="M107.26 304.885C107.046 305.262 106.933 306.477 106.933 306.915C106.933 308.261 107.975 309.352 109.261 309.352H130.496C131.373 309.352 132.084 308.607 132.084 307.689V306.763C132.084 306.763 133.134 303.981 130.971 300.552C130.971 300.552 128.283 303.237 124.267 299.031L123.082 296.784L114.508 303.35L109.756 303.963C108.716 304.097 107.794 303.942 107.26 304.885Z" fill="#2F2E41"/>
<path d="M132.112 130.195L81.8088 129.59L76.6049 164.1L89.3254 283.374H106.002L109.852 172.274L116.79 285.493H133.865L141.653 156.532L132.112 130.195Z" fill="#2F2E41"/>
<path d="M345.371 300.291C346.566 300.37 347.226 298.816 346.322 297.91L346.232 297.536C346.244 297.506 346.256 297.476 346.268 297.446C347.476 294.429 351.57 294.45 352.768 297.471C353.831 300.152 355.184 302.838 355.518 305.672C355.667 306.924 355.6 308.199 355.335 309.426C357.826 303.729 359.136 297.507 359.136 291.25C359.136 289.678 359.054 288.106 358.886 286.538C358.748 285.256 358.558 283.981 358.311 282.718C356.978 275.89 354.091 269.387 349.927 263.955C347.925 262.809 346.256 261.018 345.248 258.871C344.886 258.097 344.602 257.264 344.467 256.415C344.695 256.447 345.326 252.814 345.154 252.591C345.472 252.087 346.04 251.836 346.387 251.344C348.111 248.895 350.487 249.323 351.727 252.65C354.377 254.05 354.402 256.372 352.777 258.605C351.742 260.026 351.6 261.949 350.693 263.47C350.786 263.595 350.883 263.716 350.977 263.842C352.689 266.141 354.169 268.612 355.418 271.209C355.065 268.323 355.586 264.847 356.474 262.606C357.485 260.052 359.379 257.902 361.048 255.695C363.052 253.043 367.161 254.2 367.514 257.561C367.518 257.594 367.521 257.626 367.524 257.659C367.276 257.805 367.034 257.961 366.797 258.125C365.444 259.062 365.911 261.258 367.514 261.517L367.55 261.523C367.461 262.457 367.308 263.384 367.084 264.295C369.224 272.963 364.603 276.12 358.005 276.261C357.859 276.34 357.717 276.418 357.572 276.492C358.24 278.463 358.774 280.485 359.17 282.534C359.525 284.344 359.771 286.174 359.91 288.012C360.081 290.331 360.066 292.662 359.88 294.977L359.891 294.895C360.365 292.345 361.687 289.964 363.607 288.314C366.466 285.854 370.506 284.948 373.591 282.971C375.076 282.019 376.979 283.249 376.72 285.052L376.707 285.138C376.248 285.334 375.8 285.561 375.367 285.815C375.119 285.961 374.876 286.117 374.639 286.281C373.286 287.218 373.754 289.413 375.357 289.673L375.393 289.678C375.419 289.682 375.441 289.686 375.468 289.69C374.68 291.649 373.582 293.468 372.207 295.036C370.869 302.602 365.121 303.32 358.972 301.117H358.968C358.296 304.182 357.314 307.178 356.052 310.033H345.633C345.595 309.911 345.562 309.786 345.528 309.665C346.491 309.728 347.462 309.669 348.411 309.485C347.638 308.492 346.865 307.491 346.092 306.497C346.073 306.478 346.058 306.458 346.043 306.439C345.651 305.93 345.255 305.426 344.863 304.918L344.863 304.917C344.838 303.356 345.017 301.801 345.371 300.291Z" fill="#F2F2F2"/>
<path d="M0 310.28C0 310.679 0.306464 311 0.688094 311H381.312C381.694 311 382 310.679 382 310.28C382 309.88 381.694 309.559 381.312 309.559H0.688094C0.306464 309.559 0 309.88 0 310.28Z" fill="#CCCCCC"/>
<path d="M115.055 39.6805H97.1516L93.6619 46.9459L76.6049 55.1481L82.6761 102.042L78.0505 132.92H135.832L130.667 97.1983L137.605 54.2113L118.525 46.3405L115.055 39.6805Z" fill="#E6E6E6"/>
<path d="M174.985 153.313C174.204 151.645 173.847 149.93 173.888 148.43L165.491 133.03L172.605 129.061L180.357 145.109C181.515 145.995 182.591 147.34 183.371 149.008C185.155 152.819 184.724 156.872 182.408 158.061C180.092 159.249 176.768 157.124 174.985 153.313Z" fill="#FFB6B6"/>
<path d="M119.635 52.1448C119.635 52.1448 125.299 46.0417 131.654 50.2888C138.009 54.536 161.19 97.9974 161.19 97.9974L179.072 135.361L166.45 141.519L151.222 105.74L119.242 69.7026L119.635 52.1448Z" fill="#E6E6E6"/>
<path d="M105.345 36.1391C114.274 36.1391 121.512 28.5599 121.512 19.2104C121.512 9.86096 114.274 2.28172 105.345 2.28172C96.4166 2.28172 89.1784 9.86096 89.1784 19.2104C89.1784 28.5599 96.4166 36.1391 105.345 36.1391Z" fill="#FFB6B6"/>
<path d="M100.272 32.8348C100.346 34.4933 100.384 35.3226 100.141 35.4228C99.4081 35.7245 89.9761 29.8917 88.8654 26.0088C88.3474 24.1979 88.7849 24.1618 88.4068 19.0097C88.0451 14.0821 87.6397 14.0428 88.119 12.8237C88.6518 11.4687 90.2787 9.79925 93.5326 6.46034C94.7629 5.19788 95.378 4.56664 95.7664 4.24027C96.9433 3.25111 101.328 -0.433846 105.348 0.0422372C107.034 0.241799 106.745 0.946349 113.041 4.52131C113.583 4.82923 114.311 5.2357 115.315 5.7024C117.757 6.83744 119.272 7.1317 120.07 7.44823C124.904 9.36657 123.486 20.0526 123.07 20.1139C122.919 20.1362 122.878 18.7505 122.084 18.6359C121.37 18.5328 120.916 19.585 120.267 19.6233C118.494 19.7279 120.463 17.9513 116.125 15.9781C114.438 15.211 119.131 18.6697 114.664 18.6135C107.679 18.5257 112.146 18.9913 109.493 20.4504C107.559 21.5146 99.776 15.6583 100.092 17.5296C100.315 18.8495 101.23 19.2295 101.098 20.7081C100.97 22.1407 99.942 23.6846 99.0351 23.7414C98.1993 23.7937 97.7412 22.5654 97.4624 22.6829C97.1591 22.8108 97.4922 24.3521 98.1461 25.9357C98.9764 27.946 99.4719 27.9617 99.9098 29.5079C100.162 30.3972 100.198 31.2097 100.272 32.8348Z" fill="#2F2E41"/>
<path d="M227.692 148.342L123.525 120.59C116.866 118.816 112.827 111.7 114.521 104.727L127.48 51.3928C129.174 44.4202 135.97 40.1907 142.629 41.9647L246.796 69.7167C253.455 71.4907 257.494 78.6067 255.8 85.5793L242.841 138.914C241.147 145.887 234.351 150.116 227.692 148.342Z" fill="white"/>
<path d="M227.692 148.342L123.525 120.59C120.196 119.703 117.521 117.481 115.611 114.534C112.831 110.246 112.106 104.848 113.326 99.8254L124.193 55.1005C125.413 50.0782 128.514 45.6994 132.913 43.3241C135.936 41.6916 139.3 41.0777 142.629 41.9647L246.796 69.7167C253.466 71.4936 257.497 78.5955 255.8 85.5793L242.841 138.914C241.147 145.887 234.351 150.116 227.692 148.342ZM142.344 43.1383C136.293 41.5263 137.875 47.2643 136.335 53.6C128.825 84.5109 144.359 116.468 172.651 128.287C187.923 134.667 200.626 139.882 200.626 139.882C221.783 145.518 243.297 132.129 248.679 109.975L254.679 85.2808C256.219 78.945 252.562 72.5022 246.511 70.8902L142.344 43.1383Z" fill="#3F3D56"/>
<path d="M191.083 85.1676C190.357 78.9191 184.931 74.4699 178.964 75.23C173.053 75.9829 168.832 81.5646 169.457 87.7428L169.284 87.7648L171.913 110.393L191.798 107.86C192.426 107.895 193.065 107.878 193.712 107.795C199.679 107.035 203.928 101.354 203.202 95.1052C202.476 88.8567 197.05 84.4075 191.083 85.1676Z" fill="#FF4B26"/>
<path d="M152.969 298.924C152.126 296.652 149.685 295.524 147.514 296.406C145.365 297.28 144.29 299.797 145.088 302.053L145.025 302.078L148.075 310.307L155.306 307.368C155.545 307.319 155.783 307.248 156.018 307.153C158.188 306.271 159.265 303.714 158.423 301.442C157.581 299.169 155.139 298.042 152.969 298.924Z" fill="#E6E6E6"/>
<path d="M314.865 298.924C314.023 296.652 311.581 295.524 309.411 296.406C307.261 297.28 306.186 299.797 306.984 302.053L306.921 302.078L309.971 310.307L317.202 307.368C317.441 307.319 317.68 307.248 317.915 307.153C320.085 306.271 321.161 303.714 320.319 301.442C319.477 299.169 317.035 298.042 314.865 298.924Z" fill="#E6E6E6"/>
<path d="M182.545 150.385C190.209 150.385 196.422 143.879 196.422 135.854C196.422 127.829 190.209 121.324 182.545 121.324C174.881 121.324 168.668 127.829 168.668 135.854C168.668 143.879 174.881 150.385 182.545 150.385Z" fill="#6C63FF"/>
<path d="M119.463 76.9242C117.974 77.9343 116.39 78.5085 114.963 78.6449L101.359 89.2058L96.749 82.2804L111.045 72.313C111.748 71.0045 112.895 69.726 114.384 68.7159C117.786 66.4083 121.68 66.3751 123.083 68.6417C124.485 70.9084 122.864 74.6166 119.463 76.9242Z" fill="#FFB6B6"/>
<path d="M87.5996 52.2797C87.5996 52.2797 77.192 51.0688 75.4573 55.3069C73.7227 59.545 70.2535 101.927 70.2535 101.927L76.0355 112.219L113.953 82.1693L106.275 74.1288L90.0239 82.1693L87.5996 52.2797Z" fill="#E6E6E6"/>
<path d="M238.345 65.9743C239.581 67.3063 241.003 68.2353 242.366 68.7012L253.382 82.1693L259.349 76.4928L247.531 63.4419C247.125 62.0025 246.278 60.4885 245.041 59.1565C242.216 56.1136 238.426 55.1731 236.577 57.0558C234.728 58.9385 235.519 62.9314 238.345 65.9743Z" fill="#A0616A"/>
<path d="M274.649 49.3791C274.649 49.3791 285.053 50.6257 285.842 55.1619C286.632 59.6981 281.001 101.824 281.001 101.824L273.175 110.51L242.6 72.3726L251.796 66.3246L265.929 77.9528L274.649 49.3791Z" fill="#6C63FF"/>
<path d="M134.369 98.2902C139.161 98.2902 143.045 94.223 143.045 89.2058C143.045 84.1886 139.161 80.1214 134.369 80.1214C129.578 80.1214 125.694 84.1886 125.694 89.2058C125.694 94.223 129.578 98.2902 134.369 98.2902Z" fill="#E6E6E6"/>
</g>
<defs>
<clipPath id="clip0_85_8589">
<rect width="382" height="311" fill="white"/>
</clipPath>
</defs>
</svg>
