<svg width="372" height="338" viewBox="0 0 372 338" fill="none" xmlns="http://www.w3.org/2000/svg">
<g clip-path="url(#clip0_85_8933)">
<path d="M321.986 286.393H49.1014V240.129H53.3111V205.693C53.3202 197.58 56.5517 189.802 62.2964 184.065C68.0412 178.328 75.8301 175.101 83.9544 175.092H287.628C295.752 175.101 303.541 178.328 309.286 184.065C315.031 189.802 318.262 197.58 318.271 205.693V240.129H321.986V286.393Z" fill="#E4E4E4"/>
<path d="M329.379 337.313H315.795V337.066C315.781 325.068 311.003 313.565 302.507 305.082C294.012 296.598 282.494 291.826 270.479 291.812H100.608C88.5934 291.826 77.0751 296.598 68.5797 305.082C60.0843 313.565 55.3057 325.068 55.2921 337.066V337.313H41.7077C38.6128 337.31 35.6456 336.08 33.4571 333.895C31.2687 331.709 30.0377 328.746 30.0342 325.656V250.029C26.0895 247.804 22.8811 235.716 24.9651 226.063C26.2729 220.005 30.0485 212.688 40.608 212.235C50.8873 211.794 58.5171 221.431 59.1986 230.708C59.568 235.59 58.1323 240.437 55.1633 244.333H55.2921V255.121C77.5827 247.988 99.9048 244.358 121.643 244.333C143.888 244.354 165.978 248.026 187.031 255.2C230.804 241.062 274.123 240.787 315.795 254.386V244.333H315.924C312.955 240.437 311.519 235.59 311.889 230.708C312.636 220.533 320.971 212.246 330.468 212.235H330.5C341.699 212.235 345.66 218.968 347.012 224.619C349.403 234.621 345.013 247.785 341.053 250.029V325.656C341.049 328.746 339.818 331.709 337.63 333.895C335.442 336.08 332.474 337.31 329.379 337.313Z" fill="#CACACA"/>
<path d="M253.485 317.076L260.042 321.754L281.229 298.723L271.552 291.82L253.485 317.076Z" fill="#FFB6B6"/>
<path d="M253.342 313.745L255.187 315.062L264.486 317.276L266.255 322.957L266.255 322.958C268.438 324.515 269.911 326.874 270.352 329.516C270.793 332.158 270.165 334.867 268.606 337.046L268.415 337.313L247.272 322.231L253.342 313.745Z" fill="#2F2E41"/>
<path d="M297.918 255.416H249.772C245.282 255.414 240.977 253.631 237.803 250.46C234.629 247.288 232.846 242.988 232.846 238.505C232.846 234.021 234.629 229.721 237.803 226.55C240.977 223.379 245.282 221.596 249.772 221.594H297.918C302.41 221.594 306.717 223.375 309.893 226.547C313.068 229.718 314.853 234.02 314.853 238.505C314.853 242.99 313.068 247.291 309.893 250.463C306.717 253.634 302.41 255.416 297.918 255.416Z" fill="#2F2E41"/>
<path d="M274.297 137.328L282.062 143.234L291.428 146.108C291.428 146.108 295.3 200.497 298.789 203.981C302.278 207.465 299.131 207.559 299.832 212.085C300.533 216.611 302.237 225.888 302.237 225.888C278.688 238.337 258.386 238.671 242.078 224.104C241.869 223.203 241.975 222.258 242.379 221.425C242.782 220.592 243.458 219.922 244.294 219.526C247.329 217.917 241.496 210.411 243.977 209.156C246.457 207.901 242.968 197.013 242.968 197.013L245.257 174.297L243.449 170.666L247.861 148.447L255.518 145.655L258.576 138.296L274.297 137.328Z" fill="#6C63FF"/>
<path d="M279.162 86.549C279.127 87.5313 279.308 88.5092 279.693 89.4139C280.077 90.3186 280.656 91.1281 281.387 91.7854C282.119 92.4426 282.986 92.9317 283.928 93.2181C284.869 93.5044 285.862 93.5812 286.837 93.4429L297.781 114.687L303.879 103.868L292.551 85.3528C292.21 83.7335 291.286 82.2955 289.954 81.3111C288.622 80.3268 286.975 79.8646 285.324 80.012C283.674 80.1595 282.135 80.9064 280.999 82.1112C279.863 83.316 279.209 84.895 279.162 86.549Z" fill="#FFB6B6"/>
<path d="M297.593 91.7459L321.068 128.08L320.991 128.247C320.902 128.438 315.586 139.904 310.435 150.405C309.642 152.022 308.853 153.616 308.087 155.143C307.757 155.802 307.431 156.447 307.111 157.079C304.947 161.338 303.057 164.858 301.929 166.53C299.433 170.311 295.718 173.126 291.399 174.507L291.291 174.535L291.187 174.492C289.075 173.602 287.329 172.019 286.238 170.006C285.147 167.992 284.776 165.667 285.186 163.414C287.222 152.549 291.759 142.305 298.44 133.491L302.245 128.481L289.02 99.7676L297.593 91.7459Z" fill="#6C63FF"/>
<path d="M257.036 82.0978C257.07 83.0801 256.889 84.058 256.505 84.9627C256.12 85.8674 255.541 86.6769 254.81 87.3342C254.078 87.9914 253.211 88.4805 252.269 88.7669C251.328 89.0532 250.335 89.13 249.36 88.9917L238.416 110.236L232.318 99.4169L243.646 80.9016C243.987 79.2823 244.911 77.8443 246.243 76.8599C247.575 75.8756 249.223 75.4134 250.873 75.5608C252.523 75.7083 254.062 76.4552 255.198 77.66C256.334 78.8648 256.988 80.4438 257.036 82.0978Z" fill="#FFB6B6"/>
<path d="M238.604 87.2948L215.129 123.628L215.206 123.796C215.295 123.987 220.611 135.452 225.762 145.954C226.555 147.571 227.344 149.165 228.11 150.692C228.44 151.351 228.766 151.996 229.086 152.628C231.25 156.887 233.14 160.407 234.268 162.079C236.764 165.86 240.479 168.675 244.798 170.056L244.906 170.084L245.01 170.041C247.122 169.151 248.868 167.568 249.959 165.555C251.05 163.541 251.421 161.216 251.011 158.963C248.975 148.098 244.438 137.854 237.758 129.039L233.952 124.03L247.177 95.3165L238.604 87.2948Z" fill="#6C63FF"/>
<path d="M266.346 134.042C274.83 134.042 281.708 127.174 281.708 118.701C281.708 110.229 274.83 103.361 266.346 103.361C257.863 103.361 250.985 110.229 250.985 118.701C250.985 127.174 257.863 134.042 266.346 134.042Z" fill="#FFB6B6"/>
<path d="M253.834 105.523C255.098 101.852 261.386 99.3068 271.581 98.9528C281.776 98.5988 284.362 110.597 284.362 110.597C291.168 116.11 277.094 130.871 276.414 130.339L276.72 127.566C277.227 122.972 279.381 119.388 276.641 114.601L274.011 114.631L269.022 115.589C268.711 115.649 268.389 115.605 268.105 115.464C267.822 115.323 267.593 115.092 267.453 114.808C267.314 114.525 267.272 114.203 267.334 113.892C267.395 113.582 267.558 113.301 267.795 113.092L267.841 113.052L267.728 112.877C265.97 113.682 264.159 114.429 262.238 114.541C260.076 114.668 257.713 113.809 256.677 111.91C256.401 111.388 256.232 110.816 256.18 110.227C253.265 111.39 251.932 114.979 251.932 114.979C251.932 114.979 252.571 109.193 253.834 105.523Z" fill="#2F2E41"/>
<path d="M295.322 310.551L289.172 315.751L266.16 294.537L275.236 286.862L295.322 310.551Z" fill="#FFB6B6"/>
<path d="M301.938 315.177L282.109 331.945L281.896 331.694C280.163 329.65 279.314 327.002 279.536 324.333C279.757 321.664 281.032 319.191 283.079 317.46L283.079 317.46L284.374 311.653L293.459 308.683L295.19 307.219L301.938 315.177Z" fill="#2F2E41"/>
<path d="M257.315 251.894L262.399 240.886C262.342 230.845 253.925 222.69 243.89 223.319C238.302 223.67 233.069 226.791 230.907 236.069C225.347 259.925 279.898 309.569 279.898 309.569L289.922 303.383L290.384 296.848L284.77 293.392L284.765 287.819L279.412 285.284L257.315 251.894Z" fill="#2F2E41"/>
<path d="M290.71 248.862L284.427 239.636C283.657 229.625 291.374 220.806 301.426 220.61C307.025 220.5 312.497 223.181 315.416 232.25C322.921 255.568 272.642 309.524 272.642 309.524L262.143 304.182L261.144 297.707L266.455 293.802L266.001 288.247L271.127 285.281L290.71 248.862Z" fill="#2F2E41"/>
<path d="M268.595 173.311V176.259H258.809V173.311H261.84V166.209L259.007 167.831V164.646L263.365 162.173H265.544V173.311L268.595 173.311Z" fill="white"/>
<path d="M270.804 174.577C269.873 173.338 269.407 171.544 269.407 169.196C269.407 166.888 269.873 165.118 270.804 163.884C271.299 163.305 271.914 162.839 272.606 162.52C273.299 162.2 274.053 162.035 274.815 162.035C275.578 162.035 276.332 162.2 277.025 162.52C277.717 162.839 278.332 163.305 278.827 163.884C279.758 165.118 280.224 166.888 280.224 169.196C280.224 171.544 279.758 173.338 278.827 174.577C278.334 175.16 277.72 175.628 277.027 175.949C276.334 176.27 275.579 176.437 274.815 176.437C274.052 176.437 273.297 176.27 272.604 175.949C271.911 175.628 271.297 175.16 270.804 174.577ZM276.182 172.609C276.517 171.504 276.658 170.349 276.598 169.196C276.656 168.066 276.515 166.935 276.182 165.853C276.097 165.556 275.918 165.296 275.671 165.11C275.425 164.924 275.124 164.824 274.815 164.824C274.507 164.824 274.206 164.924 273.96 165.11C273.713 165.296 273.534 165.556 273.449 165.853C273.115 166.935 272.975 168.066 273.032 169.196C272.973 170.349 273.114 171.504 273.449 172.609C273.531 172.907 273.71 173.171 273.957 173.358C274.204 173.546 274.505 173.648 274.815 173.648C275.126 173.648 275.427 173.546 275.674 173.358C275.921 173.171 276.099 172.907 276.182 172.609Z" fill="white"/>
<path d="M164.232 329.485L156.718 329.484L153.143 300.539L164.233 300.54L164.232 329.485Z" fill="#A0616A"/>
<path d="M164.497 337.313L141.389 337.312V337.02C141.389 334.638 142.336 332.354 144.023 330.669C145.71 328.985 147.997 328.039 150.383 328.039H150.383L154.604 324.841L162.48 328.039L164.497 328.039L164.497 337.313Z" fill="#2F2E41"/>
<path d="M217.402 329.485L224.916 329.484L228.491 300.539L217.4 300.54L217.402 329.485Z" fill="#A0616A"/>
<path d="M217.137 337.313L240.245 337.312V337.02C240.245 334.638 239.297 332.354 237.611 330.669C235.924 328.985 233.636 328.039 231.251 328.039H231.25L227.029 324.841L219.154 328.039L217.137 328.039L217.137 337.313Z" fill="#2F2E41"/>
<path d="M152.812 279.269C152.923 277.617 153.805 268.483 153.805 268.483L155.919 249.112L159.644 197.764L159.887 194.403L179.401 190.662L192.738 184.277L208.589 189.337L220.933 193.96C220.933 193.96 220.954 195.938 221.049 198.329C221.176 201.458 221.398 205.294 221.926 206.291C222.808 208.054 222.587 217.515 222.587 217.515C222.587 217.515 223.464 236.765 224.568 238.875C225.672 240.986 225.894 245.381 225.561 246.263C225.229 247.144 226.666 270.261 226.666 270.261C226.666 270.261 230.355 311.171 228.04 317.339C225.726 323.508 216.98 319.467 216.98 319.467C216.98 319.467 217.403 317.821 214.867 317.045C212.33 316.269 204.605 258.262 204.605 258.262C204.605 258.262 203.168 246.368 201.847 242.959C200.526 239.551 199.311 229.973 199.311 229.973C199.311 229.973 191.152 214.122 191.047 210.597C191.047 210.597 189.979 207.299 188.97 210.93C187.961 214.56 184.986 223.256 184.986 223.256L182.085 233.936L178.672 249.893L176.463 263.328C176.463 263.328 173.155 281.158 172.627 281.928C172.098 282.699 172.627 298.988 172.627 298.988C172.627 298.988 170.069 312.86 166.455 315.282C162.841 317.704 153.265 315.321 153.265 315.321C153.265 315.321 152.701 280.92 152.812 279.269Z" fill="#2F2E41"/>
<path d="M161.137 140.839L165.475 152.182L160.122 157.714L162.479 159.82L160.741 162.797L156.207 193.998L181.063 202.181L189.432 193.071L196.032 202.181L224.793 196.08L217.459 156.292V153.691L215.387 148.669V138.036L224.898 106.385L204.534 101.422L196.73 96.0597L194.204 103.601L183.451 101.94L183.171 96.2753L174.944 103.023L163.974 104.739L155.679 106.385L154.622 108.679L156.735 108.22L160.434 138.059L161.137 140.839Z" fill="#2F2E41"/>
<path d="M177.863 110.211L183.171 96.3078L196.73 96.0598L201.229 110.211L217.4 200.426C217.4 200.426 167.857 214.204 168.36 197.642C168.888 180.229 171.272 157.099 171.272 157.099L177.863 110.211Z" fill="#3F3D56"/>
<path d="M189.647 92.419C198.468 92.419 205.619 85.2778 205.619 76.4686C205.619 67.6595 198.468 60.5183 189.647 60.5183C180.826 60.5183 173.675 67.6595 173.675 76.4686C173.675 85.2778 180.826 92.419 189.647 92.419Z" fill="#A0616A"/>
<path d="M172.733 64.8976C175.333 62.0712 178.586 56.8975 188.437 54.725C200.61 52.0404 206.363 63.0221 203.293 63.2021C212.269 65.9167 206.503 84.4675 203.929 82.9117C203.907 82.8963 203.886 82.8798 203.866 82.8621C202.482 81.8443 201.32 80.5553 200.452 79.0741C199.583 77.5928 199.027 75.9502 198.815 74.2468L198.327 69.8569C198.257 73.4286 194.601 73.9011 190.867 72.5857C191.088 71.8026 191.509 71.0905 192.09 70.5198C192.67 69.949 193.39 69.5392 194.177 69.3309C191.893 71.4353 188.919 72.9408 184.765 73.4205C185.275 71.4497 186.291 69.999 187.881 69.1391L187.734 68.9945C186.212 70.1511 184.626 71.2628 182.796 71.7866C180.737 72.3758 178.27 72.057 176.86 70.4477C176.48 70.0036 176.193 69.488 176.016 68.9314C176.321 71.76 174.421 74.9889 172.945 74.4345C171.718 74.1962 171.002 66.7792 172.733 64.8976Z" fill="#2F2E41"/>
<path d="M209.34 75.5891L223.866 99.9942L234.603 94.9303C234.603 94.9303 216.103 71.8553 215.513 71.1915C215.766 70.0699 215.671 68.8982 215.242 67.8314C214.813 66.7647 214.07 65.8531 213.111 65.2172C212.152 64.5814 211.023 64.2513 209.872 64.2706C208.721 64.2899 207.603 64.6576 206.666 65.3252C205.728 65.9928 205.016 66.9288 204.624 68.0094C204.231 69.0899 204.176 70.2641 204.466 71.3766C204.755 72.489 205.377 73.4874 206.247 74.2396C207.118 74.9918 208.196 75.4624 209.34 75.5891Z" fill="#A0616A"/>
<path d="M216.373 136.237L238.917 120.019C240.388 118.96 241.622 117.607 242.539 116.046C243.456 114.485 244.037 112.75 244.245 110.951C244.452 109.153 244.282 107.331 243.744 105.603C243.207 103.874 242.314 102.276 241.123 100.912L224.898 82.3258L217.83 91.8904L223.278 103.266L212.73 106.043L216.373 136.237Z" fill="#2F2E41"/>
<path d="M177.68 77.883L163.154 102.288L152.418 97.2242C152.418 97.2242 170.918 74.1492 171.507 73.4854C171.255 72.3638 171.349 71.1921 171.778 70.1253C172.207 69.0586 172.95 68.147 173.909 67.5111C174.868 66.8753 175.998 66.5452 177.149 66.5645C178.3 66.5838 179.418 66.9515 180.355 67.6191C181.292 68.2868 182.004 69.2227 182.397 70.3033C182.79 71.3838 182.845 72.558 182.555 73.6705C182.265 74.783 181.644 75.7813 180.773 76.5335C179.903 77.2857 178.824 77.7563 177.68 77.883Z" fill="#A0616A"/>
<path d="M170.647 138.531L148.103 122.312C146.633 121.254 145.399 119.901 144.482 118.34C143.564 116.779 142.983 115.044 142.776 113.245C142.568 111.447 142.739 109.625 143.276 107.897C143.814 106.168 144.707 104.57 145.898 103.206L162.122 84.6198L169.19 94.1843L163.743 105.56L174.291 108.337L170.647 138.531Z" fill="#2F2E41"/>
<path d="M193.456 133.99C193.965 134.591 194.233 135.36 194.208 136.147C194.226 136.926 193.974 137.687 193.495 138.303C192.978 138.939 192.296 139.422 191.524 139.698C189.657 140.344 187.626 140.344 185.759 139.698C184.987 139.422 184.305 138.939 183.788 138.303C183.31 137.687 183.058 136.926 183.075 136.147C183.049 135.35 183.317 134.572 183.828 133.961C184.387 133.34 185.129 132.914 185.947 132.744C185.23 132.521 184.591 132.099 184.105 131.527C183.658 130.985 183.419 130.301 183.432 129.598C183.418 128.861 183.659 128.141 184.115 127.561C184.604 126.956 185.247 126.495 185.977 126.225C187.699 125.606 189.584 125.606 191.306 126.225C192.036 126.495 192.679 126.956 193.168 127.561C193.624 128.141 193.865 128.861 193.852 129.598C193.864 130.314 193.622 131.012 193.168 131.567C192.697 132.138 192.066 132.554 191.356 132.764C192.165 132.948 192.898 133.377 193.456 133.99ZM190.187 136.997C190.378 136.875 190.533 136.704 190.638 136.503C190.742 136.301 190.791 136.076 190.781 135.85C190.786 135.621 190.737 135.394 190.637 135.187C190.538 134.981 190.39 134.801 190.207 134.663C189.787 134.257 189.226 134.03 188.642 134.03C188.057 134.03 187.496 134.257 187.077 134.663C186.893 134.801 186.746 134.981 186.646 135.187C186.546 135.393 186.497 135.621 186.502 135.85C186.492 136.076 186.541 136.301 186.646 136.503C186.75 136.704 186.905 136.875 187.096 136.997C187.57 137.257 188.101 137.393 188.642 137.393C189.182 137.393 189.713 137.257 190.187 136.997ZM187.384 128.916C187.218 129.049 187.088 129.22 187.003 129.415C186.919 129.61 186.883 129.822 186.898 130.033C186.898 130.904 187.479 131.484 188.642 131.774C189.804 131.485 190.385 130.904 190.385 130.033C190.401 129.822 190.365 129.61 190.28 129.415C190.196 129.22 190.065 129.049 189.9 128.916C189.524 128.677 189.087 128.55 188.642 128.55C188.196 128.55 187.76 128.677 187.384 128.916Z" fill="white"/>
<path d="M14.8975 87.0699C15.2438 87.5813 15.6983 88.0106 16.2288 88.3276C16.7592 88.6447 17.3529 88.8417 17.9679 88.9048C18.5828 88.968 19.2042 88.8957 19.7882 88.6931C20.3722 88.4904 20.9046 88.1624 21.3479 87.7321L34.7761 94.4694L33.8613 86.7245L21.2498 81.514C20.4766 80.8183 19.4746 80.43 18.4338 80.4227C17.393 80.4154 16.3857 80.7896 15.6027 81.4744C14.8197 82.1592 14.3154 83.1071 14.1854 84.1383C14.0555 85.1696 14.3088 86.2127 14.8975 87.0699Z" fill="#9E616A"/>
<path d="M70.4498 118.33L63.7638 113.726C63.7638 113.726 56.1074 113.207 54.9558 110.776C53.8043 108.346 53.6102 109.163 52.3827 108.872C51.1551 108.581 50.5217 104.923 48.4639 105.354C43.8342 106.325 22.0611 91.9579 24.411 90.1622L26.1578 82.8069C28.0035 83.4951 29.9278 83.9508 31.8864 84.1637C34.8477 84.4334 41.8249 87.8123 42.8583 88.9203C43.8918 90.0283 45.7226 89.5987 48.1777 90.1802C50.6329 90.7616 51.4921 94.7054 55.5641 93.656C61.2935 92.1794 90.9762 106.239 94.1875 107.551C97.712 108.992 100.173 113.285 100.173 113.285L99.2028 117.371L70.4498 118.33Z" fill="#6C63FF"/>
<path d="M118.703 327.23H124.53L127.303 304.785H118.702L118.703 327.23Z" fill="#9E616A"/>
<path d="M116.801 323.245L126.11 322.69V326.673L134.961 332.778C135.399 333.079 135.728 333.512 135.901 334.014C136.074 334.515 136.082 335.059 135.924 335.566C135.766 336.072 135.45 336.515 135.022 336.829C134.594 337.144 134.077 337.313 133.546 337.313H122.462L120.552 333.373L119.806 337.313H115.627L116.801 323.245Z" fill="#2F2E41"/>
<path d="M45.6678 322.287L51.0819 324.439L61.971 304.609L53.9806 301.433L45.6678 322.287Z" fill="#9E616A"/>
<path d="M45.377 317.881L54.232 320.804L52.7568 324.505L58.7195 333.446C59.014 333.887 59.1595 334.411 59.1347 334.941C59.1099 335.471 58.9161 335.979 58.5817 336.391C58.2472 336.804 57.7895 337.098 57.2755 337.232C56.7614 337.366 56.218 337.333 55.7244 337.137L45.4267 333.043L45.1109 328.677L42.9587 332.062L39.0761 330.519L45.377 317.881Z" fill="#2F2E41"/>
<path d="M106.956 260.44L97.2394 215.156L82.0659 265.471L58.0394 313.182L57.9122 313.435L50.3014 309.343C49.2273 289.97 51.7783 271.816 61.1086 255.942L65.5267 212.37C65.6621 210.882 68.9577 175.93 79.3933 169.731L82.4494 162.772L112.846 155.275L112.956 155.4C115.879 158.68 117.81 162.722 118.524 167.055L127.607 222.003L127.612 222.034L125.177 260.366L128.508 316.919H116.455C108.998 302.908 105.832 284.081 106.956 260.44Z" fill="#2F2E41"/>
<path d="M133.123 70.5188C133.586 70.9276 133.954 71.4328 134.201 71.999C134.447 72.5651 134.567 73.1783 134.55 73.7955C134.534 74.4127 134.382 75.0187 134.106 75.571C133.83 76.1233 133.435 76.6084 132.951 76.992L137.915 91.157L130.341 89.255L126.789 76.0953C126.197 75.24 125.941 74.1978 126.067 73.1661C126.194 72.1344 126.695 71.1849 127.476 70.4976C128.257 69.8102 129.263 69.4327 130.303 69.4366C131.344 69.4406 132.348 69.8256 133.123 70.5188Z" fill="#9E616A"/>
<path d="M73.49 177.515C72.6714 177.515 72.2064 177.355 72.0263 177.011C71.7622 176.507 72.2206 175.848 72.7514 175.084C73.1216 174.552 74.203 173.494 73.6712 173.429C65.6078 172.446 69.4785 122.8 72.973 116.238C73.683 114.904 72.9318 112.858 73.7313 110.596C75.9154 104.416 78.8966 102.517 84.8357 98.7337C85.3178 98.4266 85.8198 98.1058 86.3418 97.7714C87.017 97.3381 86.9794 95.9015 86.9396 94.3802C86.8955 92.6894 86.8497 90.9408 87.6791 89.848L87.7331 89.7767L87.8201 89.7565C89.8263 89.2934 96.5739 88.4335 100.57 89.7628L100.625 89.7815L100.666 89.8225C101.616 90.7704 101.702 92.6066 101.786 94.3821C101.854 95.8399 101.919 97.2163 102.456 97.8142C106.562 102.384 111.218 102.295 111.265 102.294L111.496 102.288L111.519 102.517C114.398 107.988 112.144 128.308 114.145 140.93C116.177 153.754 133.537 164.669 118.672 166.608C118.704 166.657 118.722 166.714 118.724 166.773C118.726 166.831 118.712 166.89 118.683 166.941C117.785 168.617 76.5753 177.515 73.49 177.515Z" fill="#6C63FF"/>
<path d="M140.689 114.985L132.438 119.072C116.54 125.171 108.231 123.685 104.056 121.367C99.6023 118.893 98.83 115.1 98.7998 114.94L98.7971 114.863L99.8148 106.812C99.9441 105.789 100.29 104.806 100.828 103.927C101.367 103.047 102.087 102.293 102.94 101.712C103.793 101.132 104.76 100.74 105.776 100.561C106.793 100.382 107.836 100.421 108.836 100.675L127.818 105.499L127.471 96.2974L128.222 92.9842L126.837 88.9569L127.405 80.8687L134.213 79.2045L141.355 91.9794L140.072 95.5051L141.281 97.2603L141.279 97.3417L140.689 114.985Z" fill="#6C63FF"/>
<path d="M99.298 121.44V124.21L93.1569 135.526H89.1949L95.3162 124.388H88.8184V121.44L99.298 121.44Z" fill="white"/>
<path d="M371.41 337.848L0.589693 338C0.433594 338 0.284046 337.937 0.173826 337.827C0.0636069 337.717 0.00170898 337.567 0.00170898 337.411C0.00170898 337.255 0.0636069 337.106 0.173826 336.995C0.284046 336.885 0.433594 336.823 0.589693 336.822L371.41 336.67C371.566 336.671 371.716 336.733 371.826 336.843C371.936 336.954 371.998 337.103 371.998 337.259C371.998 337.415 371.936 337.565 371.826 337.675C371.716 337.785 371.566 337.848 371.41 337.848Z" fill="#CACACA"/>
<path d="M241.91 67.2288C253.313 67.2288 262.557 57.9786 262.557 46.5679C262.557 35.1572 253.313 25.907 241.91 25.907C230.507 25.907 221.263 35.1572 221.263 46.5679C221.263 57.9786 230.507 67.2288 241.91 67.2288Z" fill="#FFD500"/>
<path d="M43.6466 58.3218C55.0493 58.3218 64.2931 49.0716 64.2931 37.6609C64.2931 26.2502 55.0493 17 43.6466 17C32.2438 17 23 26.2502 23 37.6609C23 49.0716 32.2438 58.3218 43.6466 58.3218Z" fill="#FF6884"/>
<path d="M245.827 37.348C243.271 37.4534 240.394 37.6156 238.461 39.5188C236.859 41.0954 236.299 43.5497 237.771 45.4059C239.32 47.3603 241.897 47.7312 243.919 48.9801C245.176 49.7563 246.009 50.9323 246.036 52.4436C246.062 53.8584 245.409 55.1803 244.318 56.0671C241.642 58.2428 237.992 57.3421 235.46 55.4394C234.962 55.065 234.479 55.9055 234.972 56.2756C237.069 57.8515 239.769 58.7668 242.378 58.0887C244.78 57.4646 246.714 55.5739 246.975 53.0474C247.249 50.3846 245.502 48.5714 243.236 47.5312C241.165 46.5804 237.533 45.5674 237.875 42.6136C238.311 38.8581 242.905 38.437 245.827 38.3165C246.447 38.2909 246.45 37.3223 245.827 37.348Z" fill="white"/>
<path d="M47.5632 28.441C45.0075 28.5464 42.1304 28.7086 40.1971 30.6118C38.5957 32.1884 38.0357 34.6427 39.5072 36.4989C41.0566 38.4533 43.6332 38.8242 45.6558 40.0731C46.9128 40.8493 47.7458 42.0253 47.7728 43.5366C47.7981 44.9515 47.1456 46.2733 46.0548 47.1601C43.3784 49.3358 39.7286 48.4352 37.1967 46.5324C36.6985 46.158 36.2156 46.9985 36.7082 47.3687C38.8052 48.9445 41.5051 49.8598 44.1144 49.1818C46.5162 48.5576 48.451 46.6669 48.7112 44.1404C48.9854 41.4776 47.2383 39.6644 44.9727 38.6242C42.9018 37.6735 39.2696 36.6604 39.612 33.7067C40.0474 29.9511 44.6417 29.53 47.5632 29.4095C48.1837 29.3839 48.187 28.4153 47.5632 28.441Z" fill="white"/>
<path d="M241.385 35.5918L241.269 62.1657C241.266 62.789 242.234 62.7898 242.237 62.1657L242.353 35.5918C242.356 34.9685 241.388 34.9677 241.385 35.5918Z" fill="white"/>
<path d="M43.1218 26.6848L43.0057 53.2587C43.003 53.882 43.9708 53.8828 43.9736 53.2587L44.0896 26.6848C44.0923 26.0615 43.1245 26.0607 43.1218 26.6848Z" fill="white"/>
<path d="M327.91 92.2288C339.313 92.2288 348.557 82.9786 348.557 71.5679C348.557 60.1572 339.313 50.907 327.91 50.907C316.507 50.907 307.263 60.1572 307.263 71.5679C307.263 82.9786 316.507 92.2288 327.91 92.2288Z" fill="#A0616A"/>
<path d="M331.827 62.348C329.271 62.4534 326.394 62.6156 324.461 64.5188C322.859 66.0954 322.299 68.5497 323.771 70.4059C325.32 72.3603 327.897 72.7312 329.919 73.9801C331.176 74.7563 332.009 75.9323 332.036 77.4436C332.062 78.8584 331.409 80.1803 330.318 81.0671C327.642 83.2428 323.992 82.3421 321.46 80.4394C320.962 80.065 320.479 80.9055 320.972 81.2756C323.069 82.8515 325.769 83.7668 328.378 83.0887C330.78 82.4646 332.714 80.5739 332.975 78.0474C333.249 75.3846 331.502 73.5714 329.236 72.5312C327.165 71.5804 323.533 70.5674 323.875 67.6136C324.311 63.8581 328.905 63.437 331.827 63.3165C332.447 63.2909 332.45 62.3223 331.827 62.348Z" fill="white"/>
<path d="M327.385 60.5918L327.269 87.1657C327.266 87.789 328.234 87.7898 328.237 87.1657L328.353 60.5918C328.356 59.9685 327.388 59.9677 327.385 60.5918Z" fill="white"/>
<path d="M277.567 40.3798C276.405 37.8245 275.865 35.0303 275.992 32.2263C276.12 29.4224 276.911 26.6885 278.3 24.2488C278.697 23.5614 279.091 22.7294 279.96 22.5973C280.288 22.5377 280.627 22.591 280.921 22.7485C281.215 22.906 281.446 23.1585 281.578 23.4646C281.694 23.8718 281.673 24.3059 281.518 24.6999C281.362 25.0938 281.081 25.4258 280.718 25.6445C280.355 25.8633 279.93 25.9567 279.509 25.9104C279.087 25.864 278.693 25.6805 278.386 25.3881C276.739 24.0629 276.948 21.7308 277.107 19.8534C277.468 15.5758 277.462 11.0848 275.64 7.10348C273.954 3.41985 270.512 0.338708 266.355 0.00220825C265.627 -0.0566464 265.586 1.07191 266.31 1.13048C270.433 1.46422 273.659 4.85626 275.029 8.56869C275.803 10.8038 276.188 13.1547 276.168 15.5195C276.181 16.7333 276.125 17.947 276.031 19.157C275.889 20.3365 275.852 21.5263 275.92 22.7123C276.114 24.648 277.286 26.7232 279.382 27.0325C281.337 27.3211 283.247 25.2786 282.718 23.3378C282.59 22.9182 282.361 22.5367 282.049 22.2277C281.738 21.9186 281.354 21.6916 280.933 21.5669C280.512 21.4423 280.067 21.4239 279.637 21.5134C279.207 21.603 278.806 21.7976 278.47 22.08C277.736 22.6922 277.259 23.7437 276.84 24.5839C275.575 27.1119 274.894 29.891 274.847 32.7166C274.8 35.5422 275.389 38.3423 276.57 40.9106C276.88 41.5685 277.877 41.036 277.567 40.3798Z" fill="#CCCCCC"/>
<path d="M106.894 93.0102C106.468 92.2337 105.735 90.0131 104.913 90.0428C104.072 90.0796 103.229 90.0081 102.407 89.8301C102.318 89.8153 102.228 89.7955 102.144 89.7757C98.6712 88.9102 95.1101 88.4455 91.531 88.3909C88.6437 88.3513 85.474 88.6975 83.4584 90.7599C81.4427 92.8223 81.7398 97.0756 84.5182 97.862C75.2332 99.4675 65.6887 97.3547 57.9528 91.9815C53.035 88.5293 49.0928 83.905 44.9227 79.5824C40.7527 75.2549 36.1568 71.0955 30.5356 68.9787C24.9096 66.857 18.0305 67.1537 13.4989 71.1054C7.97191 75.9226 7.54599 84.2117 7.54104 91.5364C7.53608 94.2763 8.39287 93.6977 10.8147 94.9885C13.0631 96.1854 15.4255 98.6484 16.7973 96.5069C18.1692 94.3653 18.4118 91.7194 18.6941 89.1921C18.9715 86.6648 19.3825 84.004 20.9872 82.0306C23.7457 78.6378 29.1786 78.6032 32.9871 80.7546C36.7956 82.906 39.3561 86.6697 41.7779 90.3098C44.1996 93.945 46.7552 97.7186 50.5587 99.8848C55.5558 102.729 61.8307 102.308 67.0457 104.732C70.3589 106.275 73.0382 108.861 75.7869 111.26C78.5405 113.659 81.5566 115.968 85.1274 116.745C88.6932 117.526 92.9276 116.349 94.6808 113.149C96.2606 110.256 95.4881 106.552 96.8946 103.564C97.9792 101.26 100.193 99.7315 102.189 98.139C103.011 97.4812 103.224 99.7463 103.922 98.9451C105.938 98.5445 107.83 94.7165 106.894 93.0102Z" fill="#3F3D56"/>
<path d="M93.0071 88.9182C101.65 88.9182 108.656 81.9215 108.656 73.2906C108.656 64.6596 101.65 57.6629 93.0071 57.6629C84.3643 57.6629 77.358 64.6596 77.358 73.2906C77.358 81.9215 84.3643 88.9182 93.0071 88.9182Z" fill="#2F2E41"/>
<path d="M94.2669 90.2082C100.475 90.0325 105.366 84.8639 105.19 78.6638C105.014 72.4636 99.8385 67.5798 93.6299 67.7555C87.4213 67.9312 82.5308 73.0998 82.7067 79.2999C82.8826 85.5 88.0583 90.3838 94.2669 90.2082Z" fill="#9E616A"/>
<path d="M94.057 61.8541L89.4981 61.9831C86.6251 62.0667 83.9027 63.2852 81.9284 65.3711C79.954 67.457 78.889 70.24 78.967 73.1092L78.9699 73.2101L79.0529 73.2621C81.5309 74.8993 84.4557 75.7303 87.4256 75.641L87.6819 75.6337L90.2009 75.5198C90.6246 74.4302 90.7662 73.2515 90.6128 72.0928C90.9932 73.1912 91.2902 74.3167 91.5011 75.4597L102.804 74.9458C103.461 74.9133 104.08 74.6254 104.528 74.1436C104.976 73.6618 105.218 73.0242 105.202 72.3669C105.117 69.4978 103.896 66.7796 101.807 64.8086C99.7173 62.8377 96.9302 61.7751 94.057 61.8541Z" fill="#2F2E41"/>
<path d="M84.9724 59.036C83.9435 60.3032 82.2912 60.8312 80.8067 61.5175C78.1873 62.7545 75.9097 64.6109 74.1713 66.9257C72.4328 69.2405 71.286 71.9438 70.8303 74.8013C70.4805 77.1281 70.6029 79.5232 70.0106 81.7987C69.4223 84.0741 67.8697 86.3341 65.5625 86.7914C64.0013 87.1034 62.4114 86.5429 60.9188 85.9875C60.098 85.6847 59.2771 85.3806 58.4562 85.0752C59.2426 82.93 60.0276 80.7849 60.8114 78.6398C59.5118 80.6801 57.9867 82.568 56.2647 84.2679C53.323 83.1791 50.3786 82.0903 47.4316 81.0016C54.6009 80.8259 53.1805 73.9113 54.5864 66.8934C55.3592 63.0371 62.7919 60.2303 64.1602 56.5434C64.8994 54.5437 66.1967 52.7974 67.8987 51.511C69.6007 50.2247 71.6361 49.4522 73.764 49.285C75.8919 49.1178 78.0232 49.5629 79.9057 50.5676C81.7882 51.5723 83.3431 53.0946 84.3863 54.9542C85.8747 55.4981 85.9823 57.7849 84.9724 59.036Z" fill="#2F2E41"/>
<path d="M85.6893 63.6837C88.9075 63.6837 91.5164 61.0783 91.5164 57.8644C91.5164 54.6506 88.9075 52.0452 85.6893 52.0452C82.471 52.0452 79.8621 54.6506 79.8621 57.8644C79.8621 61.0783 82.471 63.6837 85.6893 63.6837Z" fill="#2F2E41"/>
</g>
<defs>
<clipPath id="clip0_85_8933">
<rect width="372" height="338" fill="white"/>
</clipPath>
</defs>
</svg>
