<svg width="357" height="297" viewBox="0 0 357 297" fill="none" xmlns="http://www.w3.org/2000/svg">
<g clip-path="url(#clip0_85_8495)">
<path d="M234.856 0H131.118C114.983 0 101.904 13.0954 101.904 29.2495V266.59C101.904 282.745 114.983 295.84 131.118 295.84H234.856C250.99 295.84 264.07 282.745 264.07 266.59V29.2495C264.07 13.0954 250.99 0 234.856 0Z" fill="#3F3D56"/>
<path d="M261.334 29.2515V266.591C261.326 273.619 258.534 280.358 253.57 285.328C248.606 290.298 241.876 293.094 234.855 293.102H131.119C124.099 293.094 117.368 290.298 112.404 285.328C107.44 280.358 104.648 273.619 104.64 266.591V29.2515C104.648 22.2228 107.44 15.4843 112.404 10.5143C117.368 5.54429 124.099 2.74855 131.119 2.74042H144.684V7.43203C144.684 9.556 145.527 11.5929 147.027 13.0948C148.527 14.5967 150.561 15.4405 152.683 15.4406H213.291C215.413 15.4405 217.447 14.5967 218.947 13.0948C220.447 11.5929 221.29 9.556 221.29 7.43203V2.74042H234.855C241.876 2.74856 248.606 5.54429 253.57 10.5143C258.534 15.4843 261.326 22.2228 261.334 29.2515Z" fill="white"/>
<path d="M101.157 60.0147C100.63 60.0141 100.124 59.804 99.7511 59.4305C99.3781 59.057 99.1683 58.5507 99.1677 58.0225V54.0381C99.1677 53.5098 99.3773 53.003 99.7505 52.6294C100.124 52.2558 100.63 52.0459 101.157 52.0459C101.685 52.0459 102.191 52.2558 102.564 52.6294C102.938 53.003 103.147 53.5098 103.147 54.0381V58.0225C103.147 58.5507 102.937 59.057 102.564 59.4305C102.191 59.804 101.685 60.0141 101.157 60.0147Z" fill="#3F3D56"/>
<path d="M101.157 80.4453C100.63 80.4447 100.124 80.2346 99.7511 79.8611C99.3781 79.4877 99.1683 78.9813 99.1677 78.4531V67.4854C99.1677 66.957 99.3773 66.4503 99.7505 66.0767C100.124 65.7031 100.63 65.4932 101.157 65.4932C101.685 65.4932 102.191 65.7031 102.564 66.0767C102.938 66.4503 103.147 66.957 103.147 67.4854V78.4531C103.147 78.9813 102.937 79.4877 102.564 79.8611C102.191 80.2346 101.685 80.4447 101.157 80.4453Z" fill="#3F3D56"/>
<path d="M101.157 96.8702C100.63 96.8696 100.124 96.6595 99.7511 96.286C99.3781 95.9125 99.1683 95.4061 99.1677 94.878V83.9102C99.1677 83.3819 99.3773 82.8751 99.7505 82.5015C100.124 82.1279 100.63 81.918 101.157 81.918C101.685 81.918 102.191 82.1279 102.564 82.5015C102.938 82.8751 103.147 83.3819 103.147 83.9102V94.878C103.147 95.4061 102.937 95.9125 102.564 96.286C102.191 96.6595 101.685 96.8695 101.157 96.8702Z" fill="#3F3D56"/>
<path d="M264.319 87.9053C263.791 87.9047 263.285 87.6946 262.912 87.3211C262.539 86.9476 262.33 86.4413 262.329 85.9131V59.1513C262.329 58.623 262.539 58.1163 262.912 57.7426C263.285 57.369 263.791 57.1591 264.319 57.1591C264.846 57.1591 265.353 57.369 265.726 57.7426C266.099 58.1163 266.309 58.623 266.309 59.1513V85.9131C266.308 86.4413 266.098 86.9476 265.725 87.3211C265.352 87.6946 264.846 87.9047 264.319 87.9053Z" fill="#3F3D56"/>
<path d="M187.261 9.13707H171.84C171.511 9.13707 171.194 9.00589 170.961 8.77238C170.728 8.53888 170.597 8.22218 170.597 7.89195C170.597 7.56173 170.728 7.24503 170.961 7.01152C171.194 6.77802 171.511 6.64684 171.84 6.64684H187.261C187.591 6.64684 187.907 6.77802 188.14 7.01152C188.374 7.24503 188.505 7.56173 188.505 7.89195C188.505 8.22218 188.374 8.53888 188.14 8.77238C187.907 9.00589 187.591 9.13707 187.261 9.13707Z" fill="white"/>
<path d="M195.22 8.88805C195.77 8.88805 196.215 8.44208 196.215 7.89195C196.215 7.34183 195.77 6.89586 195.22 6.89586C194.671 6.89586 194.225 7.34183 194.225 7.89195C194.225 8.44208 194.671 8.88805 195.22 8.88805Z" fill="white"/>
<path d="M314.758 283.397C315.121 283.411 315.48 283.312 315.785 283.114C316.09 282.916 316.328 282.63 316.465 282.293C316.602 281.956 316.632 281.584 316.551 281.23C316.471 280.875 316.283 280.553 316.014 280.309C315.967 280.131 315.934 280.004 315.888 279.826C316.227 278.939 316.823 278.174 317.599 277.628C318.376 277.082 319.297 276.781 320.246 276.763C321.194 276.745 322.126 277.011 322.923 277.527C323.72 278.043 324.344 278.785 324.716 279.659C326.864 284.562 329.632 289.634 328.331 295.07C337.083 276.031 333.821 252.483 320.467 236.4C316.799 234.422 313.807 230.875 312.998 226.731C314.809 227.326 317.047 225.834 315.671 223.942C315.076 223.22 314.474 222.504 313.879 221.781C320.669 214.401 328.952 225.819 321.495 235.763C323.995 238.84 326.166 242.171 327.974 245.7C327.528 241.938 327.981 238.125 329.295 234.573C330.629 231.261 333.162 228.459 335.389 225.586C338.097 222.085 343.753 223.634 344.164 228.04C341.642 228.896 341.348 232.557 344.246 233.031C343.567 241.24 338.286 248.829 330.949 252.497C333.744 260.118 334.884 268.248 334.294 276.346C335.505 266.877 345.621 264.486 352.672 260.66C353.12 260.366 353.644 260.209 354.18 260.208C354.716 260.208 355.24 260.363 355.689 260.655C356.138 260.948 356.493 261.365 356.709 261.856C356.926 262.347 356.995 262.89 356.908 263.419C355.934 263.827 355.002 264.33 354.128 264.922C353.718 265.203 353.405 265.605 353.232 266.072C353.059 266.538 353.034 267.047 353.162 267.528C353.289 268.009 353.561 268.439 353.942 268.759C354.323 269.079 354.793 269.273 355.289 269.315C351.801 278.2 342.623 284.231 333.138 284.288C332.265 288.263 330.981 292.135 329.307 295.843L315.231 295.978C315.179 295.822 315.132 295.66 315.085 295.504C316.389 295.574 317.696 295.483 318.978 295.235C315.491 291.181 312.806 289.121 314.758 283.397Z" fill="#F2F2F2"/>
<path d="M42.2811 283.397C41.9178 283.411 41.5593 283.312 41.254 283.114C40.9487 282.916 40.7115 282.63 40.5745 282.293C40.4375 281.956 40.4073 281.584 40.4879 281.23C40.5686 280.875 40.7563 280.553 41.0255 280.309C41.0719 280.131 41.1052 280.004 41.1516 279.826C40.8125 278.939 40.2166 278.174 39.4401 277.628C38.6637 277.082 37.7421 276.781 36.7936 276.763C35.845 276.745 34.9127 277.011 34.1162 277.527C33.3196 278.043 32.6951 278.785 32.3227 279.659C30.1749 284.562 27.4073 289.634 28.708 295.07C19.956 276.031 23.2179 252.483 36.5727 236.4C40.2407 234.422 43.2321 230.875 44.0415 226.731C42.2299 227.326 39.9924 225.834 41.3682 223.942C41.9637 223.22 42.5648 222.504 43.1602 221.781C36.37 214.401 28.0874 225.819 35.5441 235.763C33.0446 238.84 30.8733 242.171 29.0654 245.7C29.5109 241.938 29.0582 238.125 27.7444 234.573C26.4101 231.261 23.8769 228.459 21.6499 225.586C18.9424 222.085 13.2864 223.634 12.8757 228.04C15.3971 228.896 15.6909 232.557 12.7929 233.031C13.4726 241.24 18.7531 248.829 26.0904 252.497C23.2955 260.118 22.1551 268.248 22.7452 276.346C21.534 266.877 11.4178 264.486 4.36747 260.66C3.91923 260.366 3.39525 260.209 2.85946 260.208C2.32366 260.208 1.79921 260.363 1.35008 260.655C0.90095 260.948 0.546556 261.365 0.330129 261.856C0.113703 262.347 0.0445977 262.89 0.131246 263.419C1.10547 263.827 2.03686 264.33 2.91169 264.922C3.32158 265.203 3.63443 265.605 3.80737 266.072C3.98031 266.538 4.00488 267.047 3.87769 267.528C3.7505 268.009 3.4778 268.439 3.09695 268.759C2.71611 269.079 2.24576 269.273 1.7504 269.315C5.23802 278.2 14.4161 284.231 23.9008 284.288C24.7745 288.263 26.0584 292.135 27.7318 295.843L41.8086 295.978C41.8606 295.822 41.9076 295.66 41.9545 295.504C40.6507 295.574 39.3433 295.483 38.0616 295.235C41.5477 291.181 44.2336 289.122 42.2815 283.398L42.2811 283.397Z" fill="#F2F2F2"/>
<path d="M138.757 14.4797H125.326C124.666 14.4797 124.034 14.2174 123.567 13.7504C123.101 13.2834 122.839 12.65 122.839 11.9895C122.839 11.3291 123.101 10.6956 123.567 10.2286C124.034 9.76163 124.666 9.49927 125.326 9.49927H138.757C139.417 9.49927 140.049 9.76163 140.516 10.2286C140.982 10.6956 141.244 11.3291 141.244 11.9895C141.244 12.65 140.982 13.2834 140.516 13.7504C140.049 14.2174 139.417 14.4797 138.757 14.4797Z" fill="#E6E6E6"/>
<path d="M226.805 14.2307C228.041 14.2307 229.043 13.2273 229.043 11.9895C229.043 10.7517 228.041 9.74831 226.805 9.74831C225.568 9.74831 224.566 10.7517 224.566 11.9895C224.566 13.2273 225.568 14.2307 226.805 14.2307Z" fill="#E6E6E6"/>
<path d="M233.769 14.2307C235.005 14.2307 236.007 13.2273 236.007 11.9895C236.007 10.7517 235.005 9.74831 233.769 9.74831C232.532 9.74831 231.53 10.7517 231.53 11.9895C231.53 13.2273 232.532 14.2307 233.769 14.2307Z" fill="#E6E6E6"/>
<path d="M240.733 14.2307C241.969 14.2307 242.971 13.2273 242.971 11.9895C242.971 10.7517 241.969 9.74831 240.733 9.74831C239.497 9.74831 238.494 10.7517 238.494 11.9895C238.494 13.2273 239.497 14.2307 240.733 14.2307Z" fill="#E6E6E6"/>
<path d="M225.239 49.2853H140.823C139.188 49.2876 137.62 49.9389 136.464 51.0966C135.308 52.2543 134.657 53.8239 134.655 55.4611V110.401C134.657 112.038 135.308 113.607 136.464 114.765C137.62 115.923 139.188 116.574 140.823 116.576H225.239C226.875 116.575 228.443 115.924 229.6 114.766C230.756 113.608 231.406 112.038 231.408 110.401V55.4611C231.406 53.8236 230.756 52.2536 229.6 51.0957C228.443 49.9378 226.875 49.2867 225.239 49.2853Z" fill="#F2F2F2"/>
<path d="M198.812 72.7392C191.183 86.2436 182.765 99.2852 173.6 111.796H160.362C169.033 101.22 177.711 90.6434 186.394 80.0672C188.885 77.0219 191.589 73.8316 195.326 72.5942L198.812 72.7392Z" fill="#3F3D56"/>
<path d="M181.219 70.5737C179.838 72.0142 178.515 73.5126 177.27 75.0691C174.527 78.3754 171.824 81.7107 169.11 85.0363C167.421 87.1051 165.731 89.174 164.061 91.2428C163.53 90.9017 163.026 90.5203 162.554 90.1021C159.886 87.7835 158.231 84.5108 157.944 80.9854C157.657 77.4599 158.761 73.962 161.018 71.2414C163.276 68.5207 166.508 66.7937 170.023 66.4304C173.537 66.067 177.053 67.0963 179.819 69.2976C180.317 69.6868 180.785 70.1134 181.219 70.5737Z" fill="#6C63FF"/>
<path d="M231.408 69.003V71.0101L230.512 70.6814L217.912 66.0695C213.808 64.5703 209.714 62.8571 205.476 61.7763C201.789 60.7202 197.873 60.7704 194.214 61.9207C190.952 63.1289 187.968 64.9838 185.439 67.3743C184.32 68.4103 183.235 69.4711 182.186 70.5718C181.842 70.9354 181.499 71.299 181.161 71.6625C180.146 72.7682 179.166 73.8988 178.236 75.0692C175.495 78.3762 172.789 81.7131 170.078 85.0351C168.387 87.107 166.695 89.1739 165.024 91.2408C159.443 98.079 153.894 104.93 148.38 111.795C147.637 111.787 146.897 111.693 146.176 111.516C151.802 104.519 157.455 97.5394 163.134 90.5784C163.263 90.419 163.392 90.2596 163.522 90.1002C164.188 89.2685 164.87 88.4318 165.546 87.6C168.377 84.1287 171.209 80.6606 174.043 77.1958C176.102 74.6757 178.147 72.1456 180.365 69.755C180.499 69.6006 180.639 69.4512 180.783 69.2968C180.997 69.0677 181.211 68.8436 181.43 68.6095C186.25 63.6241 192.264 59.2163 199.467 59.0968C203.705 59.0321 207.799 60.3768 211.739 61.7962C215.982 63.3352 220.21 64.8991 224.449 66.453L231.408 69.003Z" fill="#3F3D56"/>
<path d="M233.393 237.876H132.581C130.946 237.874 129.378 237.223 128.222 236.066C127.066 234.908 126.415 233.338 126.414 231.701V218.098C126.415 216.461 127.066 214.891 128.222 213.733C129.378 212.576 130.946 211.924 132.581 211.923H233.393C235.028 211.924 236.596 212.576 237.752 213.733C238.908 214.891 239.559 216.461 239.56 218.098V231.701C239.559 233.338 238.908 234.908 237.752 236.066C236.596 237.223 235.028 237.874 233.393 237.876Z" fill="#F2F2F2"/>
<path d="M233.393 168.15H132.581C130.946 168.148 129.378 167.497 128.222 166.339C127.066 165.181 126.415 163.612 126.414 161.974V148.371C126.415 146.734 127.066 145.164 128.222 144.007C129.378 142.849 130.946 142.198 132.581 142.196H233.393C235.028 142.198 236.596 142.849 237.752 144.007C238.908 145.164 239.559 146.734 239.56 148.371V161.974C239.559 163.612 238.908 165.181 237.752 166.339C236.596 167.497 235.028 168.148 233.393 168.15Z" fill="#F2F2F2"/>
<path d="M233.393 203.013H132.581C130.946 203.011 129.378 202.36 128.222 201.202C127.066 200.045 126.415 198.475 126.414 196.838V183.235C126.415 181.597 127.066 180.028 128.222 178.87C129.378 177.712 130.946 177.061 132.581 177.059H233.393C235.028 177.061 236.596 177.712 237.752 178.87C238.908 180.028 239.559 181.597 239.56 183.235V196.838C239.559 198.475 238.908 200.045 237.752 201.202C236.596 202.36 235.028 203.011 233.393 203.013Z" fill="#F2F2F2"/>
<path d="M195.235 222.571H165.532C165.179 222.571 164.841 222.431 164.592 222.182C164.343 221.932 164.203 221.594 164.203 221.241C164.203 220.888 164.343 220.55 164.592 220.3C164.841 220.051 165.179 219.911 165.532 219.911H195.235C195.587 219.911 195.925 220.051 196.174 220.3C196.423 220.55 196.563 220.888 196.563 221.241C196.563 221.594 196.423 221.932 196.174 222.182C195.925 222.431 195.587 222.571 195.235 222.571Z" fill="white"/>
<path d="M223.803 229.888H165.199C164.847 229.888 164.509 229.748 164.26 229.499C164.011 229.249 163.871 228.911 163.871 228.558C163.871 228.205 164.011 227.867 164.26 227.617C164.509 227.368 164.847 227.228 165.199 227.228H223.803C224.155 227.228 224.493 227.368 224.743 227.617C224.992 227.867 225.132 228.205 225.132 228.558C225.132 228.911 224.992 229.249 224.743 229.499C224.493 229.748 224.155 229.888 223.803 229.888Z" fill="white"/>
<path d="M149.751 233.819C154.672 233.819 158.66 229.826 158.66 224.899C158.66 219.973 154.672 215.98 149.751 215.98C144.831 215.98 140.842 219.973 140.842 224.899C140.842 229.826 144.831 233.819 149.751 233.819Z" fill="white"/>
<path d="M147.766 236.948C146.857 236.523 145.818 236.469 144.87 236.799C143.922 237.129 143.14 237.816 142.691 238.715C142.602 238.899 142.529 239.09 142.472 239.286L129.057 240.088L127.068 247.047L145.327 243.958C146.158 244.132 147.023 244.026 147.786 243.656C148.55 243.286 149.17 242.673 149.549 241.913C149.761 241.479 149.885 241.007 149.915 240.524C149.944 240.042 149.879 239.558 149.722 239.101C149.565 238.644 149.319 238.223 148.999 237.861C148.679 237.498 148.291 237.203 147.858 236.991C147.827 236.976 147.797 236.962 147.766 236.948Z" fill="#FFB6B6"/>
<path d="M118.154 202.623C117.27 202.26 116.318 202.093 115.364 202.132C114.41 202.171 113.475 202.415 112.623 202.848C111.771 203.281 111.023 203.893 110.428 204.641C109.834 205.39 109.407 206.258 109.178 207.186L105.489 222.099L106.183 248.188C106.183 248.188 125.435 251.887 128.667 249.51C131.899 247.132 131.596 245.362 131.899 247.132C132.202 248.902 133.59 249.645 133.609 248.941C133.628 248.236 133.785 248.357 134.59 248.145C135.396 247.933 138.951 246.621 138.951 246.621L139.11 239.183C139.11 239.183 133.233 236.952 131.807 237.617C130.382 238.283 132.111 239.387 130.382 238.283C128.653 237.179 128.464 233.693 128.168 236.834C127.872 239.976 127.007 240.561 125.71 239.164C124.414 237.767 118.408 238.659 118.408 238.659L122.23 209.658C122.422 208.199 122.126 206.718 121.389 205.445C120.652 204.172 119.514 203.18 118.154 202.623Z" fill="#6C63FF"/>
<path d="M247.805 279.991L248.007 274.498L226.94 271.101L226.641 279.209L247.805 279.991Z" fill="#FFB6B6"/>
<path d="M243.98 281.645L243.781 272.849L247.536 272.988L253.6 264.856C253.899 264.455 254.319 264.159 254.798 264.014C255.277 263.868 255.79 263.879 256.262 264.046C256.734 264.212 257.14 264.526 257.422 264.94C257.704 265.355 257.845 265.848 257.827 266.349L257.442 276.798L253.661 278.462L257.35 279.302L257.204 283.242L243.98 281.645Z" fill="#2F2E41"/>
<path d="M129.234 292.589L195.963 284.82C195.963 284.82 224.779 286.486 231.54 282.083L238.669 281.182L239.055 270.697C239.055 270.697 234.696 270.729 232.189 269.559C229.683 268.39 231.425 266.959 229.035 268.366C226.645 269.773 226.897 269.942 225.05 269.296C223.202 268.649 138.47 265.181 138.47 265.181L129.234 292.589Z" fill="#2F2E41"/>
<path d="M217.165 288.039L221.045 284.149L207.908 267.314L202.181 273.054L217.165 288.039Z" fill="#FFB6B6"/>
<path d="M213.238 286.647L219.067 280.063L221.726 282.722L231.694 280.89C232.187 280.799 232.695 280.869 233.145 281.088C233.595 281.307 233.964 281.665 234.197 282.108C234.43 282.552 234.515 283.059 234.44 283.554C234.365 284.05 234.133 284.508 233.779 284.863L226.399 292.261L222.497 290.905L224.63 294.034L221.848 296.823L213.238 286.647Z" fill="#2F2E41"/>
<path d="M102.908 256L103.572 271.439C104.353 289.614 124.344 300.615 139.847 291.125C140.132 290.95 140.419 290.769 140.707 290.582C140.707 290.582 146.584 289.001 146.405 286.499C146.227 283.996 147.663 282.779 148.933 283.461C150.204 284.143 166.839 260.506 166.839 260.506C166.839 260.506 201.402 277.768 209.027 281.831L217.073 279.636C217.073 279.636 220.1 281.068 219.01 278.997C217.919 276.926 217.723 277.918 217.388 275.662C217.053 273.406 216.196 270.608 215.676 270.726C215.157 270.844 172.918 241.244 172.918 241.244C172.918 241.244 166.036 234.272 157.5 238.875C157.323 239.552 157.475 239.575 157.475 239.575L129.277 262.579L125.293 255.004L102.908 256Z" fill="#2F2E41"/>
<path d="M121.86 199.271L109.77 193.598L106.151 199.903C106.151 199.903 96.4301 213.792 96.289 223.812C96.148 233.832 97.8732 236.811 97.8732 236.811C97.8732 236.811 93.6819 239.949 95.7776 241.866C97.8732 243.784 102.513 244.611 98.9494 245.443C95.386 246.274 96.289 254.691 100.269 256.185C104.248 257.679 125.62 257.666 125.62 257.666C125.428 257.014 125.414 256.321 125.579 255.662C125.745 255.002 126.083 254.398 126.56 253.914C128.217 252.251 129.71 253.444 128.217 250.855C126.725 248.266 124.238 249.761 126.227 246.274C128.217 242.788 128.217 241.746 128.217 241.746C128.217 241.746 132.273 234.017 126.163 225.632C125.791 225.121 126.104 225.101 126.104 225.101L121.17 208.548L121.86 199.271Z" fill="#6C63FF"/>
<path d="M102.377 175.418C102.479 177.974 100.87 181.597 100.077 183.781C99.2301 186.116 102.902 189.216 105.253 189.895C105.375 189.086 105.779 188.346 106.392 187.805C106.222 188.576 106.207 189.373 106.348 190.15L126.22 194.679C129.795 190.534 133.389 184.576 132.605 177.389C132.793 176.024 132.574 174.634 131.976 173.394C131.377 172.153 130.426 171.117 129.242 170.416L119.196 164.474C114.923 163.5 109.542 162.912 106.455 165.559C105.076 166.788 103.993 168.313 103.287 170.02C102.58 171.727 102.269 173.573 102.377 175.418Z" fill="#2F2E41"/>
<path d="M120.139 192.489C126.458 192.489 131.581 187.361 131.581 181.034C131.581 174.708 126.458 169.579 120.139 169.579C113.821 169.579 108.698 174.708 108.698 181.034C108.698 187.361 113.821 192.489 120.139 192.489Z" fill="#FFB6B6"/>
<path d="M106.736 174.915L106.184 177.343L115.836 179.543C115.845 179.052 115.954 178.568 116.159 178.121C116.363 177.675 116.657 177.275 117.023 176.948C116.815 177.9 116.839 178.888 117.092 179.829C122.298 182.754 126.99 183.79 131.197 183.044C131.767 183.174 132.365 183.072 132.86 182.76C133.354 182.448 133.705 181.953 133.835 181.382C135.528 173.938 131.093 166.329 123.694 164.481C121.896 164.031 120.025 163.944 118.193 164.227C116.361 164.51 114.604 165.157 113.024 166.128C111.445 167.1 110.075 168.378 108.995 169.887C107.915 171.395 107.147 173.105 106.736 174.915Z" fill="#2F2E41"/>
<path d="M112.379 158.895C113.652 158.618 114.999 158.685 116.15 157.822L115.395 159.556C117.487 158.982 119.718 159.205 121.655 160.182C122.232 160.441 122.723 160.857 123.073 161.384C123.261 161.701 123.375 162.058 123.407 162.426C123.44 162.794 123.389 163.164 123.259 163.51C123.135 163.807 122.951 164.074 122.719 164.295C122.486 164.517 122.209 164.687 121.907 164.796C121.371 164.957 120.81 165.016 120.253 164.969C117.904 164.914 115.555 164.859 113.206 164.805C112.311 164.86 111.416 164.686 110.607 164.299C110.177 164.033 109.833 163.647 109.619 163.188C109.405 162.73 109.329 162.218 109.401 161.717C109.625 160.141 111.107 159.171 112.379 158.895Z" fill="#2F2E41"/>
<path d="M174.443 248.673C174.415 248.64 174.384 248.611 174.349 248.587C174.264 248.487 174.159 248.406 174.043 248.346L173.205 247.898L167.647 241.72C167.325 241.552 166.951 241.516 166.603 241.62L166.589 241.624L164.208 242.361L162.16 242.997L159.3 243.885L139.817 249.925L127.011 253.895C126.664 254.005 126.375 254.246 126.205 254.567C126.035 254.889 125.997 255.264 126.101 255.612C126.161 255.804 126.26 255.981 126.393 256.133L126.8 256.587L127.655 257.54L129.636 261.649L130.185 262.263C130.36 262.459 130.587 262.6 130.84 262.671C131.092 262.742 131.36 262.739 131.611 262.664L173.801 250.917C174.02 250.846 174.219 250.722 174.379 250.557C174.539 250.391 174.656 250.188 174.719 249.966C174.782 249.744 174.79 249.51 174.742 249.285C174.694 249.059 174.591 248.849 174.443 248.673Z" fill="#CCCCCC"/>
<path d="M171.938 187.56L171.121 187.692C170.897 187.729 170.697 187.854 170.564 188.038L170.204 188.542L166.957 196.671C166.825 196.857 166.772 197.088 166.809 197.313L167.19 199.629L165.752 240.97C165.788 241.184 165.903 241.376 166.074 241.51L172.378 249.953L172.525 250.07L172.842 250.319C173.005 250.445 173.207 250.509 173.413 250.5L173.949 250.475C174.07 250.469 174.189 250.437 174.298 250.382C174.406 250.326 174.502 250.248 174.578 250.153C174.655 250.059 174.711 249.949 174.742 249.832C174.772 249.714 174.778 249.591 174.757 249.471L172.928 188.267C172.891 188.042 172.766 187.841 172.581 187.709C172.397 187.576 172.167 187.522 171.942 187.559L171.938 187.56Z" fill="#CCCCCC"/>
<path d="M170.57 190.772L167.694 199.544L166.581 234.584L171.058 238.568L170.57 190.772Z" fill="#6C63FF"/>
<path d="M148.327 244.221C147.418 243.795 146.379 243.742 145.431 244.072C144.484 244.402 143.702 245.089 143.252 245.987C143.164 246.171 143.091 246.362 143.034 246.558L129.618 247.361L127.63 254.32L145.889 251.231C146.719 251.405 147.584 251.299 148.348 250.929C149.111 250.559 149.731 249.946 150.111 249.186C150.538 248.309 150.6 247.297 150.283 246.374C149.966 245.451 149.295 244.692 148.419 244.264C148.389 244.249 148.358 244.235 148.327 244.221Z" fill="#FFB6B6"/>
<path d="M118.715 209.895C117.831 209.533 116.88 209.366 115.925 209.405C114.971 209.444 114.036 209.688 113.184 210.121C112.333 210.554 111.584 211.165 110.99 211.914C110.395 212.662 109.968 213.53 109.739 214.459L106.051 229.372L106.744 255.461C106.744 255.461 125.996 259.16 129.228 256.782C132.46 254.405 132.157 252.635 132.46 254.405C132.764 256.175 134.151 256.917 134.17 256.213C134.189 255.509 134.346 255.63 135.152 255.417C135.957 255.205 139.512 253.894 139.512 253.894L139.671 246.455C139.671 246.455 133.794 244.225 132.369 244.89C130.943 245.556 132.672 246.66 130.943 245.556C129.214 244.451 129.025 240.966 128.729 244.107C128.434 247.248 127.568 247.833 126.272 246.436C124.975 245.04 118.969 245.932 118.969 245.932L122.791 216.931C122.983 215.472 122.688 213.991 121.95 212.718C121.213 211.445 120.075 210.453 118.715 209.895Z" fill="#6C63FF"/>
<path d="M2.62004e-06 296.407C-0.000229223 296.485 0.0149277 296.562 0.0445961 296.634C0.0742645 296.706 0.117863 296.772 0.172881 296.827C0.227899 296.882 0.293248 296.926 0.365176 296.955C0.437103 296.985 0.514187 297 0.591991 297H356.408C356.565 297 356.716 296.938 356.827 296.826C356.938 296.715 357 296.565 357 296.407C357 296.25 356.938 296.099 356.827 295.988C356.716 295.877 356.565 295.815 356.408 295.815H0.591961C0.51416 295.814 0.437084 295.83 0.365161 295.859C0.293238 295.889 0.227888 295.933 0.172874 295.988C0.11786 296.043 0.0742636 296.108 0.0445961 296.18C0.0149286 296.252 -0.000226563 296.329 2.62004e-06 296.407Z" fill="#CCCCCC"/>
<path d="M313.978 168.15H213.167C211.532 168.148 209.964 167.497 208.808 166.339C207.652 165.181 207.001 163.612 206.999 161.974V148.371C207.001 146.734 207.652 145.164 208.808 144.007C209.964 142.849 211.532 142.198 213.167 142.196H313.978C315.614 142.198 317.181 142.849 318.338 144.007C319.494 145.164 320.144 146.734 320.146 148.371V161.974C320.144 163.612 319.494 165.181 318.338 166.339C317.181 167.497 315.614 168.148 313.978 168.15Z" fill="#E6E6E6"/>
<path d="M275.82 152.845H246.117C245.765 152.845 245.427 152.705 245.178 152.455C244.929 152.206 244.789 151.867 244.789 151.514C244.789 151.162 244.929 150.823 245.178 150.574C245.427 150.324 245.765 150.184 246.117 150.184H275.82C276.173 150.184 276.511 150.324 276.76 150.574C277.009 150.823 277.149 151.162 277.149 151.514C277.149 151.867 277.009 152.206 276.76 152.455C276.511 152.705 276.173 152.845 275.82 152.845Z" fill="white"/>
<path d="M304.389 160.162H245.785C245.433 160.162 245.095 160.022 244.846 159.772C244.596 159.523 244.456 159.184 244.456 158.831C244.456 158.479 244.596 158.14 244.846 157.891C245.095 157.641 245.433 157.501 245.785 157.501H304.389C304.741 157.501 305.079 157.641 305.328 157.891C305.578 158.14 305.718 158.479 305.718 158.831C305.718 159.184 305.578 159.523 305.328 159.772C305.079 160.022 304.741 160.162 304.389 160.162Z" fill="white"/>
<path d="M230.337 164.093C235.257 164.093 239.246 160.099 239.246 155.173C239.246 150.247 235.257 146.253 230.337 146.253C225.417 146.253 221.428 150.247 221.428 155.173C221.428 160.099 225.417 164.093 230.337 164.093Z" fill="white"/>
<path d="M281.645 203.013H180.833C179.198 203.011 177.63 202.36 176.474 201.202C175.318 200.045 174.667 198.475 174.666 196.838V183.235C174.667 181.597 175.318 180.028 176.474 178.87C177.63 177.712 179.198 177.061 180.833 177.059H281.645C283.28 177.061 284.848 177.712 286.004 178.87C287.16 180.028 287.811 181.597 287.812 183.235V196.838C287.811 198.475 287.16 200.045 286.004 201.202C284.848 202.36 283.28 203.011 281.645 203.013Z" fill="#E6E6E6"/>
<path d="M243.487 187.708H213.784C213.431 187.708 213.093 187.568 212.844 187.318C212.595 187.069 212.455 186.73 212.455 186.378C212.455 186.025 212.595 185.686 212.844 185.437C213.093 185.187 213.431 185.047 213.784 185.047H243.487C243.839 185.047 244.177 185.187 244.426 185.437C244.675 185.686 244.816 186.025 244.816 186.378C244.816 186.73 244.675 187.069 244.426 187.318C244.177 187.568 243.839 187.708 243.487 187.708Z" fill="white"/>
<path d="M272.055 195.025H213.451C213.099 195.025 212.761 194.885 212.512 194.635C212.263 194.386 212.123 194.048 212.123 193.695C212.123 193.342 212.263 193.003 212.512 192.754C212.761 192.504 213.099 192.364 213.451 192.364H272.055C272.407 192.364 272.745 192.504 272.994 192.754C273.244 193.003 273.384 193.342 273.384 193.695C273.384 194.048 273.244 194.386 272.994 194.635C272.745 194.885 272.407 195.025 272.055 195.025Z" fill="white"/>
<path d="M198.003 198.956C202.924 198.956 206.912 194.962 206.912 190.036C206.912 185.11 202.924 181.116 198.003 181.116C193.083 181.116 189.094 185.11 189.094 190.036C189.094 194.962 193.083 198.956 198.003 198.956Z" fill="white"/>
</g>
<defs>
<clipPath id="clip0_85_8495">
<rect width="357" height="297" fill="white"/>
</clipPath>
</defs>
</svg>
