<svg width="32" height="40" viewBox="0 0 32 40" fill="none" xmlns="http://www.w3.org/2000/svg">
<path fill-rule="evenodd" clip-rule="evenodd" d="M2.99998 0H22.2412L31.4999 9.215V37.5C31.4999 38.8812 30.38 40 28.9999 40H2.99998C1.61994 40 0.5 38.8812 0.5 37.5V2.49998C0.5 1.11877 1.62007 0 2.99998 0Z" fill="white"/>
<path d="M2.99998 0.5H22.0348L30.9999 9.4228V37.5C30.9999 38.6049 30.104 39.5 28.9999 39.5H2.99998C1.89594 39.5 1 38.6049 1 37.5V2.49998C1 1.39508 1.89604 0.5 2.99998 0.5Z" stroke="#E8E9EB"/>
<path d="M31.0001 9.5H24.2294C22.9987 9.5 22 8.50231 22 7.27286V0.5" stroke="#E8E9EB"/>
<path d="M9.86194 30C9.63579 30 9.41874 29.9316 9.23353 29.8025C8.55704 29.3295 8.46606 28.8031 8.50895 28.4446C8.62722 27.4585 9.93537 26.4264 12.3983 25.3749C13.3757 23.3786 14.3056 20.9188 14.8599 18.8637C14.2114 17.5482 13.581 15.8413 14.0405 14.8401C14.2016 14.4894 14.4025 14.2205 14.7774 14.1042C14.9256 14.0581 15.2999 14 15.4377 14C15.7652 14 16.0531 14.3931 16.2571 14.6354C16.4488 14.8631 16.8836 15.3459 16.0147 18.7553C16.8907 20.4416 18.132 22.1593 19.3212 23.3356C20.1731 23.192 20.9062 23.1187 21.5034 23.1187C22.521 23.1187 23.1378 23.3398 23.3893 23.7953C23.5972 24.172 23.5121 24.6124 23.1358 25.1036C22.7738 25.5754 22.2748 25.825 21.6931 25.825C20.9029 25.825 19.9827 25.3598 18.9566 24.4409C17.113 24.8001 14.96 25.4409 13.2197 26.1502C12.6764 27.2247 12.1559 28.0902 11.6711 28.725C11.005 29.5942 10.4306 30 9.86194 30ZM11.5918 26.8952C10.2031 27.6227 9.63709 28.2205 9.59615 28.5572C9.58965 28.613 9.57211 28.7595 9.87624 28.9764C9.97306 28.9479 10.5384 28.7075 11.5918 26.8952ZM20.4539 24.2047C20.9835 24.5845 21.1128 24.7765 21.4592 24.7765C21.6113 24.7765 22.0447 24.7704 22.2455 24.5094C22.3423 24.3828 22.38 24.3016 22.395 24.258C22.315 24.2187 22.2091 24.1387 21.6314 24.1387C21.3032 24.1393 20.8906 24.1526 20.4539 24.2047ZM15.5995 20.218C15.1348 21.7165 14.5214 23.3343 13.8618 24.7995C15.22 24.3083 16.6964 23.8795 18.0832 23.576C17.2059 22.6263 16.3293 21.4403 15.5995 20.218ZM15.205 15.0927C15.1413 15.1127 14.3407 16.1569 15.2674 17.0406C15.8841 15.7595 15.233 15.0842 15.205 15.0927Z" fill="#E2574C"/>
</svg>
