<svg width="21" height="21" viewBox="0 0 21 21" fill="none" xmlns="http://www.w3.org/2000/svg">
<path d="M8.00246 2.61464C7.69873 1.85532 6.96332 1.35742 6.14551 1.35742H3.39474C2.3483 1.35742 1.5 2.20552 1.5 3.25195C1.5 12.1466 8.71078 19.3574 17.6055 19.3574C18.6519 19.3574 19.5 18.509 19.5 17.4626L19.5005 14.7114C19.5005 13.8936 19.0027 13.1583 18.2434 12.8545L15.6069 11.8004C14.9249 11.5275 14.1483 11.6503 13.5839 12.1206L12.9035 12.6881C12.1089 13.3503 10.9396 13.2976 10.2082 12.5662L8.29222 10.6485C7.56079 9.91704 7.50673 8.74876 8.16895 7.95411L8.73633 7.27372C9.20661 6.70938 9.33049 5.93258 9.05766 5.25051L8.00246 2.61464Z" stroke="#969CAB" stroke-width="2" stroke-linecap="round" stroke-linejoin="round"/>
</svg>
