<svg width="25" height="25" viewBox="0 0 25 25" fill="none" xmlns="http://www.w3.org/2000/svg">
<path d="M9.37187 21.4263C9.10521 21.4263 8.85088 21.3763 8.60888 21.2763C8.36754 21.1763 8.15521 21.0346 7.97188 20.8513L3.87188 16.7513C3.68854 16.5679 3.54688 16.3556 3.44688 16.1143C3.34688 15.8723 3.29688 15.6179 3.29688 15.3513V9.50127C3.29688 9.2346 3.34688 8.98027 3.44688 8.73827C3.54688 8.49694 3.68854 8.2846 3.87188 8.10127L7.97188 4.00127C8.15521 3.81794 8.36754 3.67627 8.60888 3.57627C8.85088 3.47627 9.10521 3.42627 9.37187 3.42627H15.2219C15.4885 3.42627 15.7429 3.47627 15.9849 3.57627C16.2262 3.67627 16.4385 3.81794 16.6219 4.00127L20.7219 8.10127C20.9052 8.2846 21.0469 8.49694 21.1469 8.73827C21.2469 8.98027 21.2969 9.2346 21.2969 9.50127V15.3513C21.2969 15.6179 21.2469 15.8723 21.1469 16.1143C21.0469 16.3556 20.9052 16.5679 20.7219 16.7513L16.6219 20.8513C16.4385 21.0346 16.2262 21.1763 15.9849 21.2763C15.7429 21.3763 15.4885 21.4263 15.2219 21.4263H9.37187ZM12.2969 17.4263C12.5802 17.4263 12.8179 17.3303 13.0099 17.1383C13.2012 16.9469 13.2969 16.7096 13.2969 16.4263C13.2969 16.1429 13.2012 15.9053 13.0099 15.7133C12.8179 15.5219 12.5802 15.4263 12.2969 15.4263C12.0135 15.4263 11.7762 15.5219 11.5849 15.7133C11.3929 15.9053 11.2969 16.1429 11.2969 16.4263C11.2969 16.7096 11.3929 16.9469 11.5849 17.1383C11.7762 17.3303 12.0135 17.4263 12.2969 17.4263ZM12.2969 13.4263C12.5802 13.4263 12.8179 13.3303 13.0099 13.1383C13.2012 12.9469 13.2969 12.7096 13.2969 12.4263V8.42627C13.2969 8.14294 13.2012 7.90527 13.0099 7.71327C12.8179 7.52194 12.5802 7.42627 12.2969 7.42627C12.0135 7.42627 11.7762 7.52194 11.5849 7.71327C11.3929 7.90527 11.2969 8.14294 11.2969 8.42627V12.4263C11.2969 12.7096 11.3929 12.9469 11.5849 13.1383C11.7762 13.3303 12.0135 13.4263 12.2969 13.4263ZM9.39688 19.4263H15.1969L19.2969 15.3263V9.52627L15.1969 5.42627H9.39688L5.29688 9.52627V15.3263L9.39688 19.4263Z" fill="#9097A9"/>
</svg>
