<svg width="125" height="51" viewBox="0 0 125 51" fill="none" xmlns="http://www.w3.org/2000/svg">
<rect x="0.860596" y="3.6748" width="81.8605" height="43.907" fill="#0036CE"/>
<rect x="82.7209" y="3.6748" width="41.6744" height="43.907" fill="#FF4E00"/>
<path d="M21.3849 39.6973H26.772L20.4343 28.1309C24.3557 27.1803 26.772 24.1303 26.772 20.1296C26.772 15.3763 23.4051 11.6133 17.9784 11.6133H7.20431V39.6973H11.9972V28.6063H15.4829L21.3849 39.6973ZM11.9972 24.4075V15.812H17.107C20.0382 15.812 21.9395 17.5153 21.9395 20.1296C21.9395 22.7043 20.0382 24.4075 17.107 24.4075H11.9972ZM38.8164 40.2914C44.7184 40.2914 49.3133 36.6869 49.3133 29.9134V11.6133H44.56V29.6361C44.56 33.5972 42.421 35.7758 38.8164 35.7758C35.2515 35.7758 33.0729 33.5972 33.0729 29.6361V11.6133H28.3592V29.9134C28.3592 36.6869 32.9541 40.2914 38.8164 40.2914ZM76.1146 39.6973V11.6133H71.3613V31.5375L58.6066 11.6133H52.5462V39.6973H57.2995V18.4263L71.1632 39.6973H76.1146Z" fill="white"/>
<path d="M115.902 11.6133H110.316L103.741 21.9121L97.2053 11.6133H91.5014L100.81 25.6355L91.4222 39.6973H97.0073L103.622 29.4381L110.158 39.6973H115.862L106.553 25.6751L115.902 11.6133Z" fill="white"/>
</svg>
