<svg width="18" height="18" viewBox="0 0 18 18" fill="none" xmlns="http://www.w3.org/2000/svg">
<path d="M16.9994 0.627395C17.0715 0.699664 17.1208 0.791539 17.1412 0.891608C17.1616 0.991676 17.1521 1.09553 17.114 1.19026L11.0493 16.3533C10.9959 16.4869 10.9066 16.6031 10.7914 16.6891C10.6762 16.7752 10.5395 16.8278 10.3963 16.8412C10.2531 16.8546 10.109 16.8281 9.9798 16.7649C9.85064 16.7016 9.74144 16.6039 9.66422 16.4826L6.35205 11.276L1.14616 7.96345C1.02455 7.8863 0.926618 7.77705 0.863166 7.64775C0.799714 7.51846 0.77321 7.37414 0.786579 7.23074C0.799947 7.08733 0.852669 6.9504 0.938926 6.83506C1.02518 6.71973 1.14162 6.63047 1.2754 6.57713L16.4366 0.513779C16.5313 0.475642 16.6351 0.466178 16.7352 0.486562C16.8352 0.506947 16.9271 0.556281 16.9994 0.628438V0.627395ZM7.39218 10.9717L10.2697 15.4934L15.2026 3.16031L7.39218 10.9717ZM14.4657 2.42336L2.13418 7.35681L6.65637 10.2337L14.4668 2.42336H14.4657Z" fill="white" stroke="white" stroke-width="0.4"/>
</svg>
