<svg width="398" height="852" viewBox="0 0 398 852" fill="none" xmlns="http://www.w3.org/2000/svg">
<g clip-path="url(#clip0_401_449)" filter="url(#filter0_d_401_449)">
<rect width="390" height="844" transform="translate(4)" fill="#0036CE"/>
<path opacity="0.2" fill-rule="evenodd" clip-rule="evenodd" d="M448.736 408.842C523.742 400.745 599.609 422.756 662.17 461.87C726.217 501.912 795.484 556.749 799.513 628.15C803.49 698.635 716.751 740.915 681.448 803.489C654.588 851.097 657.337 909.646 618.281 949.381C573.242 995.203 515.614 1043.26 448.736 1040.25C382.213 1037.25 346.931 967.755 290.792 934.612C229.119 898.203 126.054 901.667 104.477 837.009C82.8279 772.133 168.133 720.163 198.619 658.399C224.259 606.451 226.696 546.227 268.67 504.346C316.887 456.238 378.287 416.447 448.736 408.842Z" fill="#002692"/>
<path opacity="0.2" fill-rule="evenodd" clip-rule="evenodd" d="M-101.171 21.9378C-33.2568 28.6783 -13.5273 114.417 42.6864 150.301C101.304 187.72 202.263 173.292 230.603 233.724C258.482 293.173 197.99 356.015 166.246 413.782C139.523 462.41 113.19 514.101 61.8103 540.888C13.1361 566.264 -45.3364 551.218 -101.171 553.198C-160.009 555.285 -218.063 571.15 -273.492 552.779C-342.636 529.862 -423.147 501.531 -448.949 437.93C-474.829 374.135 -432.816 304.418 -398.758 243.997C-369.243 191.636 -319.048 156.409 -269.358 119.33C-216.588 79.9536 -168.588 15.2466 -101.171 21.9378Z" fill="#002692"/>
<path opacity="0.2" fill-rule="evenodd" clip-rule="evenodd" d="M160.506 -243.094C235.512 -251.19 311.379 -229.18 373.94 -190.066C437.987 -150.024 507.254 -95.1864 511.284 -23.7854C515.261 46.699 428.521 88.9792 393.218 151.554C366.359 199.161 369.108 257.711 330.052 297.445C285.013 343.267 227.384 391.328 160.506 388.312C93.9835 385.312 58.7016 315.819 2.56245 282.677C-59.1101 246.267 -162.176 249.732 -183.752 185.073C-205.402 120.198 -120.096 68.2276 -89.6108 6.46309C-63.9706 -45.485 -61.5333 -105.709 -19.5591 -147.589C28.6574 -195.698 90.0572 -235.489 160.506 -243.094Z" fill="#002692"/>
</g>
<defs>
<filter id="filter0_d_401_449" x="0" y="0" width="398" height="852" filterUnits="userSpaceOnUse" color-interpolation-filters="sRGB">
<feFlood flood-opacity="0" result="BackgroundImageFix"/>
<feColorMatrix in="SourceAlpha" type="matrix" values="0 0 0 0 0 0 0 0 0 0 0 0 0 0 0 0 0 0 127 0" result="hardAlpha"/>
<feOffset dy="4"/>
<feGaussianBlur stdDeviation="2"/>
<feComposite in2="hardAlpha" operator="out"/>
<feColorMatrix type="matrix" values="0 0 0 0 0 0 0 0 0 0 0 0 0 0 0 0 0 0 0.25 0"/>
<feBlend mode="normal" in2="BackgroundImageFix" result="effect1_dropShadow_401_449"/>
<feBlend mode="normal" in="SourceGraphic" in2="effect1_dropShadow_401_449" result="shape"/>
</filter>
<clipPath id="clip0_401_449">
<rect width="390" height="844" fill="white" transform="translate(4)"/>
</clipPath>
</defs>
</svg>
