<svg width="96" height="95" viewBox="0 0 96 95" fill="none" xmlns="http://www.w3.org/2000/svg">
<circle cx="48" cy="47.3545" r="47.3545" fill="#F4F7FF"/>
<g clip-path="url(#clip0_134_3425)">
<path d="M39.0293 24C45.5323 24 52.0264 24 58.5293 24C58.5293 27.2783 58.5293 30.5654 58.5293 33.8438C58.5293 34.9336 59.0234 35.4258 60.1176 35.4258C63.2499 35.4258 66.3823 35.4258 69.5146 35.4258C69.6734 35.4258 69.8234 35.4258 69.9999 35.4258C69.9999 35.6279 69.9999 35.7773 69.9999 35.918C69.9999 45.542 69.9999 55.166 69.9999 64.79C69.9999 67.3301 68.3234 69 65.7734 69C59.1293 69 52.4764 69 45.8323 69C45.6911 69 45.5499 69 45.2764 69C47.0852 67.6904 48.4793 66.1699 49.5293 64.3506C50.5881 62.5312 51.197 60.5625 51.4087 58.4531C51.9999 58.4531 52.5381 58.4531 53.0852 58.4531C56.1734 58.4531 59.2617 58.4531 62.3499 58.4531C62.9676 58.4531 63.444 58.2246 63.6999 57.6533C64.1146 56.748 63.4352 55.8164 62.3764 55.8076C58.8911 55.8076 55.4058 55.8076 51.9205 55.8076C51.7528 55.8076 51.5764 55.8076 51.3999 55.8076C51.2234 53.9355 50.7028 52.2129 49.8823 50.5342C52.044 50.5342 54.1352 50.5342 56.2176 50.5342C58.2734 50.5342 60.3381 50.5342 62.394 50.5342C62.994 50.5342 63.4529 50.2793 63.6999 49.7344C64.1058 48.8291 63.4264 47.8975 62.3676 47.8975C57.8234 47.8975 53.2793 47.8887 48.7352 47.9062C48.3028 47.9062 48.0205 47.7832 47.7293 47.458C45.1793 44.6631 42.0293 43.0459 38.244 42.7031C37.3793 42.624 36.497 42.6943 35.6146 42.6943C35.597 42.5713 35.5881 42.5186 35.5881 42.457C35.5881 37.5791 35.5793 32.7012 35.597 27.8232C35.6058 26.6016 36.1176 25.5469 37.1323 24.8525C37.697 24.4746 38.394 24.2812 39.0293 24ZM52.794 42.6328C52.9087 42.6328 53.0323 42.6328 53.147 42.6328C56.2176 42.6328 59.2881 42.6328 62.3587 42.6328C62.9587 42.6328 63.4176 42.4219 63.6911 41.877C64.1323 40.9629 63.4705 40.0049 62.3852 39.9961C57.4793 39.9961 52.5734 39.9961 47.6587 39.9961C46.1587 39.9961 44.6587 39.9961 43.1587 39.9961C42.6117 39.9961 42.1881 40.2158 41.9234 40.6992C41.4293 41.6045 42.0823 42.6328 43.1764 42.6328C46.3881 42.6328 49.5911 42.6328 52.794 42.6328Z" fill="#0036CE"/>
<path d="M25 56.1677C25.2029 55.2273 25.3353 54.2693 25.6353 53.3552C27.3118 48.2927 32.3324 44.9265 37.6176 45.2781C43.1059 45.6384 47.6324 49.6287 48.6206 54.9636C49.8824 61.7752 45.0294 68.2263 38.1029 68.9294C31.6353 69.5886 25.7941 64.9041 25.0794 58.4793C25.0618 58.3474 25.0265 58.2244 25 58.1013C25 57.4597 25 56.8093 25 56.1677ZM35.05 59.0593C34.4941 58.5056 33.9912 57.9783 33.4706 57.4685C32.8353 56.8357 32.0324 56.7918 31.4765 57.3455C30.9206 57.8992 30.9647 58.699 31.6 59.3318C32.3676 60.0964 33.1353 60.8611 33.9029 61.6257C34.7147 62.4343 35.4029 62.4343 36.2147 61.6257C38.0941 59.7537 39.9735 57.8816 41.8529 56.0095C41.9941 55.8689 42.1529 55.7283 42.2765 55.5613C42.8765 54.7703 42.4618 53.6628 41.4912 53.4695C40.9706 53.364 40.5471 53.5662 40.1853 53.9353C38.5 55.6316 36.8059 57.3191 35.05 59.0593Z" fill="#FF4E00"/>
<path d="M61.2031 24.9316C63.8237 27.542 66.4531 30.1611 69.0737 32.7627C66.4884 32.7627 63.859 32.7627 61.2031 32.7627C61.2031 30.126 61.2031 27.5068 61.2031 24.9316Z" fill="#809AE6"/>
</g>
<defs>
<clipPath id="clip0_134_3425">
<rect width="45" height="45" fill="white" transform="translate(25 24)"/>
</clipPath>
</defs>
</svg>
