<svg width="182" height="182" viewBox="0 0 182 182" fill="none" xmlns="http://www.w3.org/2000/svg">
<path d="M54.8985 107.052H45.631L33.6427 92.354L39.8034 88.097L54.8985 107.052ZM14.2779 72.4486V79.7487H33.0402L27.3236 83.6981L19.11 89.3765L6.69757 97.9523V107.052L14.9877 101.323L19.11 98.4746L31.7426 89.7386L37.9033 85.4798L46.2116 79.7396L57.0424 72.2539L14.2779 72.4486Z" fill="#FF4E00"/>
<path d="M90.3757 92.2341C89.4608 96.8133 87.3982 100.428 84.1877 103.078C80.9772 105.728 76.972 107.053 72.172 107.053C69.3583 107.053 66.9129 106.586 64.8356 105.653C62.7584 104.72 61.1556 103.385 60.0272 101.649C58.8988 99.9164 58.3346 97.8719 58.3346 95.5156C58.3304 94.4108 58.4457 93.3087 58.6786 92.2287L62.7008 72.2578H71.6315L67.6566 92.2341C67.5236 92.8131 67.4582 93.4055 67.4619 93.9995C67.4619 95.6679 67.9769 96.9849 69.0071 97.9508C70.0372 98.9166 71.4325 99.3989 73.1931 99.3977C75.1224 99.4209 76.9923 98.7306 78.4438 97.4594C79.9471 96.1672 80.9281 94.4254 81.3867 92.2341L85.3616 72.2633H94.3415L90.3757 92.2341Z" fill="#3366FF"/>
<path d="M123.942 72.263H132.283L125.411 106.652H117.559L106.126 86.0513L101.956 106.652H93.5643L100.435 72.2539H108.29L119.771 92.96L123.942 72.263Z" fill="#3366FF"/>
<path d="M175.302 116.809H164.512L149.68 95.4079L148.996 96.1905L139.887 106.659H129.384L144.999 88.6575L128.738 65.1904H139.237L150.889 81.8671L150.953 81.7906L159.219 72.2629H169.817L155.595 88.6047L175.302 116.809Z" fill="#3366FF"/>
</svg>
