<svg width="15" height="14" viewBox="0 0 15 14" fill="none" xmlns="http://www.w3.org/2000/svg">
<path d="M7.49992 10.306C7.26381 10.306 7.06603 10.226 6.90659 10.066C6.74659 9.90654 6.66658 9.70877 6.66658 9.47266V3.51432L5.10408 5.07682C4.93742 5.24349 4.74297 5.32682 4.52075 5.32682C4.29853 5.32682 4.09714 5.23654 3.91658 5.05599C3.74992 4.88932 3.6702 4.69127 3.67742 4.46182C3.68409 4.23293 3.76381 4.0421 3.91658 3.88932L6.91659 0.889323C6.99992 0.805989 7.0902 0.746823 7.18742 0.711823C7.28464 0.677378 7.38881 0.660156 7.49992 0.660156C7.61103 0.660156 7.7152 0.677378 7.81242 0.711823C7.90964 0.746823 7.99992 0.805989 8.08325 0.889323L11.0833 3.88932C11.2499 4.05599 11.3296 4.25377 11.3224 4.48266C11.3158 4.7121 11.236 4.90321 11.0833 5.05599C10.9166 5.22266 10.7188 5.30932 10.4899 5.31599C10.2605 5.32321 10.0624 5.24349 9.89575 5.07682L8.33325 3.51432V9.47266C8.33325 9.70877 8.25353 9.90654 8.09409 10.066C7.93409 10.226 7.73603 10.306 7.49992 10.306ZM2.49992 13.6393C2.04159 13.6393 1.64936 13.4763 1.32325 13.1502C0.996585 12.8235 0.833252 12.431 0.833252 11.9727V10.306C0.833252 10.0699 0.912974 9.87182 1.07242 9.71182C1.23242 9.55238 1.43047 9.47266 1.66659 9.47266C1.9027 9.47266 2.10075 9.55238 2.26075 9.71182C2.4202 9.87182 2.49992 10.0699 2.49992 10.306V11.9727H12.4999V10.306C12.4999 10.0699 12.5799 9.87182 12.7399 9.71182C12.8994 9.55238 13.0971 9.47266 13.3333 9.47266C13.5694 9.47266 13.7671 9.55238 13.9266 9.71182C14.0866 9.87182 14.1666 10.0699 14.1666 10.306V11.9727C14.1666 12.431 14.0035 12.8235 13.6774 13.1502C13.3508 13.4763 12.9583 13.6393 12.4999 13.6393H2.49992Z" fill="#969CAB"/>
</svg>
